<?xml version="1.0" encoding="utf-8" standalone="no"?>
<!DOCTYPE svg PUBLIC "-//W3C//DTD SVG 1.1//EN"
  "http://www.w3.org/Graphics/SVG/1.1/DTD/svg11.dtd">
<svg xmlns:xlink="http://www.w3.org/1999/xlink" width="460.8pt" height="345.6pt" viewBox="0 0 460.8 345.6" xmlns="http://www.w3.org/2000/svg" version="1.1">
 <metadata>
  <rdf:RDF xmlns:dc="http://purl.org/dc/elements/1.1/" xmlns:cc="http://creativecommons.org/ns#" xmlns:rdf="http://www.w3.org/1999/02/22-rdf-syntax-ns#">
   <cc:Work>
    <dc:type rdf:resource="http://purl.org/dc/dcmitype/StillImage"/>
    <dc:date>2023-11-08T20:59:06.718159</dc:date>
    <dc:format>image/svg+xml</dc:format>
    <dc:creator>
     <cc:Agent>
      <dc:title>Matplotlib v3.5.2, https://matplotlib.org/</dc:title>
     </cc:Agent>
    </dc:creator>
   </cc:Work>
  </rdf:RDF>
 </metadata>
 <defs>
  <style type="text/css">*{stroke-linejoin: round; stroke-linecap: butt}</style>
 </defs>
 <g id="figure_1">
  <g id="patch_1">
   <path d="M 0 345.6 
L 460.8 345.6 
L 460.8 0 
L 0 0 
z
" style="fill: #ffffff"/>
  </g>
  <g id="axes_1">
   <g id="patch_2">
    <path d="M 75.26 206.542798 
L 449.055964 206.542798 
L 449.055964 42.288 
L 75.26 42.288 
z
" style="fill: #ffffff"/>
   </g>
   <g id="matplotlib.axis_1">
    <g id="xtick_1">
     <g id="line2d_1">
      <defs>
       <path id="m043a46bb81" d="M 0 0 
L 0 3.5 
" style="stroke: #000000; stroke-width: 0.8"/>
      </defs>
      <g>
       <use xlink:href="#m043a46bb81" x="87.719865" y="206.542798" style="stroke: #000000; stroke-width: 0.8"/>
      </g>
     </g>
     <g id="text_1">
      <!-- Idade -->
      <g transform="translate(86.929504 237.652415)rotate(-75)scale(0.0833 -0.0833)">
       <defs>
        <path id="DejaVuSans-49" d="M 628 4666 
L 1259 4666 
L 1259 0 
L 628 0 
L 628 4666 
z
" transform="scale(0.015625)"/>
        <path id="DejaVuSans-64" d="M 2906 2969 
L 2906 4863 
L 3481 4863 
L 3481 0 
L 2906 0 
L 2906 525 
Q 2725 213 2448 61 
Q 2172 -91 1784 -91 
Q 1150 -91 751 415 
Q 353 922 353 1747 
Q 353 2572 751 3078 
Q 1150 3584 1784 3584 
Q 2172 3584 2448 3432 
Q 2725 3281 2906 2969 
z
M 947 1747 
Q 947 1113 1208 752 
Q 1469 391 1925 391 
Q 2381 391 2643 752 
Q 2906 1113 2906 1747 
Q 2906 2381 2643 2742 
Q 2381 3103 1925 3103 
Q 1469 3103 1208 2742 
Q 947 2381 947 1747 
z
" transform="scale(0.015625)"/>
        <path id="DejaVuSans-61" d="M 2194 1759 
Q 1497 1759 1228 1600 
Q 959 1441 959 1056 
Q 959 750 1161 570 
Q 1363 391 1709 391 
Q 2188 391 2477 730 
Q 2766 1069 2766 1631 
L 2766 1759 
L 2194 1759 
z
M 3341 1997 
L 3341 0 
L 2766 0 
L 2766 531 
Q 2569 213 2275 61 
Q 1981 -91 1556 -91 
Q 1019 -91 701 211 
Q 384 513 384 1019 
Q 384 1609 779 1909 
Q 1175 2209 1959 2209 
L 2766 2209 
L 2766 2266 
Q 2766 2663 2505 2880 
Q 2244 3097 1772 3097 
Q 1472 3097 1187 3025 
Q 903 2953 641 2809 
L 641 3341 
Q 956 3463 1253 3523 
Q 1550 3584 1831 3584 
Q 2591 3584 2966 3190 
Q 3341 2797 3341 1997 
z
" transform="scale(0.015625)"/>
        <path id="DejaVuSans-65" d="M 3597 1894 
L 3597 1613 
L 953 1613 
Q 991 1019 1311 708 
Q 1631 397 2203 397 
Q 2534 397 2845 478 
Q 3156 559 3463 722 
L 3463 178 
Q 3153 47 2828 -22 
Q 2503 -91 2169 -91 
Q 1331 -91 842 396 
Q 353 884 353 1716 
Q 353 2575 817 3079 
Q 1281 3584 2069 3584 
Q 2775 3584 3186 3129 
Q 3597 2675 3597 1894 
z
M 3022 2063 
Q 3016 2534 2758 2815 
Q 2500 3097 2075 3097 
Q 1594 3097 1305 2825 
Q 1016 2553 972 2059 
L 3022 2063 
z
" transform="scale(0.015625)"/>
       </defs>
       <use xlink:href="#DejaVuSans-49"/>
       <use xlink:href="#DejaVuSans-64" x="29.492188"/>
       <use xlink:href="#DejaVuSans-61" x="92.96875"/>
       <use xlink:href="#DejaVuSans-64" x="154.248047"/>
       <use xlink:href="#DejaVuSans-65" x="217.724609"/>
      </g>
     </g>
    </g>
    <g id="xtick_2">
     <g id="line2d_2">
      <g>
       <use xlink:href="#m043a46bb81" x="112.639596" y="206.542798" style="stroke: #000000; stroke-width: 0.8"/>
      </g>
     </g>
     <g id="text_2">
      <!-- Lado -->
      <g transform="translate(112.254657 234.626304)rotate(-75)scale(0.0833 -0.0833)">
       <defs>
        <path id="DejaVuSans-4c" d="M 628 4666 
L 1259 4666 
L 1259 531 
L 3531 531 
L 3531 0 
L 628 0 
L 628 4666 
z
" transform="scale(0.015625)"/>
        <path id="DejaVuSans-6f" d="M 1959 3097 
Q 1497 3097 1228 2736 
Q 959 2375 959 1747 
Q 959 1119 1226 758 
Q 1494 397 1959 397 
Q 2419 397 2687 759 
Q 2956 1122 2956 1747 
Q 2956 2369 2687 2733 
Q 2419 3097 1959 3097 
z
M 1959 3584 
Q 2709 3584 3137 3096 
Q 3566 2609 3566 1747 
Q 3566 888 3137 398 
Q 2709 -91 1959 -91 
Q 1206 -91 779 398 
Q 353 888 353 1747 
Q 353 2609 779 3096 
Q 1206 3584 1959 3584 
z
" transform="scale(0.015625)"/>
       </defs>
       <use xlink:href="#DejaVuSans-4c"/>
       <use xlink:href="#DejaVuSans-61" x="55.712891"/>
       <use xlink:href="#DejaVuSans-64" x="116.992188"/>
       <use xlink:href="#DejaVuSans-6f" x="180.46875"/>
      </g>
     </g>
    </g>
    <g id="xtick_3">
     <g id="line2d_3">
      <g>
       <use xlink:href="#m043a46bb81" x="137.559327" y="206.542798" style="stroke: #000000; stroke-width: 0.8"/>
      </g>
     </g>
     <g id="text_3">
      <!-- Diagnóstico -->
      <g transform="translate(133.587305 262.688042)rotate(-75)scale(0.0833 -0.0833)">
       <defs>
        <path id="DejaVuSans-44" d="M 1259 4147 
L 1259 519 
L 2022 519 
Q 2988 519 3436 956 
Q 3884 1394 3884 2338 
Q 3884 3275 3436 3711 
Q 2988 4147 2022 4147 
L 1259 4147 
z
M 628 4666 
L 1925 4666 
Q 3281 4666 3915 4102 
Q 4550 3538 4550 2338 
Q 4550 1131 3912 565 
Q 3275 0 1925 0 
L 628 0 
L 628 4666 
z
" transform="scale(0.015625)"/>
        <path id="DejaVuSans-69" d="M 603 3500 
L 1178 3500 
L 1178 0 
L 603 0 
L 603 3500 
z
M 603 4863 
L 1178 4863 
L 1178 4134 
L 603 4134 
L 603 4863 
z
" transform="scale(0.015625)"/>
        <path id="DejaVuSans-67" d="M 2906 1791 
Q 2906 2416 2648 2759 
Q 2391 3103 1925 3103 
Q 1463 3103 1205 2759 
Q 947 2416 947 1791 
Q 947 1169 1205 825 
Q 1463 481 1925 481 
Q 2391 481 2648 825 
Q 2906 1169 2906 1791 
z
M 3481 434 
Q 3481 -459 3084 -895 
Q 2688 -1331 1869 -1331 
Q 1566 -1331 1297 -1286 
Q 1028 -1241 775 -1147 
L 775 -588 
Q 1028 -725 1275 -790 
Q 1522 -856 1778 -856 
Q 2344 -856 2625 -561 
Q 2906 -266 2906 331 
L 2906 616 
Q 2728 306 2450 153 
Q 2172 0 1784 0 
Q 1141 0 747 490 
Q 353 981 353 1791 
Q 353 2603 747 3093 
Q 1141 3584 1784 3584 
Q 2172 3584 2450 3431 
Q 2728 3278 2906 2969 
L 2906 3500 
L 3481 3500 
L 3481 434 
z
" transform="scale(0.015625)"/>
        <path id="DejaVuSans-6e" d="M 3513 2113 
L 3513 0 
L 2938 0 
L 2938 2094 
Q 2938 2591 2744 2837 
Q 2550 3084 2163 3084 
Q 1697 3084 1428 2787 
Q 1159 2491 1159 1978 
L 1159 0 
L 581 0 
L 581 3500 
L 1159 3500 
L 1159 2956 
Q 1366 3272 1645 3428 
Q 1925 3584 2291 3584 
Q 2894 3584 3203 3211 
Q 3513 2838 3513 2113 
z
" transform="scale(0.015625)"/>
        <path id="DejaVuSans-f3" d="M 1959 3097 
Q 1497 3097 1228 2736 
Q 959 2375 959 1747 
Q 959 1119 1226 758 
Q 1494 397 1959 397 
Q 2419 397 2687 759 
Q 2956 1122 2956 1747 
Q 2956 2369 2687 2733 
Q 2419 3097 1959 3097 
z
M 1959 3584 
Q 2709 3584 3137 3096 
Q 3566 2609 3566 1747 
Q 3566 888 3137 398 
Q 2709 -91 1959 -91 
Q 1206 -91 779 398 
Q 353 888 353 1747 
Q 353 2609 779 3096 
Q 1206 3584 1959 3584 
z
M 2394 5119 
L 3016 5119 
L 1998 3944 
L 1519 3944 
L 2394 5119 
z
" transform="scale(0.015625)"/>
        <path id="DejaVuSans-73" d="M 2834 3397 
L 2834 2853 
Q 2591 2978 2328 3040 
Q 2066 3103 1784 3103 
Q 1356 3103 1142 2972 
Q 928 2841 928 2578 
Q 928 2378 1081 2264 
Q 1234 2150 1697 2047 
L 1894 2003 
Q 2506 1872 2764 1633 
Q 3022 1394 3022 966 
Q 3022 478 2636 193 
Q 2250 -91 1575 -91 
Q 1294 -91 989 -36 
Q 684 19 347 128 
L 347 722 
Q 666 556 975 473 
Q 1284 391 1588 391 
Q 1994 391 2212 530 
Q 2431 669 2431 922 
Q 2431 1156 2273 1281 
Q 2116 1406 1581 1522 
L 1381 1569 
Q 847 1681 609 1914 
Q 372 2147 372 2553 
Q 372 3047 722 3315 
Q 1072 3584 1716 3584 
Q 2034 3584 2315 3537 
Q 2597 3491 2834 3397 
z
" transform="scale(0.015625)"/>
        <path id="DejaVuSans-74" d="M 1172 4494 
L 1172 3500 
L 2356 3500 
L 2356 3053 
L 1172 3053 
L 1172 1153 
Q 1172 725 1289 603 
Q 1406 481 1766 481 
L 2356 481 
L 2356 0 
L 1766 0 
Q 1100 0 847 248 
Q 594 497 594 1153 
L 594 3053 
L 172 3053 
L 172 3500 
L 594 3500 
L 594 4494 
L 1172 4494 
z
" transform="scale(0.015625)"/>
        <path id="DejaVuSans-63" d="M 3122 3366 
L 3122 2828 
Q 2878 2963 2633 3030 
Q 2388 3097 2138 3097 
Q 1578 3097 1268 2742 
Q 959 2388 959 1747 
Q 959 1106 1268 751 
Q 1578 397 2138 397 
Q 2388 397 2633 464 
Q 2878 531 3122 666 
L 3122 134 
Q 2881 22 2623 -34 
Q 2366 -91 2075 -91 
Q 1284 -91 818 406 
Q 353 903 353 1747 
Q 353 2603 823 3093 
Q 1294 3584 2113 3584 
Q 2378 3584 2631 3529 
Q 2884 3475 3122 3366 
z
" transform="scale(0.015625)"/>
       </defs>
       <use xlink:href="#DejaVuSans-44"/>
       <use xlink:href="#DejaVuSans-69" x="77.001953"/>
       <use xlink:href="#DejaVuSans-61" x="104.785156"/>
       <use xlink:href="#DejaVuSans-67" x="166.064453"/>
       <use xlink:href="#DejaVuSans-6e" x="229.541016"/>
       <use xlink:href="#DejaVuSans-f3" x="292.919922"/>
       <use xlink:href="#DejaVuSans-73" x="354.101562"/>
       <use xlink:href="#DejaVuSans-74" x="406.201172"/>
       <use xlink:href="#DejaVuSans-69" x="445.410156"/>
       <use xlink:href="#DejaVuSans-63" x="473.193359"/>
       <use xlink:href="#DejaVuSans-6f" x="528.173828"/>
      </g>
     </g>
    </g>
    <g id="xtick_4">
     <g id="line2d_4">
      <g>
       <use xlink:href="#m043a46bb81" x="162.479058" y="206.542798" style="stroke: #000000; stroke-width: 0.8"/>
      </g>
     </g>
     <g id="text_4">
      <!-- Motocicleta -->
      <g transform="translate(158.496524 261.479112)rotate(-75)scale(0.0833 -0.0833)">
       <defs>
        <path id="DejaVuSans-4d" d="M 628 4666 
L 1569 4666 
L 2759 1491 
L 3956 4666 
L 4897 4666 
L 4897 0 
L 4281 0 
L 4281 4097 
L 3078 897 
L 2444 897 
L 1241 4097 
L 1241 0 
L 628 0 
L 628 4666 
z
" transform="scale(0.015625)"/>
        <path id="DejaVuSans-6c" d="M 603 4863 
L 1178 4863 
L 1178 0 
L 603 0 
L 603 4863 
z
" transform="scale(0.015625)"/>
       </defs>
       <use xlink:href="#DejaVuSans-4d"/>
       <use xlink:href="#DejaVuSans-6f" x="86.279297"/>
       <use xlink:href="#DejaVuSans-74" x="147.460938"/>
       <use xlink:href="#DejaVuSans-6f" x="186.669922"/>
       <use xlink:href="#DejaVuSans-63" x="247.851562"/>
       <use xlink:href="#DejaVuSans-69" x="302.832031"/>
       <use xlink:href="#DejaVuSans-63" x="330.615234"/>
       <use xlink:href="#DejaVuSans-6c" x="385.595703"/>
       <use xlink:href="#DejaVuSans-65" x="413.378906"/>
       <use xlink:href="#DejaVuSans-74" x="474.902344"/>
       <use xlink:href="#DejaVuSans-61" x="514.111328"/>
      </g>
     </g>
    </g>
    <g id="xtick_5">
     <g id="line2d_5">
      <g>
       <use xlink:href="#m043a46bb81" x="187.398789" y="206.542798" style="stroke: #000000; stroke-width: 0.8"/>
      </g>
     </g>
     <g id="text_5">
      <!-- Cranioencefálico -->
      <g transform="translate(180.626473 282.302329)rotate(-75)scale(0.0833 -0.0833)">
       <defs>
        <path id="DejaVuSans-43" d="M 4122 4306 
L 4122 3641 
Q 3803 3938 3442 4084 
Q 3081 4231 2675 4231 
Q 1875 4231 1450 3742 
Q 1025 3253 1025 2328 
Q 1025 1406 1450 917 
Q 1875 428 2675 428 
Q 3081 428 3442 575 
Q 3803 722 4122 1019 
L 4122 359 
Q 3791 134 3420 21 
Q 3050 -91 2638 -91 
Q 1578 -91 968 557 
Q 359 1206 359 2328 
Q 359 3453 968 4101 
Q 1578 4750 2638 4750 
Q 3056 4750 3426 4639 
Q 3797 4528 4122 4306 
z
" transform="scale(0.015625)"/>
        <path id="DejaVuSans-72" d="M 2631 2963 
Q 2534 3019 2420 3045 
Q 2306 3072 2169 3072 
Q 1681 3072 1420 2755 
Q 1159 2438 1159 1844 
L 1159 0 
L 581 0 
L 581 3500 
L 1159 3500 
L 1159 2956 
Q 1341 3275 1631 3429 
Q 1922 3584 2338 3584 
Q 2397 3584 2469 3576 
Q 2541 3569 2628 3553 
L 2631 2963 
z
" transform="scale(0.015625)"/>
        <path id="DejaVuSans-66" d="M 2375 4863 
L 2375 4384 
L 1825 4384 
Q 1516 4384 1395 4259 
Q 1275 4134 1275 3809 
L 1275 3500 
L 2222 3500 
L 2222 3053 
L 1275 3053 
L 1275 0 
L 697 0 
L 697 3053 
L 147 3053 
L 147 3500 
L 697 3500 
L 697 3744 
Q 697 4328 969 4595 
Q 1241 4863 1831 4863 
L 2375 4863 
z
" transform="scale(0.015625)"/>
        <path id="DejaVuSans-e1" d="M 2194 1759 
Q 1497 1759 1228 1600 
Q 959 1441 959 1056 
Q 959 750 1161 570 
Q 1363 391 1709 391 
Q 2188 391 2477 730 
Q 2766 1069 2766 1631 
L 2766 1759 
L 2194 1759 
z
M 3341 1997 
L 3341 0 
L 2766 0 
L 2766 531 
Q 2569 213 2275 61 
Q 1981 -91 1556 -91 
Q 1019 -91 701 211 
Q 384 513 384 1019 
Q 384 1609 779 1909 
Q 1175 2209 1959 2209 
L 2766 2209 
L 2766 2266 
Q 2766 2663 2505 2880 
Q 2244 3097 1772 3097 
Q 1472 3097 1187 3025 
Q 903 2953 641 2809 
L 641 3341 
Q 956 3463 1253 3523 
Q 1550 3584 1831 3584 
Q 2591 3584 2966 3190 
Q 3341 2797 3341 1997 
z
M 2290 5119 
L 2912 5119 
L 1894 3944 
L 1415 3944 
L 2290 5119 
z
" transform="scale(0.015625)"/>
       </defs>
       <use xlink:href="#DejaVuSans-43"/>
       <use xlink:href="#DejaVuSans-72" x="69.824219"/>
       <use xlink:href="#DejaVuSans-61" x="110.9375"/>
       <use xlink:href="#DejaVuSans-6e" x="172.216797"/>
       <use xlink:href="#DejaVuSans-69" x="235.595703"/>
       <use xlink:href="#DejaVuSans-6f" x="263.378906"/>
       <use xlink:href="#DejaVuSans-65" x="324.560547"/>
       <use xlink:href="#DejaVuSans-6e" x="386.083984"/>
       <use xlink:href="#DejaVuSans-63" x="449.462891"/>
       <use xlink:href="#DejaVuSans-65" x="504.443359"/>
       <use xlink:href="#DejaVuSans-66" x="565.966797"/>
       <use xlink:href="#DejaVuSans-e1" x="601.171875"/>
       <use xlink:href="#DejaVuSans-6c" x="662.451172"/>
       <use xlink:href="#DejaVuSans-69" x="690.234375"/>
       <use xlink:href="#DejaVuSans-63" x="718.017578"/>
       <use xlink:href="#DejaVuSans-6f" x="772.998047"/>
      </g>
     </g>
    </g>
    <g id="xtick_6">
     <g id="line2d_6">
      <g>
       <use xlink:href="#m043a46bb81" x="212.31852" y="206.542798" style="stroke: #000000; stroke-width: 0.8"/>
      </g>
     </g>
     <g id="text_6">
      <!-- Membro Superior -->
      <g transform="translate(205.229379 284.667146)rotate(-75)scale(0.0833 -0.0833)">
       <defs>
        <path id="DejaVuSans-6d" d="M 3328 2828 
Q 3544 3216 3844 3400 
Q 4144 3584 4550 3584 
Q 5097 3584 5394 3201 
Q 5691 2819 5691 2113 
L 5691 0 
L 5113 0 
L 5113 2094 
Q 5113 2597 4934 2840 
Q 4756 3084 4391 3084 
Q 3944 3084 3684 2787 
Q 3425 2491 3425 1978 
L 3425 0 
L 2847 0 
L 2847 2094 
Q 2847 2600 2669 2842 
Q 2491 3084 2119 3084 
Q 1678 3084 1418 2786 
Q 1159 2488 1159 1978 
L 1159 0 
L 581 0 
L 581 3500 
L 1159 3500 
L 1159 2956 
Q 1356 3278 1631 3431 
Q 1906 3584 2284 3584 
Q 2666 3584 2933 3390 
Q 3200 3197 3328 2828 
z
" transform="scale(0.015625)"/>
        <path id="DejaVuSans-62" d="M 3116 1747 
Q 3116 2381 2855 2742 
Q 2594 3103 2138 3103 
Q 1681 3103 1420 2742 
Q 1159 2381 1159 1747 
Q 1159 1113 1420 752 
Q 1681 391 2138 391 
Q 2594 391 2855 752 
Q 3116 1113 3116 1747 
z
M 1159 2969 
Q 1341 3281 1617 3432 
Q 1894 3584 2278 3584 
Q 2916 3584 3314 3078 
Q 3713 2572 3713 1747 
Q 3713 922 3314 415 
Q 2916 -91 2278 -91 
Q 1894 -91 1617 61 
Q 1341 213 1159 525 
L 1159 0 
L 581 0 
L 581 4863 
L 1159 4863 
L 1159 2969 
z
" transform="scale(0.015625)"/>
        <path id="DejaVuSans-20" transform="scale(0.015625)"/>
        <path id="DejaVuSans-53" d="M 3425 4513 
L 3425 3897 
Q 3066 4069 2747 4153 
Q 2428 4238 2131 4238 
Q 1616 4238 1336 4038 
Q 1056 3838 1056 3469 
Q 1056 3159 1242 3001 
Q 1428 2844 1947 2747 
L 2328 2669 
Q 3034 2534 3370 2195 
Q 3706 1856 3706 1288 
Q 3706 609 3251 259 
Q 2797 -91 1919 -91 
Q 1588 -91 1214 -16 
Q 841 59 441 206 
L 441 856 
Q 825 641 1194 531 
Q 1563 422 1919 422 
Q 2459 422 2753 634 
Q 3047 847 3047 1241 
Q 3047 1584 2836 1778 
Q 2625 1972 2144 2069 
L 1759 2144 
Q 1053 2284 737 2584 
Q 422 2884 422 3419 
Q 422 4038 858 4394 
Q 1294 4750 2059 4750 
Q 2388 4750 2728 4690 
Q 3069 4631 3425 4513 
z
" transform="scale(0.015625)"/>
        <path id="DejaVuSans-75" d="M 544 1381 
L 544 3500 
L 1119 3500 
L 1119 1403 
Q 1119 906 1312 657 
Q 1506 409 1894 409 
Q 2359 409 2629 706 
Q 2900 1003 2900 1516 
L 2900 3500 
L 3475 3500 
L 3475 0 
L 2900 0 
L 2900 538 
Q 2691 219 2414 64 
Q 2138 -91 1772 -91 
Q 1169 -91 856 284 
Q 544 659 544 1381 
z
M 1991 3584 
L 1991 3584 
z
" transform="scale(0.015625)"/>
        <path id="DejaVuSans-70" d="M 1159 525 
L 1159 -1331 
L 581 -1331 
L 581 3500 
L 1159 3500 
L 1159 2969 
Q 1341 3281 1617 3432 
Q 1894 3584 2278 3584 
Q 2916 3584 3314 3078 
Q 3713 2572 3713 1747 
Q 3713 922 3314 415 
Q 2916 -91 2278 -91 
Q 1894 -91 1617 61 
Q 1341 213 1159 525 
z
M 3116 1747 
Q 3116 2381 2855 2742 
Q 2594 3103 2138 3103 
Q 1681 3103 1420 2742 
Q 1159 2381 1159 1747 
Q 1159 1113 1420 752 
Q 1681 391 2138 391 
Q 2594 391 2855 752 
Q 3116 1113 3116 1747 
z
" transform="scale(0.015625)"/>
       </defs>
       <use xlink:href="#DejaVuSans-4d"/>
       <use xlink:href="#DejaVuSans-65" x="86.279297"/>
       <use xlink:href="#DejaVuSans-6d" x="147.802734"/>
       <use xlink:href="#DejaVuSans-62" x="245.214844"/>
       <use xlink:href="#DejaVuSans-72" x="308.691406"/>
       <use xlink:href="#DejaVuSans-6f" x="347.554688"/>
       <use xlink:href="#DejaVuSans-20" x="408.736328"/>
       <use xlink:href="#DejaVuSans-53" x="440.523438"/>
       <use xlink:href="#DejaVuSans-75" x="504"/>
       <use xlink:href="#DejaVuSans-70" x="567.378906"/>
       <use xlink:href="#DejaVuSans-65" x="630.855469"/>
       <use xlink:href="#DejaVuSans-72" x="692.378906"/>
       <use xlink:href="#DejaVuSans-69" x="733.492188"/>
       <use xlink:href="#DejaVuSans-6f" x="761.275391"/>
       <use xlink:href="#DejaVuSans-72" x="822.457031"/>
      </g>
     </g>
    </g>
    <g id="xtick_7">
     <g id="line2d_7">
      <g>
       <use xlink:href="#m043a46bb81" x="237.238251" y="206.542798" style="stroke: #000000; stroke-width: 0.8"/>
      </g>
     </g>
     <g id="text_7">
      <!-- Cirurgia -->
      <g transform="translate(235.211243 246.882871)rotate(-75)scale(0.0833 -0.0833)">
       <use xlink:href="#DejaVuSans-43"/>
       <use xlink:href="#DejaVuSans-69" x="69.824219"/>
       <use xlink:href="#DejaVuSans-72" x="97.607422"/>
       <use xlink:href="#DejaVuSans-75" x="138.720703"/>
       <use xlink:href="#DejaVuSans-72" x="202.099609"/>
       <use xlink:href="#DejaVuSans-67" x="241.462891"/>
       <use xlink:href="#DejaVuSans-69" x="304.939453"/>
       <use xlink:href="#DejaVuSans-61" x="332.722656"/>
      </g>
     </g>
    </g>
    <g id="xtick_8">
     <g id="line2d_8">
      <g>
       <use xlink:href="#m043a46bb81" x="262.157982" y="206.542798" style="stroke: #000000; stroke-width: 0.8"/>
      </g>
     </g>
     <g id="text_8">
      <!-- Exploração -->
      <g transform="translate(258.467479 259.84751)rotate(-75)scale(0.0833 -0.0833)">
       <defs>
        <path id="DejaVuSans-45" d="M 628 4666 
L 3578 4666 
L 3578 4134 
L 1259 4134 
L 1259 2753 
L 3481 2753 
L 3481 2222 
L 1259 2222 
L 1259 531 
L 3634 531 
L 3634 0 
L 628 0 
L 628 4666 
z
" transform="scale(0.015625)"/>
        <path id="DejaVuSans-78" d="M 3513 3500 
L 2247 1797 
L 3578 0 
L 2900 0 
L 1881 1375 
L 863 0 
L 184 0 
L 1544 1831 
L 300 3500 
L 978 3500 
L 1906 2253 
L 2834 3500 
L 3513 3500 
z
" transform="scale(0.015625)"/>
        <path id="DejaVuSans-e7" d="M 3122 3366 
L 3122 2828 
Q 2878 2963 2633 3030 
Q 2388 3097 2138 3097 
Q 1578 3097 1268 2742 
Q 959 2388 959 1747 
Q 959 1106 1268 751 
Q 1578 397 2138 397 
Q 2388 397 2633 464 
Q 2878 531 3122 666 
L 3122 134 
Q 2881 22 2623 -34 
Q 2366 -91 2075 -91 
Q 1284 -91 818 406 
Q 353 903 353 1747 
Q 353 2603 823 3093 
Q 1294 3584 2113 3584 
Q 2378 3584 2631 3529 
Q 2884 3475 3122 3366 
z
M 2311 0 
Q 2482 -194 2566 -358 
Q 2651 -522 2651 -672 
Q 2651 -950 2463 -1092 
Q 2276 -1234 1907 -1234 
Q 1764 -1234 1628 -1215 
Q 1492 -1197 1357 -1159 
L 1357 -750 
Q 1464 -803 1579 -826 
Q 1695 -850 1842 -850 
Q 2026 -850 2120 -775 
Q 2214 -700 2214 -556 
Q 2214 -463 2146 -327 
Q 2079 -191 1939 0 
L 2311 0 
z
" transform="scale(0.015625)"/>
        <path id="DejaVuSans-e3" d="M 2194 1759 
Q 1497 1759 1228 1600 
Q 959 1441 959 1056 
Q 959 750 1161 570 
Q 1363 391 1709 391 
Q 2188 391 2477 730 
Q 2766 1069 2766 1631 
L 2766 1759 
L 2194 1759 
z
M 3341 1997 
L 3341 0 
L 2766 0 
L 2766 531 
Q 2569 213 2275 61 
Q 1981 -91 1556 -91 
Q 1019 -91 701 211 
Q 384 513 384 1019 
Q 384 1609 779 1909 
Q 1175 2209 1959 2209 
L 2766 2209 
L 2766 2266 
Q 2766 2663 2505 2880 
Q 2244 3097 1772 3097 
Q 1472 3097 1187 3025 
Q 903 2953 641 2809 
L 641 3341 
Q 956 3463 1253 3523 
Q 1550 3584 1831 3584 
Q 2591 3584 2966 3190 
Q 3341 2797 3341 1997 
z
M 1844 4281 
L 1665 4453 
Q 1597 4516 1545 4545 
Q 1494 4575 1453 4575 
Q 1334 4575 1278 4461 
Q 1222 4347 1215 4091 
L 825 4091 
Q 831 4513 990 4742 
Q 1150 4972 1434 4972 
Q 1553 4972 1653 4928 
Q 1753 4884 1869 4781 
L 2047 4609 
Q 2115 4547 2167 4517 
Q 2219 4488 2259 4488 
Q 2378 4488 2434 4602 
Q 2490 4716 2497 4972 
L 2887 4972 
Q 2881 4550 2721 4320 
Q 2562 4091 2278 4091 
Q 2159 4091 2059 4134 
Q 1959 4178 1844 4281 
z
" transform="scale(0.015625)"/>
       </defs>
       <use xlink:href="#DejaVuSans-45"/>
       <use xlink:href="#DejaVuSans-78" x="63.183594"/>
       <use xlink:href="#DejaVuSans-70" x="122.363281"/>
       <use xlink:href="#DejaVuSans-6c" x="185.839844"/>
       <use xlink:href="#DejaVuSans-6f" x="213.623047"/>
       <use xlink:href="#DejaVuSans-72" x="274.804688"/>
       <use xlink:href="#DejaVuSans-61" x="315.917969"/>
       <use xlink:href="#DejaVuSans-e7" x="377.197266"/>
       <use xlink:href="#DejaVuSans-e3" x="432.177734"/>
       <use xlink:href="#DejaVuSans-6f" x="493.457031"/>
      </g>
     </g>
    </g>
    <g id="xtick_9">
     <g id="line2d_9">
      <g>
       <use xlink:href="#m043a46bb81" x="287.077713" y="206.542798" style="stroke: #000000; stroke-width: 0.8"/>
      </g>
     </g>
     <g id="text_9">
      <!-- Momento da cirurgia -->
      <g transform="translate(278.11221 298.672497)rotate(-75)scale(0.0833 -0.0833)">
       <use xlink:href="#DejaVuSans-4d"/>
       <use xlink:href="#DejaVuSans-6f" x="86.279297"/>
       <use xlink:href="#DejaVuSans-6d" x="147.460938"/>
       <use xlink:href="#DejaVuSans-65" x="244.873047"/>
       <use xlink:href="#DejaVuSans-6e" x="306.396484"/>
       <use xlink:href="#DejaVuSans-74" x="369.775391"/>
       <use xlink:href="#DejaVuSans-6f" x="408.984375"/>
       <use xlink:href="#DejaVuSans-20" x="470.166016"/>
       <use xlink:href="#DejaVuSans-64" x="501.953125"/>
       <use xlink:href="#DejaVuSans-61" x="565.429688"/>
       <use xlink:href="#DejaVuSans-20" x="626.708984"/>
       <use xlink:href="#DejaVuSans-63" x="658.496094"/>
       <use xlink:href="#DejaVuSans-69" x="713.476562"/>
       <use xlink:href="#DejaVuSans-72" x="741.259766"/>
       <use xlink:href="#DejaVuSans-75" x="782.373047"/>
       <use xlink:href="#DejaVuSans-72" x="845.751953"/>
       <use xlink:href="#DejaVuSans-67" x="885.115234"/>
       <use xlink:href="#DejaVuSans-69" x="948.591797"/>
       <use xlink:href="#DejaVuSans-61" x="976.375"/>
      </g>
     </g>
    </g>
    <g id="xtick_10">
     <g id="line2d_10">
      <g>
       <use xlink:href="#m043a46bb81" x="311.997444" y="206.542798" style="stroke: #000000; stroke-width: 0.8"/>
      </g>
     </g>
     <g id="text_10">
      <!-- Doador Acessório -->
      <g transform="translate(304.778271 285.637714)rotate(-75)scale(0.0833 -0.0833)">
       <defs>
        <path id="DejaVuSans-41" d="M 2188 4044 
L 1331 1722 
L 3047 1722 
L 2188 4044 
z
M 1831 4666 
L 2547 4666 
L 4325 0 
L 3669 0 
L 3244 1197 
L 1141 1197 
L 716 0 
L 50 0 
L 1831 4666 
z
" transform="scale(0.015625)"/>
       </defs>
       <use xlink:href="#DejaVuSans-44"/>
       <use xlink:href="#DejaVuSans-6f" x="77.001953"/>
       <use xlink:href="#DejaVuSans-61" x="138.183594"/>
       <use xlink:href="#DejaVuSans-64" x="199.462891"/>
       <use xlink:href="#DejaVuSans-6f" x="262.939453"/>
       <use xlink:href="#DejaVuSans-72" x="324.121094"/>
       <use xlink:href="#DejaVuSans-20" x="365.234375"/>
       <use xlink:href="#DejaVuSans-41" x="397.021484"/>
       <use xlink:href="#DejaVuSans-63" x="463.679688"/>
       <use xlink:href="#DejaVuSans-65" x="518.660156"/>
       <use xlink:href="#DejaVuSans-73" x="580.183594"/>
       <use xlink:href="#DejaVuSans-73" x="632.283203"/>
       <use xlink:href="#DejaVuSans-f3" x="684.382812"/>
       <use xlink:href="#DejaVuSans-72" x="745.564453"/>
       <use xlink:href="#DejaVuSans-69" x="786.677734"/>
       <use xlink:href="#DejaVuSans-6f" x="814.460938"/>
      </g>
     </g>
    </g>
    <g id="xtick_11">
     <g id="line2d_11">
      <g>
       <use xlink:href="#m043a46bb81" x="336.917175" y="206.542798" style="stroke: #000000; stroke-width: 0.8"/>
      </g>
     </g>
     <g id="text_11">
      <!-- Doador Ulnar -->
      <g transform="translate(331.982143 268.588651)rotate(-75)scale(0.0833 -0.0833)">
       <defs>
        <path id="DejaVuSans-55" d="M 556 4666 
L 1191 4666 
L 1191 1831 
Q 1191 1081 1462 751 
Q 1734 422 2344 422 
Q 2950 422 3222 751 
Q 3494 1081 3494 1831 
L 3494 4666 
L 4128 4666 
L 4128 1753 
Q 4128 841 3676 375 
Q 3225 -91 2344 -91 
Q 1459 -91 1007 375 
Q 556 841 556 1753 
L 556 4666 
z
" transform="scale(0.015625)"/>
       </defs>
       <use xlink:href="#DejaVuSans-44"/>
       <use xlink:href="#DejaVuSans-6f" x="77.001953"/>
       <use xlink:href="#DejaVuSans-61" x="138.183594"/>
       <use xlink:href="#DejaVuSans-64" x="199.462891"/>
       <use xlink:href="#DejaVuSans-6f" x="262.939453"/>
       <use xlink:href="#DejaVuSans-72" x="324.121094"/>
       <use xlink:href="#DejaVuSans-20" x="365.234375"/>
       <use xlink:href="#DejaVuSans-55" x="397.021484"/>
       <use xlink:href="#DejaVuSans-6c" x="470.214844"/>
       <use xlink:href="#DejaVuSans-6e" x="497.998047"/>
       <use xlink:href="#DejaVuSans-61" x="561.376953"/>
       <use xlink:href="#DejaVuSans-72" x="622.65625"/>
      </g>
     </g>
    </g>
    <g id="xtick_12">
     <g id="line2d_12">
      <g>
       <use xlink:href="#m043a46bb81" x="361.836906" y="206.542798" style="stroke: #000000; stroke-width: 0.8"/>
      </g>
     </g>
     <g id="text_12">
      <!-- Doador Frênico -->
      <g transform="translate(355.918216 275.930774)rotate(-75)scale(0.0833 -0.0833)">
       <defs>
        <path id="DejaVuSans-46" d="M 628 4666 
L 3309 4666 
L 3309 4134 
L 1259 4134 
L 1259 2759 
L 3109 2759 
L 3109 2228 
L 1259 2228 
L 1259 0 
L 628 0 
L 628 4666 
z
" transform="scale(0.015625)"/>
        <path id="DejaVuSans-ea" d="M 3597 1894 
L 3597 1613 
L 953 1613 
Q 991 1019 1311 708 
Q 1631 397 2203 397 
Q 2534 397 2845 478 
Q 3156 559 3463 722 
L 3463 178 
Q 3153 47 2828 -22 
Q 2503 -91 2169 -91 
Q 1331 -91 842 396 
Q 353 884 353 1716 
Q 353 2575 817 3079 
Q 1281 3584 2069 3584 
Q 2775 3584 3186 3129 
Q 3597 2675 3597 1894 
z
M 3022 2063 
Q 3016 2534 2758 2815 
Q 2500 3097 2075 3097 
Q 1594 3097 1305 2825 
Q 1016 2553 972 2059 
L 3022 2063 
z
M 1801 5119 
L 2263 5119 
L 3029 3944 
L 2595 3944 
L 2032 4709 
L 1470 3944 
L 1035 3944 
L 1801 5119 
z
" transform="scale(0.015625)"/>
       </defs>
       <use xlink:href="#DejaVuSans-44"/>
       <use xlink:href="#DejaVuSans-6f" x="77.001953"/>
       <use xlink:href="#DejaVuSans-61" x="138.183594"/>
       <use xlink:href="#DejaVuSans-64" x="199.462891"/>
       <use xlink:href="#DejaVuSans-6f" x="262.939453"/>
       <use xlink:href="#DejaVuSans-72" x="324.121094"/>
       <use xlink:href="#DejaVuSans-20" x="365.234375"/>
       <use xlink:href="#DejaVuSans-46" x="397.021484"/>
       <use xlink:href="#DejaVuSans-72" x="447.291016"/>
       <use xlink:href="#DejaVuSans-ea" x="486.154297"/>
       <use xlink:href="#DejaVuSans-6e" x="547.677734"/>
       <use xlink:href="#DejaVuSans-69" x="611.056641"/>
       <use xlink:href="#DejaVuSans-63" x="638.839844"/>
       <use xlink:href="#DejaVuSans-6f" x="693.820312"/>
      </g>
     </g>
    </g>
    <g id="xtick_13">
     <g id="line2d_13">
      <g>
       <use xlink:href="#m043a46bb81" x="386.756637" y="206.542798" style="stroke: #000000; stroke-width: 0.8"/>
      </g>
     </g>
     <g id="text_13">
      <!-- Receptor Supraescapular -->
      <g transform="translate(375.400205 316.518633)rotate(-75)scale(0.0833 -0.0833)">
       <defs>
        <path id="DejaVuSans-52" d="M 2841 2188 
Q 3044 2119 3236 1894 
Q 3428 1669 3622 1275 
L 4263 0 
L 3584 0 
L 2988 1197 
Q 2756 1666 2539 1819 
Q 2322 1972 1947 1972 
L 1259 1972 
L 1259 0 
L 628 0 
L 628 4666 
L 2053 4666 
Q 2853 4666 3247 4331 
Q 3641 3997 3641 3322 
Q 3641 2881 3436 2590 
Q 3231 2300 2841 2188 
z
M 1259 4147 
L 1259 2491 
L 2053 2491 
Q 2509 2491 2742 2702 
Q 2975 2913 2975 3322 
Q 2975 3731 2742 3939 
Q 2509 4147 2053 4147 
L 1259 4147 
z
" transform="scale(0.015625)"/>
       </defs>
       <use xlink:href="#DejaVuSans-52"/>
       <use xlink:href="#DejaVuSans-65" x="64.982422"/>
       <use xlink:href="#DejaVuSans-63" x="126.505859"/>
       <use xlink:href="#DejaVuSans-65" x="181.486328"/>
       <use xlink:href="#DejaVuSans-70" x="243.009766"/>
       <use xlink:href="#DejaVuSans-74" x="306.486328"/>
       <use xlink:href="#DejaVuSans-6f" x="345.695312"/>
       <use xlink:href="#DejaVuSans-72" x="406.876953"/>
       <use xlink:href="#DejaVuSans-20" x="447.990234"/>
       <use xlink:href="#DejaVuSans-53" x="479.777344"/>
       <use xlink:href="#DejaVuSans-75" x="543.253906"/>
       <use xlink:href="#DejaVuSans-70" x="606.632812"/>
       <use xlink:href="#DejaVuSans-72" x="670.109375"/>
       <use xlink:href="#DejaVuSans-61" x="711.222656"/>
       <use xlink:href="#DejaVuSans-65" x="772.501953"/>
       <use xlink:href="#DejaVuSans-73" x="834.025391"/>
       <use xlink:href="#DejaVuSans-63" x="886.125"/>
       <use xlink:href="#DejaVuSans-61" x="941.105469"/>
       <use xlink:href="#DejaVuSans-70" x="1002.384766"/>
       <use xlink:href="#DejaVuSans-75" x="1065.861328"/>
       <use xlink:href="#DejaVuSans-6c" x="1129.240234"/>
       <use xlink:href="#DejaVuSans-61" x="1157.023438"/>
       <use xlink:href="#DejaVuSans-72" x="1218.302734"/>
      </g>
     </g>
    </g>
    <g id="xtick_14">
     <g id="line2d_14">
      <g>
       <use xlink:href="#m043a46bb81" x="411.676368" y="206.542798" style="stroke: #000000; stroke-width: 0.8"/>
      </g>
     </g>
     <g id="text_14">
      <!-- Receptor Musculocutâneo -->
      <g transform="translate(400.110472 319.369483)rotate(-75)scale(0.0833 -0.0833)">
       <defs>
        <path id="DejaVuSans-e2" d="M 2194 1759 
Q 1497 1759 1228 1600 
Q 959 1441 959 1056 
Q 959 750 1161 570 
Q 1363 391 1709 391 
Q 2188 391 2477 730 
Q 2766 1069 2766 1631 
L 2766 1759 
L 2194 1759 
z
M 3341 1997 
L 3341 0 
L 2766 0 
L 2766 531 
Q 2569 213 2275 61 
Q 1981 -91 1556 -91 
Q 1019 -91 701 211 
Q 384 513 384 1019 
Q 384 1609 779 1909 
Q 1175 2209 1959 2209 
L 2766 2209 
L 2766 2266 
Q 2766 2663 2505 2880 
Q 2244 3097 1772 3097 
Q 1472 3097 1187 3025 
Q 903 2953 641 2809 
L 641 3341 
Q 956 3463 1253 3523 
Q 1550 3584 1831 3584 
Q 2591 3584 2966 3190 
Q 3341 2797 3341 1997 
z
M 1625 5119 
L 2087 5119 
L 2853 3944 
L 2419 3944 
L 1856 4709 
L 1294 3944 
L 859 3944 
L 1625 5119 
z
" transform="scale(0.015625)"/>
       </defs>
       <use xlink:href="#DejaVuSans-52"/>
       <use xlink:href="#DejaVuSans-65" x="64.982422"/>
       <use xlink:href="#DejaVuSans-63" x="126.505859"/>
       <use xlink:href="#DejaVuSans-65" x="181.486328"/>
       <use xlink:href="#DejaVuSans-70" x="243.009766"/>
       <use xlink:href="#DejaVuSans-74" x="306.486328"/>
       <use xlink:href="#DejaVuSans-6f" x="345.695312"/>
       <use xlink:href="#DejaVuSans-72" x="406.876953"/>
       <use xlink:href="#DejaVuSans-20" x="447.990234"/>
       <use xlink:href="#DejaVuSans-4d" x="479.777344"/>
       <use xlink:href="#DejaVuSans-75" x="566.056641"/>
       <use xlink:href="#DejaVuSans-73" x="629.435547"/>
       <use xlink:href="#DejaVuSans-63" x="681.535156"/>
       <use xlink:href="#DejaVuSans-75" x="736.515625"/>
       <use xlink:href="#DejaVuSans-6c" x="799.894531"/>
       <use xlink:href="#DejaVuSans-6f" x="827.677734"/>
       <use xlink:href="#DejaVuSans-63" x="888.859375"/>
       <use xlink:href="#DejaVuSans-75" x="943.839844"/>
       <use xlink:href="#DejaVuSans-74" x="1007.21875"/>
       <use xlink:href="#DejaVuSans-e2" x="1046.427734"/>
       <use xlink:href="#DejaVuSans-6e" x="1107.707031"/>
       <use xlink:href="#DejaVuSans-65" x="1171.085938"/>
       <use xlink:href="#DejaVuSans-6f" x="1232.609375"/>
      </g>
     </g>
    </g>
    <g id="xtick_15">
     <g id="line2d_15">
      <g>
       <use xlink:href="#m043a46bb81" x="436.596099" y="206.542798" style="stroke: #000000; stroke-width: 0.8"/>
      </g>
     </g>
     <g id="text_15">
      <!-- Receptor Axilar -->
      <g transform="translate(430.566074 276.761792)rotate(-75)scale(0.0833 -0.0833)">
       <use xlink:href="#DejaVuSans-52"/>
       <use xlink:href="#DejaVuSans-65" x="64.982422"/>
       <use xlink:href="#DejaVuSans-63" x="126.505859"/>
       <use xlink:href="#DejaVuSans-65" x="181.486328"/>
       <use xlink:href="#DejaVuSans-70" x="243.009766"/>
       <use xlink:href="#DejaVuSans-74" x="306.486328"/>
       <use xlink:href="#DejaVuSans-6f" x="345.695312"/>
       <use xlink:href="#DejaVuSans-72" x="406.876953"/>
       <use xlink:href="#DejaVuSans-20" x="447.990234"/>
       <use xlink:href="#DejaVuSans-41" x="479.777344"/>
       <use xlink:href="#DejaVuSans-78" x="548.185547"/>
       <use xlink:href="#DejaVuSans-69" x="607.365234"/>
       <use xlink:href="#DejaVuSans-6c" x="635.148438"/>
       <use xlink:href="#DejaVuSans-61" x="662.931641"/>
       <use xlink:href="#DejaVuSans-72" x="724.210938"/>
      </g>
     </g>
    </g>
    <g id="text_16">
     <!-- Atributo -->
     <g transform="translate(242.057982 331.416293)scale(0.1 -0.1)">
      <use xlink:href="#DejaVuSans-41"/>
      <use xlink:href="#DejaVuSans-74" x="66.658203"/>
      <use xlink:href="#DejaVuSans-72" x="105.867188"/>
      <use xlink:href="#DejaVuSans-69" x="146.980469"/>
      <use xlink:href="#DejaVuSans-62" x="174.763672"/>
      <use xlink:href="#DejaVuSans-75" x="238.240234"/>
      <use xlink:href="#DejaVuSans-74" x="301.619141"/>
      <use xlink:href="#DejaVuSans-6f" x="340.828125"/>
     </g>
    </g>
   </g>
   <g id="matplotlib.axis_2">
    <g id="ytick_1">
     <g id="line2d_16">
      <defs>
       <path id="m261cfd66cf" d="M 0 0 
L -3.5 0 
" style="stroke: #000000; stroke-width: 0.8"/>
      </defs>
      <g>
       <use xlink:href="#m261cfd66cf" x="75.26" y="167.15397" style="stroke: #000000; stroke-width: 0.8"/>
      </g>
     </g>
     <g id="text_17">
      <!-- −0.005 -->
      <g transform="translate(31.252188 170.953189)scale(0.1 -0.1)">
       <defs>
        <path id="DejaVuSans-2212" d="M 678 2272 
L 4684 2272 
L 4684 1741 
L 678 1741 
L 678 2272 
z
" transform="scale(0.015625)"/>
        <path id="DejaVuSans-30" d="M 2034 4250 
Q 1547 4250 1301 3770 
Q 1056 3291 1056 2328 
Q 1056 1369 1301 889 
Q 1547 409 2034 409 
Q 2525 409 2770 889 
Q 3016 1369 3016 2328 
Q 3016 3291 2770 3770 
Q 2525 4250 2034 4250 
z
M 2034 4750 
Q 2819 4750 3233 4129 
Q 3647 3509 3647 2328 
Q 3647 1150 3233 529 
Q 2819 -91 2034 -91 
Q 1250 -91 836 529 
Q 422 1150 422 2328 
Q 422 3509 836 4129 
Q 1250 4750 2034 4750 
z
" transform="scale(0.015625)"/>
        <path id="DejaVuSans-2e" d="M 684 794 
L 1344 794 
L 1344 0 
L 684 0 
L 684 794 
z
" transform="scale(0.015625)"/>
        <path id="DejaVuSans-35" d="M 691 4666 
L 3169 4666 
L 3169 4134 
L 1269 4134 
L 1269 2991 
Q 1406 3038 1543 3061 
Q 1681 3084 1819 3084 
Q 2600 3084 3056 2656 
Q 3513 2228 3513 1497 
Q 3513 744 3044 326 
Q 2575 -91 1722 -91 
Q 1428 -91 1123 -41 
Q 819 9 494 109 
L 494 744 
Q 775 591 1075 516 
Q 1375 441 1709 441 
Q 2250 441 2565 725 
Q 2881 1009 2881 1497 
Q 2881 1984 2565 2268 
Q 2250 2553 1709 2553 
Q 1456 2553 1204 2497 
Q 953 2441 691 2322 
L 691 4666 
z
" transform="scale(0.015625)"/>
       </defs>
       <use xlink:href="#DejaVuSans-2212"/>
       <use xlink:href="#DejaVuSans-30" x="83.789062"/>
       <use xlink:href="#DejaVuSans-2e" x="147.412109"/>
       <use xlink:href="#DejaVuSans-30" x="179.199219"/>
       <use xlink:href="#DejaVuSans-30" x="242.822266"/>
       <use xlink:href="#DejaVuSans-35" x="306.445312"/>
      </g>
     </g>
    </g>
    <g id="ytick_2">
     <g id="line2d_17">
      <g>
       <use xlink:href="#m261cfd66cf" x="75.26" y="127.537037" style="stroke: #000000; stroke-width: 0.8"/>
      </g>
     </g>
     <g id="text_18">
      <!-- 0.000 -->
      <g transform="translate(39.631875 131.336256)scale(0.1 -0.1)">
       <use xlink:href="#DejaVuSans-30"/>
       <use xlink:href="#DejaVuSans-2e" x="63.623047"/>
       <use xlink:href="#DejaVuSans-30" x="95.410156"/>
       <use xlink:href="#DejaVuSans-30" x="159.033203"/>
       <use xlink:href="#DejaVuSans-30" x="222.65625"/>
      </g>
     </g>
    </g>
    <g id="ytick_3">
     <g id="line2d_18">
      <g>
       <use xlink:href="#m261cfd66cf" x="75.26" y="87.920104" style="stroke: #000000; stroke-width: 0.8"/>
      </g>
     </g>
     <g id="text_19">
      <!-- 0.005 -->
      <g transform="translate(39.631875 91.719323)scale(0.1 -0.1)">
       <use xlink:href="#DejaVuSans-30"/>
       <use xlink:href="#DejaVuSans-2e" x="63.623047"/>
       <use xlink:href="#DejaVuSans-30" x="95.410156"/>
       <use xlink:href="#DejaVuSans-30" x="159.033203"/>
       <use xlink:href="#DejaVuSans-35" x="222.65625"/>
      </g>
     </g>
    </g>
    <g id="ytick_4">
     <g id="line2d_19">
      <g>
       <use xlink:href="#m261cfd66cf" x="75.26" y="48.303172" style="stroke: #000000; stroke-width: 0.8"/>
      </g>
     </g>
     <g id="text_20">
      <!-- 0.010 -->
      <g transform="translate(39.631875 52.10239)scale(0.1 -0.1)">
       <defs>
        <path id="DejaVuSans-31" d="M 794 531 
L 1825 531 
L 1825 4091 
L 703 3866 
L 703 4441 
L 1819 4666 
L 2450 4666 
L 2450 531 
L 3481 531 
L 3481 0 
L 794 0 
L 794 531 
z
" transform="scale(0.015625)"/>
       </defs>
       <use xlink:href="#DejaVuSans-30"/>
       <use xlink:href="#DejaVuSans-2e" x="63.623047"/>
       <use xlink:href="#DejaVuSans-30" x="95.410156"/>
       <use xlink:href="#DejaVuSans-31" x="159.033203"/>
       <use xlink:href="#DejaVuSans-30" x="222.65625"/>
      </g>
     </g>
    </g>
    <g id="text_21">
     <!-- Importância -->
     <g transform="translate(25.1725 154.445086)rotate(-90)scale(0.1 -0.1)">
      <use xlink:href="#DejaVuSans-49"/>
      <use xlink:href="#DejaVuSans-6d" x="29.492188"/>
      <use xlink:href="#DejaVuSans-70" x="126.904297"/>
      <use xlink:href="#DejaVuSans-6f" x="190.380859"/>
      <use xlink:href="#DejaVuSans-72" x="251.5625"/>
      <use xlink:href="#DejaVuSans-74" x="292.675781"/>
      <use xlink:href="#DejaVuSans-e2" x="331.884766"/>
      <use xlink:href="#DejaVuSans-6e" x="393.164062"/>
      <use xlink:href="#DejaVuSans-63" x="456.542969"/>
      <use xlink:href="#DejaVuSans-69" x="511.523438"/>
      <use xlink:href="#DejaVuSans-61" x="539.306641"/>
     </g>
    </g>
   </g>
   <g id="line2d_20">
    <path d="M 81.489933 190.907001 
L 93.949798 190.907001 
L 93.949798 183.411212 
L 81.489933 183.411212 
L 81.489933 190.907001 
" clip-path="url(#p501e68f384)" style="fill: none; stroke: #000000; stroke-linecap: square"/>
   </g>
   <g id="line2d_21">
    <path d="M 87.719865 190.907001 
L 87.719865 199.076671 
" clip-path="url(#p501e68f384)" style="fill: none; stroke: #000000; stroke-linecap: square"/>
   </g>
   <g id="line2d_22">
    <path d="M 87.719865 183.411212 
L 87.719865 176.986001 
" clip-path="url(#p501e68f384)" style="fill: none; stroke: #000000; stroke-linecap: square"/>
   </g>
   <g id="line2d_23">
    <path d="M 84.604899 199.076671 
L 90.834832 199.076671 
" clip-path="url(#p501e68f384)" style="fill: none; stroke: #000000; stroke-linecap: square"/>
   </g>
   <g id="line2d_24">
    <path d="M 84.604899 176.986001 
L 90.834832 176.986001 
" clip-path="url(#p501e68f384)" style="fill: none; stroke: #000000; stroke-linecap: square"/>
   </g>
   <g id="line2d_25">
    <defs>
     <path id="mb965c1b6a3" d="M 0 3 
C 0.795609 3 1.55874 2.683901 2.12132 2.12132 
C 2.683901 1.55874 3 0.795609 3 0 
C 3 -0.795609 2.683901 -1.55874 2.12132 -2.12132 
C 1.55874 -2.683901 0.795609 -3 0 -3 
C -0.795609 -3 -1.55874 -2.683901 -2.12132 -2.12132 
C -2.683901 -1.55874 -3 -0.795609 -3 0 
C -3 0.795609 -2.683901 1.55874 -2.12132 2.12132 
C -1.55874 2.683901 -0.795609 3 0 3 
z
" style="stroke: #000000"/>
    </defs>
    <g clip-path="url(#p501e68f384)">
     <use xlink:href="#mb965c1b6a3" x="87.719865" y="169.932726" style="fill-opacity: 0; stroke: #000000"/>
    </g>
   </g>
   <g id="line2d_26">
    <path d="M 106.409664 75.386549 
L 118.869529 75.386549 
L 118.869529 69.406885 
L 106.409664 69.406885 
L 106.409664 75.386549 
" clip-path="url(#p501e68f384)" style="fill: none; stroke: #000000; stroke-linecap: square"/>
   </g>
   <g id="line2d_27">
    <path d="M 112.639596 75.386549 
L 112.639596 81.015443 
" clip-path="url(#p501e68f384)" style="fill: none; stroke: #000000; stroke-linecap: square"/>
   </g>
   <g id="line2d_28">
    <path d="M 112.639596 69.406885 
L 112.639596 61.892411 
" clip-path="url(#p501e68f384)" style="fill: none; stroke: #000000; stroke-linecap: square"/>
   </g>
   <g id="line2d_29">
    <path d="M 109.52463 81.015443 
L 115.754563 81.015443 
" clip-path="url(#p501e68f384)" style="fill: none; stroke: #000000; stroke-linecap: square"/>
   </g>
   <g id="line2d_30">
    <path d="M 109.52463 61.892411 
L 115.754563 61.892411 
" clip-path="url(#p501e68f384)" style="fill: none; stroke: #000000; stroke-linecap: square"/>
   </g>
   <g id="line2d_31">
    <g clip-path="url(#p501e68f384)">
     <use xlink:href="#mb965c1b6a3" x="112.639596" y="57.77226" style="fill-opacity: 0; stroke: #000000"/>
    </g>
   </g>
   <g id="line2d_32">
    <path d="M 131.329395 167.448557 
L 143.78926 167.448557 
L 143.78926 158.719832 
L 131.329395 158.719832 
L 131.329395 167.448557 
" clip-path="url(#p501e68f384)" style="fill: none; stroke: #000000; stroke-linecap: square"/>
   </g>
   <g id="line2d_33">
    <path d="M 137.559327 167.448557 
L 137.559327 177.690755 
" clip-path="url(#p501e68f384)" style="fill: none; stroke: #000000; stroke-linecap: square"/>
   </g>
   <g id="line2d_34">
    <path d="M 137.559327 158.719832 
L 137.559327 147.979525 
" clip-path="url(#p501e68f384)" style="fill: none; stroke: #000000; stroke-linecap: square"/>
   </g>
   <g id="line2d_35">
    <path d="M 134.444361 177.690755 
L 140.674294 177.690755 
" clip-path="url(#p501e68f384)" style="fill: none; stroke: #000000; stroke-linecap: square"/>
   </g>
   <g id="line2d_36">
    <path d="M 134.444361 147.979525 
L 140.674294 147.979525 
" clip-path="url(#p501e68f384)" style="fill: none; stroke: #000000; stroke-linecap: square"/>
   </g>
   <g id="line2d_37"/>
   <g id="line2d_38">
    <path d="M 156.249126 127.632338 
L 168.708991 127.632338 
L 168.708991 124.549571 
L 156.249126 124.549571 
L 156.249126 127.632338 
" clip-path="url(#p501e68f384)" style="fill: none; stroke: #000000; stroke-linecap: square"/>
   </g>
   <g id="line2d_39">
    <path d="M 162.479058 127.632338 
L 162.479058 131.294376 
" clip-path="url(#p501e68f384)" style="fill: none; stroke: #000000; stroke-linecap: square"/>
   </g>
   <g id="line2d_40">
    <path d="M 162.479058 124.549571 
L 162.479058 122.504415 
" clip-path="url(#p501e68f384)" style="fill: none; stroke: #000000; stroke-linecap: square"/>
   </g>
   <g id="line2d_41">
    <path d="M 159.364092 131.294376 
L 165.594025 131.294376 
" clip-path="url(#p501e68f384)" style="fill: none; stroke: #000000; stroke-linecap: square"/>
   </g>
   <g id="line2d_42">
    <path d="M 159.364092 122.504415 
L 165.594025 122.504415 
" clip-path="url(#p501e68f384)" style="fill: none; stroke: #000000; stroke-linecap: square"/>
   </g>
   <g id="line2d_43">
    <g clip-path="url(#p501e68f384)">
     <use xlink:href="#mb965c1b6a3" x="162.479058" y="118.579109" style="fill-opacity: 0; stroke: #000000"/>
     <use xlink:href="#mb965c1b6a3" x="162.479058" y="119.526709" style="fill-opacity: 0; stroke: #000000"/>
    </g>
   </g>
   <g id="line2d_44">
    <path d="M 181.168857 144.444734 
L 193.628722 144.444734 
L 193.628722 139.108724 
L 181.168857 139.108724 
L 181.168857 144.444734 
" clip-path="url(#p501e68f384)" style="fill: none; stroke: #000000; stroke-linecap: square"/>
   </g>
   <g id="line2d_45">
    <path d="M 187.398789 144.444734 
L 187.398789 149.0949 
" clip-path="url(#p501e68f384)" style="fill: none; stroke: #000000; stroke-linecap: square"/>
   </g>
   <g id="line2d_46">
    <path d="M 187.398789 139.108724 
L 187.398789 134.503107 
" clip-path="url(#p501e68f384)" style="fill: none; stroke: #000000; stroke-linecap: square"/>
   </g>
   <g id="line2d_47">
    <path d="M 184.283823 149.0949 
L 190.513756 149.0949 
" clip-path="url(#p501e68f384)" style="fill: none; stroke: #000000; stroke-linecap: square"/>
   </g>
   <g id="line2d_48">
    <path d="M 184.283823 134.503107 
L 190.513756 134.503107 
" clip-path="url(#p501e68f384)" style="fill: none; stroke: #000000; stroke-linecap: square"/>
   </g>
   <g id="line2d_49"/>
   <g id="line2d_50">
    <path d="M 206.088588 136.955563 
L 218.548453 136.955563 
L 218.548453 130.816195 
L 206.088588 130.816195 
L 206.088588 136.955563 
" clip-path="url(#p501e68f384)" style="fill: none; stroke: #000000; stroke-linecap: square"/>
   </g>
   <g id="line2d_51">
    <path d="M 212.31852 136.955563 
L 212.31852 141.94857 
" clip-path="url(#p501e68f384)" style="fill: none; stroke: #000000; stroke-linecap: square"/>
   </g>
   <g id="line2d_52">
    <path d="M 212.31852 130.816195 
L 212.31852 128.148888 
" clip-path="url(#p501e68f384)" style="fill: none; stroke: #000000; stroke-linecap: square"/>
   </g>
   <g id="line2d_53">
    <path d="M 209.203554 141.94857 
L 215.433487 141.94857 
" clip-path="url(#p501e68f384)" style="fill: none; stroke: #000000; stroke-linecap: square"/>
   </g>
   <g id="line2d_54">
    <path d="M 209.203554 128.148888 
L 215.433487 128.148888 
" clip-path="url(#p501e68f384)" style="fill: none; stroke: #000000; stroke-linecap: square"/>
   </g>
   <g id="line2d_55"/>
   <g id="line2d_56">
    <path d="M 231.008318 122.439091 
L 243.468184 122.439091 
L 243.468184 120.088486 
L 231.008318 120.088486 
L 231.008318 122.439091 
" clip-path="url(#p501e68f384)" style="fill: none; stroke: #000000; stroke-linecap: square"/>
   </g>
   <g id="line2d_57">
    <path d="M 237.238251 122.439091 
L 237.238251 124.66736 
" clip-path="url(#p501e68f384)" style="fill: none; stroke: #000000; stroke-linecap: square"/>
   </g>
   <g id="line2d_58">
    <path d="M 237.238251 120.088486 
L 237.238251 117.645012 
" clip-path="url(#p501e68f384)" style="fill: none; stroke: #000000; stroke-linecap: square"/>
   </g>
   <g id="line2d_59">
    <path d="M 234.123285 124.66736 
L 240.353218 124.66736 
" clip-path="url(#p501e68f384)" style="fill: none; stroke: #000000; stroke-linecap: square"/>
   </g>
   <g id="line2d_60">
    <path d="M 234.123285 117.645012 
L 240.353218 117.645012 
" clip-path="url(#p501e68f384)" style="fill: none; stroke: #000000; stroke-linecap: square"/>
   </g>
   <g id="line2d_61"/>
   <g id="line2d_62">
    <path d="M 255.928049 160.144757 
L 268.387915 160.144757 
L 268.387915 156.249472 
L 255.928049 156.249472 
L 255.928049 160.144757 
" clip-path="url(#p501e68f384)" style="fill: none; stroke: #000000; stroke-linecap: square"/>
   </g>
   <g id="line2d_63">
    <path d="M 262.157982 160.144757 
L 262.157982 165.330422 
" clip-path="url(#p501e68f384)" style="fill: none; stroke: #000000; stroke-linecap: square"/>
   </g>
   <g id="line2d_64">
    <path d="M 262.157982 156.249472 
L 262.157982 151.220077 
" clip-path="url(#p501e68f384)" style="fill: none; stroke: #000000; stroke-linecap: square"/>
   </g>
   <g id="line2d_65">
    <path d="M 259.043016 165.330422 
L 265.272949 165.330422 
" clip-path="url(#p501e68f384)" style="fill: none; stroke: #000000; stroke-linecap: square"/>
   </g>
   <g id="line2d_66">
    <path d="M 259.043016 151.220077 
L 265.272949 151.220077 
" clip-path="url(#p501e68f384)" style="fill: none; stroke: #000000; stroke-linecap: square"/>
   </g>
   <g id="line2d_67">
    <g clip-path="url(#p501e68f384)">
     <use xlink:href="#mb965c1b6a3" x="262.157982" y="166.404798" style="fill-opacity: 0; stroke: #000000"/>
     <use xlink:href="#mb965c1b6a3" x="262.157982" y="167.340653" style="fill-opacity: 0; stroke: #000000"/>
    </g>
   </g>
   <g id="line2d_68">
    <path d="M 280.84778 163.838039 
L 293.307646 163.838039 
L 293.307646 148.580853 
L 280.84778 148.580853 
L 280.84778 163.838039 
" clip-path="url(#p501e68f384)" style="fill: none; stroke: #000000; stroke-linecap: square"/>
   </g>
   <g id="line2d_69">
    <path d="M 287.077713 163.838039 
L 287.077713 174.726028 
" clip-path="url(#p501e68f384)" style="fill: none; stroke: #000000; stroke-linecap: square"/>
   </g>
   <g id="line2d_70">
    <path d="M 287.077713 148.580853 
L 287.077713 139.170145 
" clip-path="url(#p501e68f384)" style="fill: none; stroke: #000000; stroke-linecap: square"/>
   </g>
   <g id="line2d_71">
    <path d="M 283.962747 174.726028 
L 290.19268 174.726028 
" clip-path="url(#p501e68f384)" style="fill: none; stroke: #000000; stroke-linecap: square"/>
   </g>
   <g id="line2d_72">
    <path d="M 283.962747 139.170145 
L 290.19268 139.170145 
" clip-path="url(#p501e68f384)" style="fill: none; stroke: #000000; stroke-linecap: square"/>
   </g>
   <g id="line2d_73"/>
   <g id="line2d_74">
    <path d="M 305.767511 80.548664 
L 318.227377 80.548664 
L 318.227377 73.564477 
L 305.767511 73.564477 
L 305.767511 80.548664 
" clip-path="url(#p501e68f384)" style="fill: none; stroke: #000000; stroke-linecap: square"/>
   </g>
   <g id="line2d_75">
    <path d="M 311.997444 80.548664 
L 311.997444 89.117804 
" clip-path="url(#p501e68f384)" style="fill: none; stroke: #000000; stroke-linecap: square"/>
   </g>
   <g id="line2d_76">
    <path d="M 311.997444 73.564477 
L 311.997444 67.410102 
" clip-path="url(#p501e68f384)" style="fill: none; stroke: #000000; stroke-linecap: square"/>
   </g>
   <g id="line2d_77">
    <path d="M 308.882478 89.117804 
L 315.11241 89.117804 
" clip-path="url(#p501e68f384)" style="fill: none; stroke: #000000; stroke-linecap: square"/>
   </g>
   <g id="line2d_78">
    <path d="M 308.882478 67.410102 
L 315.11241 67.410102 
" clip-path="url(#p501e68f384)" style="fill: none; stroke: #000000; stroke-linecap: square"/>
   </g>
   <g id="line2d_79"/>
   <g id="line2d_80">
    <path d="M 330.687242 62.984343 
L 343.147108 62.984343 
L 343.147108 54.766822 
L 330.687242 54.766822 
L 330.687242 62.984343 
" clip-path="url(#p501e68f384)" style="fill: none; stroke: #000000; stroke-linecap: square"/>
   </g>
   <g id="line2d_81">
    <path d="M 336.917175 62.984343 
L 336.917175 67.938984 
" clip-path="url(#p501e68f384)" style="fill: none; stroke: #000000; stroke-linecap: square"/>
   </g>
   <g id="line2d_82">
    <path d="M 336.917175 54.766822 
L 336.917175 49.754127 
" clip-path="url(#p501e68f384)" style="fill: none; stroke: #000000; stroke-linecap: square"/>
   </g>
   <g id="line2d_83">
    <path d="M 333.802209 67.938984 
L 340.032141 67.938984 
" clip-path="url(#p501e68f384)" style="fill: none; stroke: #000000; stroke-linecap: square"/>
   </g>
   <g id="line2d_84">
    <path d="M 333.802209 49.754127 
L 340.032141 49.754127 
" clip-path="url(#p501e68f384)" style="fill: none; stroke: #000000; stroke-linecap: square"/>
   </g>
   <g id="line2d_85"/>
   <g id="line2d_86">
    <path d="M 355.606973 134.026757 
L 368.066839 134.026757 
L 368.066839 128.449128 
L 355.606973 128.449128 
L 355.606973 134.026757 
" clip-path="url(#p501e68f384)" style="fill: none; stroke: #000000; stroke-linecap: square"/>
   </g>
   <g id="line2d_87">
    <path d="M 361.836906 134.026757 
L 361.836906 138.222592 
" clip-path="url(#p501e68f384)" style="fill: none; stroke: #000000; stroke-linecap: square"/>
   </g>
   <g id="line2d_88">
    <path d="M 361.836906 128.449128 
L 361.836906 124.110139 
" clip-path="url(#p501e68f384)" style="fill: none; stroke: #000000; stroke-linecap: square"/>
   </g>
   <g id="line2d_89">
    <path d="M 358.72194 138.222592 
L 364.951872 138.222592 
" clip-path="url(#p501e68f384)" style="fill: none; stroke: #000000; stroke-linecap: square"/>
   </g>
   <g id="line2d_90">
    <path d="M 358.72194 124.110139 
L 364.951872 124.110139 
" clip-path="url(#p501e68f384)" style="fill: none; stroke: #000000; stroke-linecap: square"/>
   </g>
   <g id="line2d_91"/>
   <g id="line2d_92">
    <path d="M 380.526704 91.591746 
L 392.98657 91.591746 
L 392.98657 87.6216 
L 380.526704 87.6216 
L 380.526704 91.591746 
" clip-path="url(#p501e68f384)" style="fill: none; stroke: #000000; stroke-linecap: square"/>
   </g>
   <g id="line2d_93">
    <path d="M 386.756637 91.591746 
L 386.756637 97.515758 
" clip-path="url(#p501e68f384)" style="fill: none; stroke: #000000; stroke-linecap: square"/>
   </g>
   <g id="line2d_94">
    <path d="M 386.756637 87.6216 
L 386.756637 82.033574 
" clip-path="url(#p501e68f384)" style="fill: none; stroke: #000000; stroke-linecap: square"/>
   </g>
   <g id="line2d_95">
    <path d="M 383.641671 97.515758 
L 389.871603 97.515758 
" clip-path="url(#p501e68f384)" style="fill: none; stroke: #000000; stroke-linecap: square"/>
   </g>
   <g id="line2d_96">
    <path d="M 383.641671 82.033574 
L 389.871603 82.033574 
" clip-path="url(#p501e68f384)" style="fill: none; stroke: #000000; stroke-linecap: square"/>
   </g>
   <g id="line2d_97">
    <g clip-path="url(#p501e68f384)">
     <use xlink:href="#mb965c1b6a3" x="386.756637" y="100.57659" style="fill-opacity: 0; stroke: #000000"/>
     <use xlink:href="#mb965c1b6a3" x="386.756637" y="97.618123" style="fill-opacity: 0; stroke: #000000"/>
     <use xlink:href="#mb965c1b6a3" x="386.756637" y="99.09675" style="fill-opacity: 0; stroke: #000000"/>
     <use xlink:href="#mb965c1b6a3" x="386.756637" y="98.416106" style="fill-opacity: 0; stroke: #000000"/>
    </g>
   </g>
   <g id="line2d_98">
    <path d="M 405.446435 102.838881 
L 417.906301 102.838881 
L 417.906301 98.770189 
L 405.446435 98.770189 
L 405.446435 102.838881 
" clip-path="url(#p501e68f384)" style="fill: none; stroke: #000000; stroke-linecap: square"/>
   </g>
   <g id="line2d_99">
    <path d="M 411.676368 102.838881 
L 411.676368 108.35231 
" clip-path="url(#p501e68f384)" style="fill: none; stroke: #000000; stroke-linecap: square"/>
   </g>
   <g id="line2d_100">
    <path d="M 411.676368 98.770189 
L 411.676368 97.410025 
" clip-path="url(#p501e68f384)" style="fill: none; stroke: #000000; stroke-linecap: square"/>
   </g>
   <g id="line2d_101">
    <path d="M 408.561402 108.35231 
L 414.791334 108.35231 
" clip-path="url(#p501e68f384)" style="fill: none; stroke: #000000; stroke-linecap: square"/>
   </g>
   <g id="line2d_102">
    <path d="M 408.561402 97.410025 
L 414.791334 97.410025 
" clip-path="url(#p501e68f384)" style="fill: none; stroke: #000000; stroke-linecap: square"/>
   </g>
   <g id="line2d_103">
    <g clip-path="url(#p501e68f384)">
     <use xlink:href="#mb965c1b6a3" x="411.676368" y="92.015018" style="fill-opacity: 0; stroke: #000000"/>
     <use xlink:href="#mb965c1b6a3" x="411.676368" y="90.818536" style="fill-opacity: 0; stroke: #000000"/>
     <use xlink:href="#mb965c1b6a3" x="411.676368" y="88.580485" style="fill-opacity: 0; stroke: #000000"/>
    </g>
   </g>
   <g id="line2d_104">
    <path d="M 430.366166 105.798909 
L 442.826032 105.798909 
L 442.826032 93.289908 
L 430.366166 93.289908 
L 430.366166 105.798909 
" clip-path="url(#p501e68f384)" style="fill: none; stroke: #000000; stroke-linecap: square"/>
   </g>
   <g id="line2d_105">
    <path d="M 436.596099 105.798909 
L 436.596099 113.83925 
" clip-path="url(#p501e68f384)" style="fill: none; stroke: #000000; stroke-linecap: square"/>
   </g>
   <g id="line2d_106">
    <path d="M 436.596099 93.289908 
L 436.596099 87.916133 
" clip-path="url(#p501e68f384)" style="fill: none; stroke: #000000; stroke-linecap: square"/>
   </g>
   <g id="line2d_107">
    <path d="M 433.481133 113.83925 
L 439.711065 113.83925 
" clip-path="url(#p501e68f384)" style="fill: none; stroke: #000000; stroke-linecap: square"/>
   </g>
   <g id="line2d_108">
    <path d="M 433.481133 87.916133 
L 439.711065 87.916133 
" clip-path="url(#p501e68f384)" style="fill: none; stroke: #000000; stroke-linecap: square"/>
   </g>
   <g id="line2d_109"/>
   <g id="line2d_110">
    <path d="M 81.489933 186.022074 
L 93.949798 186.022074 
" clip-path="url(#p501e68f384)" style="fill: none; stroke: #ff7f0e; stroke-linecap: square"/>
   </g>
   <g id="line2d_111">
    <path d="M 106.409664 73.080824 
L 118.869529 73.080824 
" clip-path="url(#p501e68f384)" style="fill: none; stroke: #ff7f0e; stroke-linecap: square"/>
   </g>
   <g id="line2d_112">
    <path d="M 131.329395 164.299014 
L 143.78926 164.299014 
" clip-path="url(#p501e68f384)" style="fill: none; stroke: #ff7f0e; stroke-linecap: square"/>
   </g>
   <g id="line2d_113">
    <path d="M 156.249126 126.230999 
L 168.708991 126.230999 
" clip-path="url(#p501e68f384)" style="fill: none; stroke: #ff7f0e; stroke-linecap: square"/>
   </g>
   <g id="line2d_114">
    <path d="M 181.168857 141.784709 
L 193.628722 141.784709 
" clip-path="url(#p501e68f384)" style="fill: none; stroke: #ff7f0e; stroke-linecap: square"/>
   </g>
   <g id="line2d_115">
    <path d="M 206.088588 133.18159 
L 218.548453 133.18159 
" clip-path="url(#p501e68f384)" style="fill: none; stroke: #ff7f0e; stroke-linecap: square"/>
   </g>
   <g id="line2d_116">
    <path d="M 231.008318 121.55612 
L 243.468184 121.55612 
" clip-path="url(#p501e68f384)" style="fill: none; stroke: #ff7f0e; stroke-linecap: square"/>
   </g>
   <g id="line2d_117">
    <path d="M 255.928049 157.431793 
L 268.387915 157.431793 
" clip-path="url(#p501e68f384)" style="fill: none; stroke: #ff7f0e; stroke-linecap: square"/>
   </g>
   <g id="line2d_118">
    <path d="M 280.84778 152.273707 
L 293.307646 152.273707 
" clip-path="url(#p501e68f384)" style="fill: none; stroke: #ff7f0e; stroke-linecap: square"/>
   </g>
   <g id="line2d_119">
    <path d="M 305.767511 77.296972 
L 318.227377 77.296972 
" clip-path="url(#p501e68f384)" style="fill: none; stroke: #ff7f0e; stroke-linecap: square"/>
   </g>
   <g id="line2d_120">
    <path d="M 330.687242 60.320804 
L 343.147108 60.320804 
" clip-path="url(#p501e68f384)" style="fill: none; stroke: #ff7f0e; stroke-linecap: square"/>
   </g>
   <g id="line2d_121">
    <path d="M 355.606973 130.482839 
L 368.066839 130.482839 
" clip-path="url(#p501e68f384)" style="fill: none; stroke: #ff7f0e; stroke-linecap: square"/>
   </g>
   <g id="line2d_122">
    <path d="M 380.526704 89.234519 
L 392.98657 89.234519 
" clip-path="url(#p501e68f384)" style="fill: none; stroke: #ff7f0e; stroke-linecap: square"/>
   </g>
   <g id="line2d_123">
    <path d="M 405.446435 101.019975 
L 417.906301 101.019975 
" clip-path="url(#p501e68f384)" style="fill: none; stroke: #ff7f0e; stroke-linecap: square"/>
   </g>
   <g id="line2d_124">
    <path d="M 430.366166 100.45177 
L 442.826032 100.45177 
" clip-path="url(#p501e68f384)" style="fill: none; stroke: #ff7f0e; stroke-linecap: square"/>
   </g>
   <g id="patch_3">
    <path d="M 75.26 206.542798 
L 75.26 42.288 
" style="fill: none; stroke: #000000; stroke-width: 0.8; stroke-linejoin: miter; stroke-linecap: square"/>
   </g>
   <g id="patch_4">
    <path d="M 449.055964 206.542798 
L 449.055964 42.288 
" style="fill: none; stroke: #000000; stroke-width: 0.8; stroke-linejoin: miter; stroke-linecap: square"/>
   </g>
   <g id="patch_5">
    <path d="M 75.26 206.542798 
L 449.055964 206.542798 
" style="fill: none; stroke: #000000; stroke-width: 0.8; stroke-linejoin: miter; stroke-linecap: square"/>
   </g>
   <g id="patch_6">
    <path d="M 75.26 42.288 
L 449.055964 42.288 
" style="fill: none; stroke: #000000; stroke-width: 0.8; stroke-linejoin: miter; stroke-linecap: square"/>
   </g>
   <g id="text_22">
    <!-- Abdução do Ombro - Todos Atributos -->
    <g transform="translate(152.259545 22.274625)scale(0.12 -0.12)">
     <defs>
      <path id="DejaVuSans-4f" d="M 2522 4238 
Q 1834 4238 1429 3725 
Q 1025 3213 1025 2328 
Q 1025 1447 1429 934 
Q 1834 422 2522 422 
Q 3209 422 3611 934 
Q 4013 1447 4013 2328 
Q 4013 3213 3611 3725 
Q 3209 4238 2522 4238 
z
M 2522 4750 
Q 3503 4750 4090 4092 
Q 4678 3434 4678 2328 
Q 4678 1225 4090 567 
Q 3503 -91 2522 -91 
Q 1538 -91 948 565 
Q 359 1222 359 2328 
Q 359 3434 948 4092 
Q 1538 4750 2522 4750 
z
" transform="scale(0.015625)"/>
      <path id="DejaVuSans-2d" d="M 313 2009 
L 1997 2009 
L 1997 1497 
L 313 1497 
L 313 2009 
z
" transform="scale(0.015625)"/>
      <path id="DejaVuSans-54" d="M -19 4666 
L 3928 4666 
L 3928 4134 
L 2272 4134 
L 2272 0 
L 1638 0 
L 1638 4134 
L -19 4134 
L -19 4666 
z
" transform="scale(0.015625)"/>
     </defs>
     <use xlink:href="#DejaVuSans-41"/>
     <use xlink:href="#DejaVuSans-62" x="68.408203"/>
     <use xlink:href="#DejaVuSans-64" x="131.884766"/>
     <use xlink:href="#DejaVuSans-75" x="195.361328"/>
     <use xlink:href="#DejaVuSans-e7" x="258.740234"/>
     <use xlink:href="#DejaVuSans-e3" x="313.720703"/>
     <use xlink:href="#DejaVuSans-6f" x="375"/>
     <use xlink:href="#DejaVuSans-20" x="436.181641"/>
     <use xlink:href="#DejaVuSans-64" x="467.96875"/>
     <use xlink:href="#DejaVuSans-6f" x="531.445312"/>
     <use xlink:href="#DejaVuSans-20" x="592.626953"/>
     <use xlink:href="#DejaVuSans-4f" x="624.414062"/>
     <use xlink:href="#DejaVuSans-6d" x="703.125"/>
     <use xlink:href="#DejaVuSans-62" x="800.537109"/>
     <use xlink:href="#DejaVuSans-72" x="864.013672"/>
     <use xlink:href="#DejaVuSans-6f" x="902.876953"/>
     <use xlink:href="#DejaVuSans-20" x="964.058594"/>
     <use xlink:href="#DejaVuSans-2d" x="995.845703"/>
     <use xlink:href="#DejaVuSans-20" x="1031.929688"/>
     <use xlink:href="#DejaVuSans-54" x="1063.716797"/>
     <use xlink:href="#DejaVuSans-6f" x="1107.800781"/>
     <use xlink:href="#DejaVuSans-64" x="1168.982422"/>
     <use xlink:href="#DejaVuSans-6f" x="1232.458984"/>
     <use xlink:href="#DejaVuSans-73" x="1293.640625"/>
     <use xlink:href="#DejaVuSans-20" x="1345.740234"/>
     <use xlink:href="#DejaVuSans-41" x="1377.527344"/>
     <use xlink:href="#DejaVuSans-74" x="1444.185547"/>
     <use xlink:href="#DejaVuSans-72" x="1483.394531"/>
     <use xlink:href="#DejaVuSans-69" x="1524.507812"/>
     <use xlink:href="#DejaVuSans-62" x="1552.291016"/>
     <use xlink:href="#DejaVuSans-75" x="1615.767578"/>
     <use xlink:href="#DejaVuSans-74" x="1679.146484"/>
     <use xlink:href="#DejaVuSans-6f" x="1718.355469"/>
     <use xlink:href="#DejaVuSans-73" x="1779.537109"/>
    </g>
    <!-- Importância dos Atributos -->
    <g transform="translate(184.457045 36.288)scale(0.12 -0.12)">
     <use xlink:href="#DejaVuSans-49"/>
     <use xlink:href="#DejaVuSans-6d" x="29.492188"/>
     <use xlink:href="#DejaVuSans-70" x="126.904297"/>
     <use xlink:href="#DejaVuSans-6f" x="190.380859"/>
     <use xlink:href="#DejaVuSans-72" x="251.5625"/>
     <use xlink:href="#DejaVuSans-74" x="292.675781"/>
     <use xlink:href="#DejaVuSans-e2" x="331.884766"/>
     <use xlink:href="#DejaVuSans-6e" x="393.164062"/>
     <use xlink:href="#DejaVuSans-63" x="456.542969"/>
     <use xlink:href="#DejaVuSans-69" x="511.523438"/>
     <use xlink:href="#DejaVuSans-61" x="539.306641"/>
     <use xlink:href="#DejaVuSans-20" x="600.585938"/>
     <use xlink:href="#DejaVuSans-64" x="632.373047"/>
     <use xlink:href="#DejaVuSans-6f" x="695.849609"/>
     <use xlink:href="#DejaVuSans-73" x="757.03125"/>
     <use xlink:href="#DejaVuSans-20" x="809.130859"/>
     <use xlink:href="#DejaVuSans-41" x="840.917969"/>
     <use xlink:href="#DejaVuSans-74" x="907.576172"/>
     <use xlink:href="#DejaVuSans-72" x="946.785156"/>
     <use xlink:href="#DejaVuSans-69" x="987.898438"/>
     <use xlink:href="#DejaVuSans-62" x="1015.681641"/>
     <use xlink:href="#DejaVuSans-75" x="1079.158203"/>
     <use xlink:href="#DejaVuSans-74" x="1142.537109"/>
     <use xlink:href="#DejaVuSans-6f" x="1181.746094"/>
     <use xlink:href="#DejaVuSans-73" x="1242.927734"/>
    </g>
   </g>
  </g>
 </g>
 <defs>
  <clipPath id="p501e68f384">
   <rect x="75.26" y="42.288" width="373.795964" height="164.254798"/>
  </clipPath>
 </defs>
</svg>
