<?xml version="1.0" encoding="utf-8" standalone="no"?>
<!DOCTYPE svg PUBLIC "-//W3C//DTD SVG 1.1//EN"
  "http://www.w3.org/Graphics/SVG/1.1/DTD/svg11.dtd">
<svg xmlns:xlink="http://www.w3.org/1999/xlink" width="460.8pt" height="345.6pt" viewBox="0 0 460.8 345.6" xmlns="http://www.w3.org/2000/svg" version="1.1">
 <metadata>
  <rdf:RDF xmlns:dc="http://purl.org/dc/elements/1.1/" xmlns:cc="http://creativecommons.org/ns#" xmlns:rdf="http://www.w3.org/1999/02/22-rdf-syntax-ns#">
   <cc:Work>
    <dc:type rdf:resource="http://purl.org/dc/dcmitype/StillImage"/>
    <dc:date>2023-11-08T20:58:50.686117</dc:date>
    <dc:format>image/svg+xml</dc:format>
    <dc:creator>
     <cc:Agent>
      <dc:title>Matplotlib v3.5.2, https://matplotlib.org/</dc:title>
     </cc:Agent>
    </dc:creator>
   </cc:Work>
  </rdf:RDF>
 </metadata>
 <defs>
  <style type="text/css">*{stroke-linejoin: round; stroke-linecap: butt}</style>
 </defs>
 <g id="figure_1">
  <g id="patch_1">
   <path d="M 0 345.6 
L 460.8 345.6 
L 460.8 0 
L 0 0 
z
" style="fill: #ffffff"/>
  </g>
  <g id="axes_1">
   <g id="patch_2">
    <path d="M 68.96 206.542798 
L 446.549859 206.542798 
L 446.549859 42.288 
L 68.96 42.288 
z
" style="fill: #ffffff"/>
   </g>
   <g id="matplotlib.axis_1">
    <g id="xtick_1">
     <g id="line2d_1">
      <defs>
       <path id="mbdcaea2dea" d="M 0 0 
L 0 3.5 
" style="stroke: #000000; stroke-width: 0.8"/>
      </defs>
      <g>
       <use xlink:href="#mbdcaea2dea" x="78.896575" y="206.542798" style="stroke: #000000; stroke-width: 0.8"/>
      </g>
     </g>
     <g id="text_1">
      <!-- Idade -->
      <g transform="translate(78.106213 237.652415)rotate(-75)scale(0.0833 -0.0833)">
       <defs>
        <path id="DejaVuSans-49" d="M 628 4666 
L 1259 4666 
L 1259 0 
L 628 0 
L 628 4666 
z
" transform="scale(0.015625)"/>
        <path id="DejaVuSans-64" d="M 2906 2969 
L 2906 4863 
L 3481 4863 
L 3481 0 
L 2906 0 
L 2906 525 
Q 2725 213 2448 61 
Q 2172 -91 1784 -91 
Q 1150 -91 751 415 
Q 353 922 353 1747 
Q 353 2572 751 3078 
Q 1150 3584 1784 3584 
Q 2172 3584 2448 3432 
Q 2725 3281 2906 2969 
z
M 947 1747 
Q 947 1113 1208 752 
Q 1469 391 1925 391 
Q 2381 391 2643 752 
Q 2906 1113 2906 1747 
Q 2906 2381 2643 2742 
Q 2381 3103 1925 3103 
Q 1469 3103 1208 2742 
Q 947 2381 947 1747 
z
" transform="scale(0.015625)"/>
        <path id="DejaVuSans-61" d="M 2194 1759 
Q 1497 1759 1228 1600 
Q 959 1441 959 1056 
Q 959 750 1161 570 
Q 1363 391 1709 391 
Q 2188 391 2477 730 
Q 2766 1069 2766 1631 
L 2766 1759 
L 2194 1759 
z
M 3341 1997 
L 3341 0 
L 2766 0 
L 2766 531 
Q 2569 213 2275 61 
Q 1981 -91 1556 -91 
Q 1019 -91 701 211 
Q 384 513 384 1019 
Q 384 1609 779 1909 
Q 1175 2209 1959 2209 
L 2766 2209 
L 2766 2266 
Q 2766 2663 2505 2880 
Q 2244 3097 1772 3097 
Q 1472 3097 1187 3025 
Q 903 2953 641 2809 
L 641 3341 
Q 956 3463 1253 3523 
Q 1550 3584 1831 3584 
Q 2591 3584 2966 3190 
Q 3341 2797 3341 1997 
z
" transform="scale(0.015625)"/>
        <path id="DejaVuSans-65" d="M 3597 1894 
L 3597 1613 
L 953 1613 
Q 991 1019 1311 708 
Q 1631 397 2203 397 
Q 2534 397 2845 478 
Q 3156 559 3463 722 
L 3463 178 
Q 3153 47 2828 -22 
Q 2503 -91 2169 -91 
Q 1331 -91 842 396 
Q 353 884 353 1716 
Q 353 2575 817 3079 
Q 1281 3584 2069 3584 
Q 2775 3584 3186 3129 
Q 3597 2675 3597 1894 
z
M 3022 2063 
Q 3016 2534 2758 2815 
Q 2500 3097 2075 3097 
Q 1594 3097 1305 2825 
Q 1016 2553 972 2059 
L 3022 2063 
z
" transform="scale(0.015625)"/>
       </defs>
       <use xlink:href="#DejaVuSans-49"/>
       <use xlink:href="#DejaVuSans-64" x="29.492188"/>
       <use xlink:href="#DejaVuSans-61" x="92.96875"/>
       <use xlink:href="#DejaVuSans-64" x="154.248047"/>
       <use xlink:href="#DejaVuSans-65" x="217.724609"/>
      </g>
     </g>
    </g>
    <g id="xtick_2">
     <g id="line2d_2">
      <g>
       <use xlink:href="#mbdcaea2dea" x="98.769726" y="206.542798" style="stroke: #000000; stroke-width: 0.8"/>
      </g>
     </g>
     <g id="text_2">
      <!-- Lado -->
      <g transform="translate(98.384786 234.626304)rotate(-75)scale(0.0833 -0.0833)">
       <defs>
        <path id="DejaVuSans-4c" d="M 628 4666 
L 1259 4666 
L 1259 531 
L 3531 531 
L 3531 0 
L 628 0 
L 628 4666 
z
" transform="scale(0.015625)"/>
        <path id="DejaVuSans-6f" d="M 1959 3097 
Q 1497 3097 1228 2736 
Q 959 2375 959 1747 
Q 959 1119 1226 758 
Q 1494 397 1959 397 
Q 2419 397 2687 759 
Q 2956 1122 2956 1747 
Q 2956 2369 2687 2733 
Q 2419 3097 1959 3097 
z
M 1959 3584 
Q 2709 3584 3137 3096 
Q 3566 2609 3566 1747 
Q 3566 888 3137 398 
Q 2709 -91 1959 -91 
Q 1206 -91 779 398 
Q 353 888 353 1747 
Q 353 2609 779 3096 
Q 1206 3584 1959 3584 
z
" transform="scale(0.015625)"/>
       </defs>
       <use xlink:href="#DejaVuSans-4c"/>
       <use xlink:href="#DejaVuSans-61" x="55.712891"/>
       <use xlink:href="#DejaVuSans-64" x="116.992188"/>
       <use xlink:href="#DejaVuSans-6f" x="180.46875"/>
      </g>
     </g>
    </g>
    <g id="xtick_3">
     <g id="line2d_3">
      <g>
       <use xlink:href="#mbdcaea2dea" x="118.642876" y="206.542798" style="stroke: #000000; stroke-width: 0.8"/>
      </g>
     </g>
     <g id="text_3">
      <!-- Diagnóstico -->
      <g transform="translate(114.670853 262.688042)rotate(-75)scale(0.0833 -0.0833)">
       <defs>
        <path id="DejaVuSans-44" d="M 1259 4147 
L 1259 519 
L 2022 519 
Q 2988 519 3436 956 
Q 3884 1394 3884 2338 
Q 3884 3275 3436 3711 
Q 2988 4147 2022 4147 
L 1259 4147 
z
M 628 4666 
L 1925 4666 
Q 3281 4666 3915 4102 
Q 4550 3538 4550 2338 
Q 4550 1131 3912 565 
Q 3275 0 1925 0 
L 628 0 
L 628 4666 
z
" transform="scale(0.015625)"/>
        <path id="DejaVuSans-69" d="M 603 3500 
L 1178 3500 
L 1178 0 
L 603 0 
L 603 3500 
z
M 603 4863 
L 1178 4863 
L 1178 4134 
L 603 4134 
L 603 4863 
z
" transform="scale(0.015625)"/>
        <path id="DejaVuSans-67" d="M 2906 1791 
Q 2906 2416 2648 2759 
Q 2391 3103 1925 3103 
Q 1463 3103 1205 2759 
Q 947 2416 947 1791 
Q 947 1169 1205 825 
Q 1463 481 1925 481 
Q 2391 481 2648 825 
Q 2906 1169 2906 1791 
z
M 3481 434 
Q 3481 -459 3084 -895 
Q 2688 -1331 1869 -1331 
Q 1566 -1331 1297 -1286 
Q 1028 -1241 775 -1147 
L 775 -588 
Q 1028 -725 1275 -790 
Q 1522 -856 1778 -856 
Q 2344 -856 2625 -561 
Q 2906 -266 2906 331 
L 2906 616 
Q 2728 306 2450 153 
Q 2172 0 1784 0 
Q 1141 0 747 490 
Q 353 981 353 1791 
Q 353 2603 747 3093 
Q 1141 3584 1784 3584 
Q 2172 3584 2450 3431 
Q 2728 3278 2906 2969 
L 2906 3500 
L 3481 3500 
L 3481 434 
z
" transform="scale(0.015625)"/>
        <path id="DejaVuSans-6e" d="M 3513 2113 
L 3513 0 
L 2938 0 
L 2938 2094 
Q 2938 2591 2744 2837 
Q 2550 3084 2163 3084 
Q 1697 3084 1428 2787 
Q 1159 2491 1159 1978 
L 1159 0 
L 581 0 
L 581 3500 
L 1159 3500 
L 1159 2956 
Q 1366 3272 1645 3428 
Q 1925 3584 2291 3584 
Q 2894 3584 3203 3211 
Q 3513 2838 3513 2113 
z
" transform="scale(0.015625)"/>
        <path id="DejaVuSans-f3" d="M 1959 3097 
Q 1497 3097 1228 2736 
Q 959 2375 959 1747 
Q 959 1119 1226 758 
Q 1494 397 1959 397 
Q 2419 397 2687 759 
Q 2956 1122 2956 1747 
Q 2956 2369 2687 2733 
Q 2419 3097 1959 3097 
z
M 1959 3584 
Q 2709 3584 3137 3096 
Q 3566 2609 3566 1747 
Q 3566 888 3137 398 
Q 2709 -91 1959 -91 
Q 1206 -91 779 398 
Q 353 888 353 1747 
Q 353 2609 779 3096 
Q 1206 3584 1959 3584 
z
M 2394 5119 
L 3016 5119 
L 1998 3944 
L 1519 3944 
L 2394 5119 
z
" transform="scale(0.015625)"/>
        <path id="DejaVuSans-73" d="M 2834 3397 
L 2834 2853 
Q 2591 2978 2328 3040 
Q 2066 3103 1784 3103 
Q 1356 3103 1142 2972 
Q 928 2841 928 2578 
Q 928 2378 1081 2264 
Q 1234 2150 1697 2047 
L 1894 2003 
Q 2506 1872 2764 1633 
Q 3022 1394 3022 966 
Q 3022 478 2636 193 
Q 2250 -91 1575 -91 
Q 1294 -91 989 -36 
Q 684 19 347 128 
L 347 722 
Q 666 556 975 473 
Q 1284 391 1588 391 
Q 1994 391 2212 530 
Q 2431 669 2431 922 
Q 2431 1156 2273 1281 
Q 2116 1406 1581 1522 
L 1381 1569 
Q 847 1681 609 1914 
Q 372 2147 372 2553 
Q 372 3047 722 3315 
Q 1072 3584 1716 3584 
Q 2034 3584 2315 3537 
Q 2597 3491 2834 3397 
z
" transform="scale(0.015625)"/>
        <path id="DejaVuSans-74" d="M 1172 4494 
L 1172 3500 
L 2356 3500 
L 2356 3053 
L 1172 3053 
L 1172 1153 
Q 1172 725 1289 603 
Q 1406 481 1766 481 
L 2356 481 
L 2356 0 
L 1766 0 
Q 1100 0 847 248 
Q 594 497 594 1153 
L 594 3053 
L 172 3053 
L 172 3500 
L 594 3500 
L 594 4494 
L 1172 4494 
z
" transform="scale(0.015625)"/>
        <path id="DejaVuSans-63" d="M 3122 3366 
L 3122 2828 
Q 2878 2963 2633 3030 
Q 2388 3097 2138 3097 
Q 1578 3097 1268 2742 
Q 959 2388 959 1747 
Q 959 1106 1268 751 
Q 1578 397 2138 397 
Q 2388 397 2633 464 
Q 2878 531 3122 666 
L 3122 134 
Q 2881 22 2623 -34 
Q 2366 -91 2075 -91 
Q 1284 -91 818 406 
Q 353 903 353 1747 
Q 353 2603 823 3093 
Q 1294 3584 2113 3584 
Q 2378 3584 2631 3529 
Q 2884 3475 3122 3366 
z
" transform="scale(0.015625)"/>
       </defs>
       <use xlink:href="#DejaVuSans-44"/>
       <use xlink:href="#DejaVuSans-69" x="77.001953"/>
       <use xlink:href="#DejaVuSans-61" x="104.785156"/>
       <use xlink:href="#DejaVuSans-67" x="166.064453"/>
       <use xlink:href="#DejaVuSans-6e" x="229.541016"/>
       <use xlink:href="#DejaVuSans-f3" x="292.919922"/>
       <use xlink:href="#DejaVuSans-73" x="354.101562"/>
       <use xlink:href="#DejaVuSans-74" x="406.201172"/>
       <use xlink:href="#DejaVuSans-69" x="445.410156"/>
       <use xlink:href="#DejaVuSans-63" x="473.193359"/>
       <use xlink:href="#DejaVuSans-6f" x="528.173828"/>
      </g>
     </g>
    </g>
    <g id="xtick_4">
     <g id="line2d_4">
      <g>
       <use xlink:href="#mbdcaea2dea" x="138.516027" y="206.542798" style="stroke: #000000; stroke-width: 0.8"/>
      </g>
     </g>
     <g id="text_4">
      <!-- Motocicleta -->
      <g transform="translate(134.533493 261.479112)rotate(-75)scale(0.0833 -0.0833)">
       <defs>
        <path id="DejaVuSans-4d" d="M 628 4666 
L 1569 4666 
L 2759 1491 
L 3956 4666 
L 4897 4666 
L 4897 0 
L 4281 0 
L 4281 4097 
L 3078 897 
L 2444 897 
L 1241 4097 
L 1241 0 
L 628 0 
L 628 4666 
z
" transform="scale(0.015625)"/>
        <path id="DejaVuSans-6c" d="M 603 4863 
L 1178 4863 
L 1178 0 
L 603 0 
L 603 4863 
z
" transform="scale(0.015625)"/>
       </defs>
       <use xlink:href="#DejaVuSans-4d"/>
       <use xlink:href="#DejaVuSans-6f" x="86.279297"/>
       <use xlink:href="#DejaVuSans-74" x="147.460938"/>
       <use xlink:href="#DejaVuSans-6f" x="186.669922"/>
       <use xlink:href="#DejaVuSans-63" x="247.851562"/>
       <use xlink:href="#DejaVuSans-69" x="302.832031"/>
       <use xlink:href="#DejaVuSans-63" x="330.615234"/>
       <use xlink:href="#DejaVuSans-6c" x="385.595703"/>
       <use xlink:href="#DejaVuSans-65" x="413.378906"/>
       <use xlink:href="#DejaVuSans-74" x="474.902344"/>
       <use xlink:href="#DejaVuSans-61" x="514.111328"/>
      </g>
     </g>
    </g>
    <g id="xtick_5">
     <g id="line2d_5">
      <g>
       <use xlink:href="#mbdcaea2dea" x="158.389177" y="206.542798" style="stroke: #000000; stroke-width: 0.8"/>
      </g>
     </g>
     <g id="text_5">
      <!-- Cranioencefálico -->
      <g transform="translate(151.616861 282.302329)rotate(-75)scale(0.0833 -0.0833)">
       <defs>
        <path id="DejaVuSans-43" d="M 4122 4306 
L 4122 3641 
Q 3803 3938 3442 4084 
Q 3081 4231 2675 4231 
Q 1875 4231 1450 3742 
Q 1025 3253 1025 2328 
Q 1025 1406 1450 917 
Q 1875 428 2675 428 
Q 3081 428 3442 575 
Q 3803 722 4122 1019 
L 4122 359 
Q 3791 134 3420 21 
Q 3050 -91 2638 -91 
Q 1578 -91 968 557 
Q 359 1206 359 2328 
Q 359 3453 968 4101 
Q 1578 4750 2638 4750 
Q 3056 4750 3426 4639 
Q 3797 4528 4122 4306 
z
" transform="scale(0.015625)"/>
        <path id="DejaVuSans-72" d="M 2631 2963 
Q 2534 3019 2420 3045 
Q 2306 3072 2169 3072 
Q 1681 3072 1420 2755 
Q 1159 2438 1159 1844 
L 1159 0 
L 581 0 
L 581 3500 
L 1159 3500 
L 1159 2956 
Q 1341 3275 1631 3429 
Q 1922 3584 2338 3584 
Q 2397 3584 2469 3576 
Q 2541 3569 2628 3553 
L 2631 2963 
z
" transform="scale(0.015625)"/>
        <path id="DejaVuSans-66" d="M 2375 4863 
L 2375 4384 
L 1825 4384 
Q 1516 4384 1395 4259 
Q 1275 4134 1275 3809 
L 1275 3500 
L 2222 3500 
L 2222 3053 
L 1275 3053 
L 1275 0 
L 697 0 
L 697 3053 
L 147 3053 
L 147 3500 
L 697 3500 
L 697 3744 
Q 697 4328 969 4595 
Q 1241 4863 1831 4863 
L 2375 4863 
z
" transform="scale(0.015625)"/>
        <path id="DejaVuSans-e1" d="M 2194 1759 
Q 1497 1759 1228 1600 
Q 959 1441 959 1056 
Q 959 750 1161 570 
Q 1363 391 1709 391 
Q 2188 391 2477 730 
Q 2766 1069 2766 1631 
L 2766 1759 
L 2194 1759 
z
M 3341 1997 
L 3341 0 
L 2766 0 
L 2766 531 
Q 2569 213 2275 61 
Q 1981 -91 1556 -91 
Q 1019 -91 701 211 
Q 384 513 384 1019 
Q 384 1609 779 1909 
Q 1175 2209 1959 2209 
L 2766 2209 
L 2766 2266 
Q 2766 2663 2505 2880 
Q 2244 3097 1772 3097 
Q 1472 3097 1187 3025 
Q 903 2953 641 2809 
L 641 3341 
Q 956 3463 1253 3523 
Q 1550 3584 1831 3584 
Q 2591 3584 2966 3190 
Q 3341 2797 3341 1997 
z
M 2290 5119 
L 2912 5119 
L 1894 3944 
L 1415 3944 
L 2290 5119 
z
" transform="scale(0.015625)"/>
       </defs>
       <use xlink:href="#DejaVuSans-43"/>
       <use xlink:href="#DejaVuSans-72" x="69.824219"/>
       <use xlink:href="#DejaVuSans-61" x="110.9375"/>
       <use xlink:href="#DejaVuSans-6e" x="172.216797"/>
       <use xlink:href="#DejaVuSans-69" x="235.595703"/>
       <use xlink:href="#DejaVuSans-6f" x="263.378906"/>
       <use xlink:href="#DejaVuSans-65" x="324.560547"/>
       <use xlink:href="#DejaVuSans-6e" x="386.083984"/>
       <use xlink:href="#DejaVuSans-63" x="449.462891"/>
       <use xlink:href="#DejaVuSans-65" x="504.443359"/>
       <use xlink:href="#DejaVuSans-66" x="565.966797"/>
       <use xlink:href="#DejaVuSans-e1" x="601.171875"/>
       <use xlink:href="#DejaVuSans-6c" x="662.451172"/>
       <use xlink:href="#DejaVuSans-69" x="690.234375"/>
       <use xlink:href="#DejaVuSans-63" x="718.017578"/>
       <use xlink:href="#DejaVuSans-6f" x="772.998047"/>
      </g>
     </g>
    </g>
    <g id="xtick_6">
     <g id="line2d_6">
      <g>
       <use xlink:href="#mbdcaea2dea" x="178.262328" y="206.542798" style="stroke: #000000; stroke-width: 0.8"/>
      </g>
     </g>
     <g id="text_6">
      <!-- Membro Superior -->
      <g transform="translate(171.173186 284.667146)rotate(-75)scale(0.0833 -0.0833)">
       <defs>
        <path id="DejaVuSans-6d" d="M 3328 2828 
Q 3544 3216 3844 3400 
Q 4144 3584 4550 3584 
Q 5097 3584 5394 3201 
Q 5691 2819 5691 2113 
L 5691 0 
L 5113 0 
L 5113 2094 
Q 5113 2597 4934 2840 
Q 4756 3084 4391 3084 
Q 3944 3084 3684 2787 
Q 3425 2491 3425 1978 
L 3425 0 
L 2847 0 
L 2847 2094 
Q 2847 2600 2669 2842 
Q 2491 3084 2119 3084 
Q 1678 3084 1418 2786 
Q 1159 2488 1159 1978 
L 1159 0 
L 581 0 
L 581 3500 
L 1159 3500 
L 1159 2956 
Q 1356 3278 1631 3431 
Q 1906 3584 2284 3584 
Q 2666 3584 2933 3390 
Q 3200 3197 3328 2828 
z
" transform="scale(0.015625)"/>
        <path id="DejaVuSans-62" d="M 3116 1747 
Q 3116 2381 2855 2742 
Q 2594 3103 2138 3103 
Q 1681 3103 1420 2742 
Q 1159 2381 1159 1747 
Q 1159 1113 1420 752 
Q 1681 391 2138 391 
Q 2594 391 2855 752 
Q 3116 1113 3116 1747 
z
M 1159 2969 
Q 1341 3281 1617 3432 
Q 1894 3584 2278 3584 
Q 2916 3584 3314 3078 
Q 3713 2572 3713 1747 
Q 3713 922 3314 415 
Q 2916 -91 2278 -91 
Q 1894 -91 1617 61 
Q 1341 213 1159 525 
L 1159 0 
L 581 0 
L 581 4863 
L 1159 4863 
L 1159 2969 
z
" transform="scale(0.015625)"/>
        <path id="DejaVuSans-20" transform="scale(0.015625)"/>
        <path id="DejaVuSans-53" d="M 3425 4513 
L 3425 3897 
Q 3066 4069 2747 4153 
Q 2428 4238 2131 4238 
Q 1616 4238 1336 4038 
Q 1056 3838 1056 3469 
Q 1056 3159 1242 3001 
Q 1428 2844 1947 2747 
L 2328 2669 
Q 3034 2534 3370 2195 
Q 3706 1856 3706 1288 
Q 3706 609 3251 259 
Q 2797 -91 1919 -91 
Q 1588 -91 1214 -16 
Q 841 59 441 206 
L 441 856 
Q 825 641 1194 531 
Q 1563 422 1919 422 
Q 2459 422 2753 634 
Q 3047 847 3047 1241 
Q 3047 1584 2836 1778 
Q 2625 1972 2144 2069 
L 1759 2144 
Q 1053 2284 737 2584 
Q 422 2884 422 3419 
Q 422 4038 858 4394 
Q 1294 4750 2059 4750 
Q 2388 4750 2728 4690 
Q 3069 4631 3425 4513 
z
" transform="scale(0.015625)"/>
        <path id="DejaVuSans-75" d="M 544 1381 
L 544 3500 
L 1119 3500 
L 1119 1403 
Q 1119 906 1312 657 
Q 1506 409 1894 409 
Q 2359 409 2629 706 
Q 2900 1003 2900 1516 
L 2900 3500 
L 3475 3500 
L 3475 0 
L 2900 0 
L 2900 538 
Q 2691 219 2414 64 
Q 2138 -91 1772 -91 
Q 1169 -91 856 284 
Q 544 659 544 1381 
z
M 1991 3584 
L 1991 3584 
z
" transform="scale(0.015625)"/>
        <path id="DejaVuSans-70" d="M 1159 525 
L 1159 -1331 
L 581 -1331 
L 581 3500 
L 1159 3500 
L 1159 2969 
Q 1341 3281 1617 3432 
Q 1894 3584 2278 3584 
Q 2916 3584 3314 3078 
Q 3713 2572 3713 1747 
Q 3713 922 3314 415 
Q 2916 -91 2278 -91 
Q 1894 -91 1617 61 
Q 1341 213 1159 525 
z
M 3116 1747 
Q 3116 2381 2855 2742 
Q 2594 3103 2138 3103 
Q 1681 3103 1420 2742 
Q 1159 2381 1159 1747 
Q 1159 1113 1420 752 
Q 1681 391 2138 391 
Q 2594 391 2855 752 
Q 3116 1113 3116 1747 
z
" transform="scale(0.015625)"/>
       </defs>
       <use xlink:href="#DejaVuSans-4d"/>
       <use xlink:href="#DejaVuSans-65" x="86.279297"/>
       <use xlink:href="#DejaVuSans-6d" x="147.802734"/>
       <use xlink:href="#DejaVuSans-62" x="245.214844"/>
       <use xlink:href="#DejaVuSans-72" x="308.691406"/>
       <use xlink:href="#DejaVuSans-6f" x="347.554688"/>
       <use xlink:href="#DejaVuSans-20" x="408.736328"/>
       <use xlink:href="#DejaVuSans-53" x="440.523438"/>
       <use xlink:href="#DejaVuSans-75" x="504"/>
       <use xlink:href="#DejaVuSans-70" x="567.378906"/>
       <use xlink:href="#DejaVuSans-65" x="630.855469"/>
       <use xlink:href="#DejaVuSans-72" x="692.378906"/>
       <use xlink:href="#DejaVuSans-69" x="733.492188"/>
       <use xlink:href="#DejaVuSans-6f" x="761.275391"/>
       <use xlink:href="#DejaVuSans-72" x="822.457031"/>
      </g>
     </g>
    </g>
    <g id="xtick_7">
     <g id="line2d_7">
      <g>
       <use xlink:href="#mbdcaea2dea" x="198.135478" y="206.542798" style="stroke: #000000; stroke-width: 0.8"/>
      </g>
     </g>
     <g id="text_7">
      <!-- Dor_0_6 -->
      <g transform="translate(195.790292 247.854347)rotate(-75)scale(0.0833 -0.0833)">
       <defs>
        <path id="DejaVuSans-5f" d="M 3263 -1063 
L 3263 -1509 
L -63 -1509 
L -63 -1063 
L 3263 -1063 
z
" transform="scale(0.015625)"/>
        <path id="DejaVuSans-30" d="M 2034 4250 
Q 1547 4250 1301 3770 
Q 1056 3291 1056 2328 
Q 1056 1369 1301 889 
Q 1547 409 2034 409 
Q 2525 409 2770 889 
Q 3016 1369 3016 2328 
Q 3016 3291 2770 3770 
Q 2525 4250 2034 4250 
z
M 2034 4750 
Q 2819 4750 3233 4129 
Q 3647 3509 3647 2328 
Q 3647 1150 3233 529 
Q 2819 -91 2034 -91 
Q 1250 -91 836 529 
Q 422 1150 422 2328 
Q 422 3509 836 4129 
Q 1250 4750 2034 4750 
z
" transform="scale(0.015625)"/>
        <path id="DejaVuSans-36" d="M 2113 2584 
Q 1688 2584 1439 2293 
Q 1191 2003 1191 1497 
Q 1191 994 1439 701 
Q 1688 409 2113 409 
Q 2538 409 2786 701 
Q 3034 994 3034 1497 
Q 3034 2003 2786 2293 
Q 2538 2584 2113 2584 
z
M 3366 4563 
L 3366 3988 
Q 3128 4100 2886 4159 
Q 2644 4219 2406 4219 
Q 1781 4219 1451 3797 
Q 1122 3375 1075 2522 
Q 1259 2794 1537 2939 
Q 1816 3084 2150 3084 
Q 2853 3084 3261 2657 
Q 3669 2231 3669 1497 
Q 3669 778 3244 343 
Q 2819 -91 2113 -91 
Q 1303 -91 875 529 
Q 447 1150 447 2328 
Q 447 3434 972 4092 
Q 1497 4750 2381 4750 
Q 2619 4750 2861 4703 
Q 3103 4656 3366 4563 
z
" transform="scale(0.015625)"/>
       </defs>
       <use xlink:href="#DejaVuSans-44"/>
       <use xlink:href="#DejaVuSans-6f" x="77.001953"/>
       <use xlink:href="#DejaVuSans-72" x="138.183594"/>
       <use xlink:href="#DejaVuSans-5f" x="179.296875"/>
       <use xlink:href="#DejaVuSans-30" x="229.296875"/>
       <use xlink:href="#DejaVuSans-5f" x="292.919922"/>
       <use xlink:href="#DejaVuSans-36" x="342.919922"/>
      </g>
     </g>
    </g>
    <g id="xtick_8">
     <g id="line2d_8">
      <g>
       <use xlink:href="#mbdcaea2dea" x="218.008629" y="206.542798" style="stroke: #000000; stroke-width: 0.8"/>
      </g>
     </g>
     <g id="text_8">
      <!-- Fisioterapia -->
      <g transform="translate(214.032832 261.428824)rotate(-75)scale(0.0833 -0.0833)">
       <defs>
        <path id="DejaVuSans-46" d="M 628 4666 
L 3309 4666 
L 3309 4134 
L 1259 4134 
L 1259 2759 
L 3109 2759 
L 3109 2228 
L 1259 2228 
L 1259 0 
L 628 0 
L 628 4666 
z
" transform="scale(0.015625)"/>
       </defs>
       <use xlink:href="#DejaVuSans-46"/>
       <use xlink:href="#DejaVuSans-69" x="50.269531"/>
       <use xlink:href="#DejaVuSans-73" x="78.052734"/>
       <use xlink:href="#DejaVuSans-69" x="130.152344"/>
       <use xlink:href="#DejaVuSans-6f" x="157.935547"/>
       <use xlink:href="#DejaVuSans-74" x="219.117188"/>
       <use xlink:href="#DejaVuSans-65" x="258.326172"/>
       <use xlink:href="#DejaVuSans-72" x="319.849609"/>
       <use xlink:href="#DejaVuSans-61" x="360.962891"/>
       <use xlink:href="#DejaVuSans-70" x="422.242188"/>
       <use xlink:href="#DejaVuSans-69" x="485.71875"/>
       <use xlink:href="#DejaVuSans-61" x="513.501953"/>
      </g>
     </g>
    </g>
    <g id="xtick_9">
     <g id="line2d_9">
      <g>
       <use xlink:href="#mbdcaea2dea" x="237.881779" y="206.542798" style="stroke: #000000; stroke-width: 0.8"/>
      </g>
     </g>
     <g id="text_9">
      <!-- Órtese -->
      <g transform="translate(236.499538 242.070261)rotate(-75)scale(0.0833 -0.0833)">
       <defs>
        <path id="DejaVuSans-d3" d="M 2522 4238 
Q 1834 4238 1429 3725 
Q 1025 3213 1025 2328 
Q 1025 1447 1429 934 
Q 1834 422 2522 422 
Q 3209 422 3611 934 
Q 4013 1447 4013 2328 
Q 4013 3213 3611 3725 
Q 3209 4238 2522 4238 
z
M 2522 4750 
Q 3503 4750 4090 4092 
Q 4678 3434 4678 2328 
Q 4678 1225 4090 567 
Q 3503 -91 2522 -91 
Q 1538 -91 948 565 
Q 359 1222 359 2328 
Q 359 3434 948 4092 
Q 1538 4750 2522 4750 
z
M 2692 5921 
L 3270 5921 
L 2558 5096 
L 2079 5096 
L 2692 5921 
z
" transform="scale(0.015625)"/>
       </defs>
       <use xlink:href="#DejaVuSans-d3"/>
       <use xlink:href="#DejaVuSans-72" x="78.710938"/>
       <use xlink:href="#DejaVuSans-74" x="119.824219"/>
       <use xlink:href="#DejaVuSans-65" x="159.033203"/>
       <use xlink:href="#DejaVuSans-73" x="220.556641"/>
       <use xlink:href="#DejaVuSans-65" x="272.65625"/>
      </g>
     </g>
    </g>
    <g id="xtick_10">
     <g id="line2d_10">
      <g>
       <use xlink:href="#mbdcaea2dea" x="257.75493" y="206.542798" style="stroke: #000000; stroke-width: 0.8"/>
      </g>
     </g>
     <g id="text_10">
      <!-- Cirurgia -->
      <g transform="translate(255.727921 246.882871)rotate(-75)scale(0.0833 -0.0833)">
       <use xlink:href="#DejaVuSans-43"/>
       <use xlink:href="#DejaVuSans-69" x="69.824219"/>
       <use xlink:href="#DejaVuSans-72" x="97.607422"/>
       <use xlink:href="#DejaVuSans-75" x="138.720703"/>
       <use xlink:href="#DejaVuSans-72" x="202.099609"/>
       <use xlink:href="#DejaVuSans-67" x="241.462891"/>
       <use xlink:href="#DejaVuSans-69" x="304.939453"/>
       <use xlink:href="#DejaVuSans-61" x="332.722656"/>
      </g>
     </g>
    </g>
    <g id="xtick_11">
     <g id="line2d_11">
      <g>
       <use xlink:href="#mbdcaea2dea" x="277.62808" y="206.542798" style="stroke: #000000; stroke-width: 0.8"/>
      </g>
     </g>
     <g id="text_11">
      <!-- Exploração -->
      <g transform="translate(273.937577 259.84751)rotate(-75)scale(0.0833 -0.0833)">
       <defs>
        <path id="DejaVuSans-45" d="M 628 4666 
L 3578 4666 
L 3578 4134 
L 1259 4134 
L 1259 2753 
L 3481 2753 
L 3481 2222 
L 1259 2222 
L 1259 531 
L 3634 531 
L 3634 0 
L 628 0 
L 628 4666 
z
" transform="scale(0.015625)"/>
        <path id="DejaVuSans-78" d="M 3513 3500 
L 2247 1797 
L 3578 0 
L 2900 0 
L 1881 1375 
L 863 0 
L 184 0 
L 1544 1831 
L 300 3500 
L 978 3500 
L 1906 2253 
L 2834 3500 
L 3513 3500 
z
" transform="scale(0.015625)"/>
        <path id="DejaVuSans-e7" d="M 3122 3366 
L 3122 2828 
Q 2878 2963 2633 3030 
Q 2388 3097 2138 3097 
Q 1578 3097 1268 2742 
Q 959 2388 959 1747 
Q 959 1106 1268 751 
Q 1578 397 2138 397 
Q 2388 397 2633 464 
Q 2878 531 3122 666 
L 3122 134 
Q 2881 22 2623 -34 
Q 2366 -91 2075 -91 
Q 1284 -91 818 406 
Q 353 903 353 1747 
Q 353 2603 823 3093 
Q 1294 3584 2113 3584 
Q 2378 3584 2631 3529 
Q 2884 3475 3122 3366 
z
M 2311 0 
Q 2482 -194 2566 -358 
Q 2651 -522 2651 -672 
Q 2651 -950 2463 -1092 
Q 2276 -1234 1907 -1234 
Q 1764 -1234 1628 -1215 
Q 1492 -1197 1357 -1159 
L 1357 -750 
Q 1464 -803 1579 -826 
Q 1695 -850 1842 -850 
Q 2026 -850 2120 -775 
Q 2214 -700 2214 -556 
Q 2214 -463 2146 -327 
Q 2079 -191 1939 0 
L 2311 0 
z
" transform="scale(0.015625)"/>
        <path id="DejaVuSans-e3" d="M 2194 1759 
Q 1497 1759 1228 1600 
Q 959 1441 959 1056 
Q 959 750 1161 570 
Q 1363 391 1709 391 
Q 2188 391 2477 730 
Q 2766 1069 2766 1631 
L 2766 1759 
L 2194 1759 
z
M 3341 1997 
L 3341 0 
L 2766 0 
L 2766 531 
Q 2569 213 2275 61 
Q 1981 -91 1556 -91 
Q 1019 -91 701 211 
Q 384 513 384 1019 
Q 384 1609 779 1909 
Q 1175 2209 1959 2209 
L 2766 2209 
L 2766 2266 
Q 2766 2663 2505 2880 
Q 2244 3097 1772 3097 
Q 1472 3097 1187 3025 
Q 903 2953 641 2809 
L 641 3341 
Q 956 3463 1253 3523 
Q 1550 3584 1831 3584 
Q 2591 3584 2966 3190 
Q 3341 2797 3341 1997 
z
M 1844 4281 
L 1665 4453 
Q 1597 4516 1545 4545 
Q 1494 4575 1453 4575 
Q 1334 4575 1278 4461 
Q 1222 4347 1215 4091 
L 825 4091 
Q 831 4513 990 4742 
Q 1150 4972 1434 4972 
Q 1553 4972 1653 4928 
Q 1753 4884 1869 4781 
L 2047 4609 
Q 2115 4547 2167 4517 
Q 2219 4488 2259 4488 
Q 2378 4488 2434 4602 
Q 2490 4716 2497 4972 
L 2887 4972 
Q 2881 4550 2721 4320 
Q 2562 4091 2278 4091 
Q 2159 4091 2059 4134 
Q 1959 4178 1844 4281 
z
" transform="scale(0.015625)"/>
       </defs>
       <use xlink:href="#DejaVuSans-45"/>
       <use xlink:href="#DejaVuSans-78" x="63.183594"/>
       <use xlink:href="#DejaVuSans-70" x="122.363281"/>
       <use xlink:href="#DejaVuSans-6c" x="185.839844"/>
       <use xlink:href="#DejaVuSans-6f" x="213.623047"/>
       <use xlink:href="#DejaVuSans-72" x="274.804688"/>
       <use xlink:href="#DejaVuSans-61" x="315.917969"/>
       <use xlink:href="#DejaVuSans-e7" x="377.197266"/>
       <use xlink:href="#DejaVuSans-e3" x="432.177734"/>
       <use xlink:href="#DejaVuSans-6f" x="493.457031"/>
      </g>
     </g>
    </g>
    <g id="xtick_12">
     <g id="line2d_12">
      <g>
       <use xlink:href="#mbdcaea2dea" x="297.501231" y="206.542798" style="stroke: #000000; stroke-width: 0.8"/>
      </g>
     </g>
     <g id="text_12">
      <!-- Momento da cirurgia -->
      <g transform="translate(288.535728 298.672497)rotate(-75)scale(0.0833 -0.0833)">
       <use xlink:href="#DejaVuSans-4d"/>
       <use xlink:href="#DejaVuSans-6f" x="86.279297"/>
       <use xlink:href="#DejaVuSans-6d" x="147.460938"/>
       <use xlink:href="#DejaVuSans-65" x="244.873047"/>
       <use xlink:href="#DejaVuSans-6e" x="306.396484"/>
       <use xlink:href="#DejaVuSans-74" x="369.775391"/>
       <use xlink:href="#DejaVuSans-6f" x="408.984375"/>
       <use xlink:href="#DejaVuSans-20" x="470.166016"/>
       <use xlink:href="#DejaVuSans-64" x="501.953125"/>
       <use xlink:href="#DejaVuSans-61" x="565.429688"/>
       <use xlink:href="#DejaVuSans-20" x="626.708984"/>
       <use xlink:href="#DejaVuSans-63" x="658.496094"/>
       <use xlink:href="#DejaVuSans-69" x="713.476562"/>
       <use xlink:href="#DejaVuSans-72" x="741.259766"/>
       <use xlink:href="#DejaVuSans-75" x="782.373047"/>
       <use xlink:href="#DejaVuSans-72" x="845.751953"/>
       <use xlink:href="#DejaVuSans-67" x="885.115234"/>
       <use xlink:href="#DejaVuSans-69" x="948.591797"/>
       <use xlink:href="#DejaVuSans-61" x="976.375"/>
      </g>
     </g>
    </g>
    <g id="xtick_13">
     <g id="line2d_13">
      <g>
       <use xlink:href="#mbdcaea2dea" x="317.374381" y="206.542798" style="stroke: #000000; stroke-width: 0.8"/>
      </g>
     </g>
     <g id="text_13">
      <!-- Doador Acessório -->
      <g transform="translate(310.155208 285.637714)rotate(-75)scale(0.0833 -0.0833)">
       <defs>
        <path id="DejaVuSans-41" d="M 2188 4044 
L 1331 1722 
L 3047 1722 
L 2188 4044 
z
M 1831 4666 
L 2547 4666 
L 4325 0 
L 3669 0 
L 3244 1197 
L 1141 1197 
L 716 0 
L 50 0 
L 1831 4666 
z
" transform="scale(0.015625)"/>
       </defs>
       <use xlink:href="#DejaVuSans-44"/>
       <use xlink:href="#DejaVuSans-6f" x="77.001953"/>
       <use xlink:href="#DejaVuSans-61" x="138.183594"/>
       <use xlink:href="#DejaVuSans-64" x="199.462891"/>
       <use xlink:href="#DejaVuSans-6f" x="262.939453"/>
       <use xlink:href="#DejaVuSans-72" x="324.121094"/>
       <use xlink:href="#DejaVuSans-20" x="365.234375"/>
       <use xlink:href="#DejaVuSans-41" x="397.021484"/>
       <use xlink:href="#DejaVuSans-63" x="463.679688"/>
       <use xlink:href="#DejaVuSans-65" x="518.660156"/>
       <use xlink:href="#DejaVuSans-73" x="580.183594"/>
       <use xlink:href="#DejaVuSans-73" x="632.283203"/>
       <use xlink:href="#DejaVuSans-f3" x="684.382812"/>
       <use xlink:href="#DejaVuSans-72" x="745.564453"/>
       <use xlink:href="#DejaVuSans-69" x="786.677734"/>
       <use xlink:href="#DejaVuSans-6f" x="814.460938"/>
      </g>
     </g>
    </g>
    <g id="xtick_14">
     <g id="line2d_14">
      <g>
       <use xlink:href="#mbdcaea2dea" x="337.247531" y="206.542798" style="stroke: #000000; stroke-width: 0.8"/>
      </g>
     </g>
     <g id="text_14">
      <!-- Doador Ulnar -->
      <g transform="translate(332.3125 268.588651)rotate(-75)scale(0.0833 -0.0833)">
       <defs>
        <path id="DejaVuSans-55" d="M 556 4666 
L 1191 4666 
L 1191 1831 
Q 1191 1081 1462 751 
Q 1734 422 2344 422 
Q 2950 422 3222 751 
Q 3494 1081 3494 1831 
L 3494 4666 
L 4128 4666 
L 4128 1753 
Q 4128 841 3676 375 
Q 3225 -91 2344 -91 
Q 1459 -91 1007 375 
Q 556 841 556 1753 
L 556 4666 
z
" transform="scale(0.015625)"/>
       </defs>
       <use xlink:href="#DejaVuSans-44"/>
       <use xlink:href="#DejaVuSans-6f" x="77.001953"/>
       <use xlink:href="#DejaVuSans-61" x="138.183594"/>
       <use xlink:href="#DejaVuSans-64" x="199.462891"/>
       <use xlink:href="#DejaVuSans-6f" x="262.939453"/>
       <use xlink:href="#DejaVuSans-72" x="324.121094"/>
       <use xlink:href="#DejaVuSans-20" x="365.234375"/>
       <use xlink:href="#DejaVuSans-55" x="397.021484"/>
       <use xlink:href="#DejaVuSans-6c" x="470.214844"/>
       <use xlink:href="#DejaVuSans-6e" x="497.998047"/>
       <use xlink:href="#DejaVuSans-61" x="561.376953"/>
       <use xlink:href="#DejaVuSans-72" x="622.65625"/>
      </g>
     </g>
    </g>
    <g id="xtick_15">
     <g id="line2d_15">
      <g>
       <use xlink:href="#mbdcaea2dea" x="357.120682" y="206.542798" style="stroke: #000000; stroke-width: 0.8"/>
      </g>
     </g>
     <g id="text_15">
      <!-- Doador Intercostal -->
      <g transform="translate(349.358476 289.690968)rotate(-75)scale(0.0833 -0.0833)">
       <use xlink:href="#DejaVuSans-44"/>
       <use xlink:href="#DejaVuSans-6f" x="77.001953"/>
       <use xlink:href="#DejaVuSans-61" x="138.183594"/>
       <use xlink:href="#DejaVuSans-64" x="199.462891"/>
       <use xlink:href="#DejaVuSans-6f" x="262.939453"/>
       <use xlink:href="#DejaVuSans-72" x="324.121094"/>
       <use xlink:href="#DejaVuSans-20" x="365.234375"/>
       <use xlink:href="#DejaVuSans-49" x="397.021484"/>
       <use xlink:href="#DejaVuSans-6e" x="426.513672"/>
       <use xlink:href="#DejaVuSans-74" x="489.892578"/>
       <use xlink:href="#DejaVuSans-65" x="529.101562"/>
       <use xlink:href="#DejaVuSans-72" x="590.625"/>
       <use xlink:href="#DejaVuSans-63" x="629.488281"/>
       <use xlink:href="#DejaVuSans-6f" x="684.46875"/>
       <use xlink:href="#DejaVuSans-73" x="745.650391"/>
       <use xlink:href="#DejaVuSans-74" x="797.75"/>
       <use xlink:href="#DejaVuSans-61" x="836.958984"/>
       <use xlink:href="#DejaVuSans-6c" x="898.238281"/>
      </g>
     </g>
    </g>
    <g id="xtick_16">
     <g id="line2d_16">
      <g>
       <use xlink:href="#mbdcaea2dea" x="376.993832" y="206.542798" style="stroke: #000000; stroke-width: 0.8"/>
      </g>
     </g>
     <g id="text_16">
      <!-- Doador Frênico -->
      <g transform="translate(371.075143 275.930774)rotate(-75)scale(0.0833 -0.0833)">
       <defs>
        <path id="DejaVuSans-ea" d="M 3597 1894 
L 3597 1613 
L 953 1613 
Q 991 1019 1311 708 
Q 1631 397 2203 397 
Q 2534 397 2845 478 
Q 3156 559 3463 722 
L 3463 178 
Q 3153 47 2828 -22 
Q 2503 -91 2169 -91 
Q 1331 -91 842 396 
Q 353 884 353 1716 
Q 353 2575 817 3079 
Q 1281 3584 2069 3584 
Q 2775 3584 3186 3129 
Q 3597 2675 3597 1894 
z
M 3022 2063 
Q 3016 2534 2758 2815 
Q 2500 3097 2075 3097 
Q 1594 3097 1305 2825 
Q 1016 2553 972 2059 
L 3022 2063 
z
M 1801 5119 
L 2263 5119 
L 3029 3944 
L 2595 3944 
L 2032 4709 
L 1470 3944 
L 1035 3944 
L 1801 5119 
z
" transform="scale(0.015625)"/>
       </defs>
       <use xlink:href="#DejaVuSans-44"/>
       <use xlink:href="#DejaVuSans-6f" x="77.001953"/>
       <use xlink:href="#DejaVuSans-61" x="138.183594"/>
       <use xlink:href="#DejaVuSans-64" x="199.462891"/>
       <use xlink:href="#DejaVuSans-6f" x="262.939453"/>
       <use xlink:href="#DejaVuSans-72" x="324.121094"/>
       <use xlink:href="#DejaVuSans-20" x="365.234375"/>
       <use xlink:href="#DejaVuSans-46" x="397.021484"/>
       <use xlink:href="#DejaVuSans-72" x="447.291016"/>
       <use xlink:href="#DejaVuSans-ea" x="486.154297"/>
       <use xlink:href="#DejaVuSans-6e" x="547.677734"/>
       <use xlink:href="#DejaVuSans-69" x="611.056641"/>
       <use xlink:href="#DejaVuSans-63" x="638.839844"/>
       <use xlink:href="#DejaVuSans-6f" x="693.820312"/>
      </g>
     </g>
    </g>
    <g id="xtick_17">
     <g id="line2d_17">
      <g>
       <use xlink:href="#mbdcaea2dea" x="396.866983" y="206.542798" style="stroke: #000000; stroke-width: 0.8"/>
      </g>
     </g>
     <g id="text_17">
      <!-- Receptor Supraescapular -->
      <g transform="translate(385.510551 316.518633)rotate(-75)scale(0.0833 -0.0833)">
       <defs>
        <path id="DejaVuSans-52" d="M 2841 2188 
Q 3044 2119 3236 1894 
Q 3428 1669 3622 1275 
L 4263 0 
L 3584 0 
L 2988 1197 
Q 2756 1666 2539 1819 
Q 2322 1972 1947 1972 
L 1259 1972 
L 1259 0 
L 628 0 
L 628 4666 
L 2053 4666 
Q 2853 4666 3247 4331 
Q 3641 3997 3641 3322 
Q 3641 2881 3436 2590 
Q 3231 2300 2841 2188 
z
M 1259 4147 
L 1259 2491 
L 2053 2491 
Q 2509 2491 2742 2702 
Q 2975 2913 2975 3322 
Q 2975 3731 2742 3939 
Q 2509 4147 2053 4147 
L 1259 4147 
z
" transform="scale(0.015625)"/>
       </defs>
       <use xlink:href="#DejaVuSans-52"/>
       <use xlink:href="#DejaVuSans-65" x="64.982422"/>
       <use xlink:href="#DejaVuSans-63" x="126.505859"/>
       <use xlink:href="#DejaVuSans-65" x="181.486328"/>
       <use xlink:href="#DejaVuSans-70" x="243.009766"/>
       <use xlink:href="#DejaVuSans-74" x="306.486328"/>
       <use xlink:href="#DejaVuSans-6f" x="345.695312"/>
       <use xlink:href="#DejaVuSans-72" x="406.876953"/>
       <use xlink:href="#DejaVuSans-20" x="447.990234"/>
       <use xlink:href="#DejaVuSans-53" x="479.777344"/>
       <use xlink:href="#DejaVuSans-75" x="543.253906"/>
       <use xlink:href="#DejaVuSans-70" x="606.632812"/>
       <use xlink:href="#DejaVuSans-72" x="670.109375"/>
       <use xlink:href="#DejaVuSans-61" x="711.222656"/>
       <use xlink:href="#DejaVuSans-65" x="772.501953"/>
       <use xlink:href="#DejaVuSans-73" x="834.025391"/>
       <use xlink:href="#DejaVuSans-63" x="886.125"/>
       <use xlink:href="#DejaVuSans-61" x="941.105469"/>
       <use xlink:href="#DejaVuSans-70" x="1002.384766"/>
       <use xlink:href="#DejaVuSans-75" x="1065.861328"/>
       <use xlink:href="#DejaVuSans-6c" x="1129.240234"/>
       <use xlink:href="#DejaVuSans-61" x="1157.023438"/>
       <use xlink:href="#DejaVuSans-72" x="1218.302734"/>
      </g>
     </g>
    </g>
    <g id="xtick_18">
     <g id="line2d_18">
      <g>
       <use xlink:href="#mbdcaea2dea" x="416.740133" y="206.542798" style="stroke: #000000; stroke-width: 0.8"/>
      </g>
     </g>
     <g id="text_18">
      <!-- Receptor Musculocutâneo -->
      <g transform="translate(405.174237 319.369483)rotate(-75)scale(0.0833 -0.0833)">
       <defs>
        <path id="DejaVuSans-e2" d="M 2194 1759 
Q 1497 1759 1228 1600 
Q 959 1441 959 1056 
Q 959 750 1161 570 
Q 1363 391 1709 391 
Q 2188 391 2477 730 
Q 2766 1069 2766 1631 
L 2766 1759 
L 2194 1759 
z
M 3341 1997 
L 3341 0 
L 2766 0 
L 2766 531 
Q 2569 213 2275 61 
Q 1981 -91 1556 -91 
Q 1019 -91 701 211 
Q 384 513 384 1019 
Q 384 1609 779 1909 
Q 1175 2209 1959 2209 
L 2766 2209 
L 2766 2266 
Q 2766 2663 2505 2880 
Q 2244 3097 1772 3097 
Q 1472 3097 1187 3025 
Q 903 2953 641 2809 
L 641 3341 
Q 956 3463 1253 3523 
Q 1550 3584 1831 3584 
Q 2591 3584 2966 3190 
Q 3341 2797 3341 1997 
z
M 1625 5119 
L 2087 5119 
L 2853 3944 
L 2419 3944 
L 1856 4709 
L 1294 3944 
L 859 3944 
L 1625 5119 
z
" transform="scale(0.015625)"/>
       </defs>
       <use xlink:href="#DejaVuSans-52"/>
       <use xlink:href="#DejaVuSans-65" x="64.982422"/>
       <use xlink:href="#DejaVuSans-63" x="126.505859"/>
       <use xlink:href="#DejaVuSans-65" x="181.486328"/>
       <use xlink:href="#DejaVuSans-70" x="243.009766"/>
       <use xlink:href="#DejaVuSans-74" x="306.486328"/>
       <use xlink:href="#DejaVuSans-6f" x="345.695312"/>
       <use xlink:href="#DejaVuSans-72" x="406.876953"/>
       <use xlink:href="#DejaVuSans-20" x="447.990234"/>
       <use xlink:href="#DejaVuSans-4d" x="479.777344"/>
       <use xlink:href="#DejaVuSans-75" x="566.056641"/>
       <use xlink:href="#DejaVuSans-73" x="629.435547"/>
       <use xlink:href="#DejaVuSans-63" x="681.535156"/>
       <use xlink:href="#DejaVuSans-75" x="736.515625"/>
       <use xlink:href="#DejaVuSans-6c" x="799.894531"/>
       <use xlink:href="#DejaVuSans-6f" x="827.677734"/>
       <use xlink:href="#DejaVuSans-63" x="888.859375"/>
       <use xlink:href="#DejaVuSans-75" x="943.839844"/>
       <use xlink:href="#DejaVuSans-74" x="1007.21875"/>
       <use xlink:href="#DejaVuSans-e2" x="1046.427734"/>
       <use xlink:href="#DejaVuSans-6e" x="1107.707031"/>
       <use xlink:href="#DejaVuSans-65" x="1171.085938"/>
       <use xlink:href="#DejaVuSans-6f" x="1232.609375"/>
      </g>
     </g>
    </g>
    <g id="xtick_19">
     <g id="line2d_19">
      <g>
       <use xlink:href="#mbdcaea2dea" x="436.613284" y="206.542798" style="stroke: #000000; stroke-width: 0.8"/>
      </g>
     </g>
     <g id="text_19">
      <!-- Receptor Axilar -->
      <g transform="translate(430.583259 276.761792)rotate(-75)scale(0.0833 -0.0833)">
       <use xlink:href="#DejaVuSans-52"/>
       <use xlink:href="#DejaVuSans-65" x="64.982422"/>
       <use xlink:href="#DejaVuSans-63" x="126.505859"/>
       <use xlink:href="#DejaVuSans-65" x="181.486328"/>
       <use xlink:href="#DejaVuSans-70" x="243.009766"/>
       <use xlink:href="#DejaVuSans-74" x="306.486328"/>
       <use xlink:href="#DejaVuSans-6f" x="345.695312"/>
       <use xlink:href="#DejaVuSans-72" x="406.876953"/>
       <use xlink:href="#DejaVuSans-20" x="447.990234"/>
       <use xlink:href="#DejaVuSans-41" x="479.777344"/>
       <use xlink:href="#DejaVuSans-78" x="548.185547"/>
       <use xlink:href="#DejaVuSans-69" x="607.365234"/>
       <use xlink:href="#DejaVuSans-6c" x="635.148438"/>
       <use xlink:href="#DejaVuSans-61" x="662.931641"/>
       <use xlink:href="#DejaVuSans-72" x="724.210938"/>
      </g>
     </g>
    </g>
    <g id="text_20">
     <!-- Atributo -->
     <g transform="translate(237.65493 331.416293)scale(0.1 -0.1)">
      <use xlink:href="#DejaVuSans-41"/>
      <use xlink:href="#DejaVuSans-74" x="66.658203"/>
      <use xlink:href="#DejaVuSans-72" x="105.867188"/>
      <use xlink:href="#DejaVuSans-69" x="146.980469"/>
      <use xlink:href="#DejaVuSans-62" x="174.763672"/>
      <use xlink:href="#DejaVuSans-75" x="238.240234"/>
      <use xlink:href="#DejaVuSans-74" x="301.619141"/>
      <use xlink:href="#DejaVuSans-6f" x="340.828125"/>
     </g>
    </g>
   </g>
   <g id="matplotlib.axis_2">
    <g id="ytick_1">
     <g id="line2d_20">
      <defs>
       <path id="mb8cb35c6e2" d="M 0 0 
L -3.5 0 
" style="stroke: #000000; stroke-width: 0.8"/>
      </defs>
      <g>
       <use xlink:href="#mb8cb35c6e2" x="68.96" y="181.715158" style="stroke: #000000; stroke-width: 0.8"/>
      </g>
     </g>
     <g id="text_21">
      <!-- −0.005 -->
      <g transform="translate(24.952188 185.514377)scale(0.1 -0.1)">
       <defs>
        <path id="DejaVuSans-2212" d="M 678 2272 
L 4684 2272 
L 4684 1741 
L 678 1741 
L 678 2272 
z
" transform="scale(0.015625)"/>
        <path id="DejaVuSans-2e" d="M 684 794 
L 1344 794 
L 1344 0 
L 684 0 
L 684 794 
z
" transform="scale(0.015625)"/>
        <path id="DejaVuSans-35" d="M 691 4666 
L 3169 4666 
L 3169 4134 
L 1269 4134 
L 1269 2991 
Q 1406 3038 1543 3061 
Q 1681 3084 1819 3084 
Q 2600 3084 3056 2656 
Q 3513 2228 3513 1497 
Q 3513 744 3044 326 
Q 2575 -91 1722 -91 
Q 1428 -91 1123 -41 
Q 819 9 494 109 
L 494 744 
Q 775 591 1075 516 
Q 1375 441 1709 441 
Q 2250 441 2565 725 
Q 2881 1009 2881 1497 
Q 2881 1984 2565 2268 
Q 2250 2553 1709 2553 
Q 1456 2553 1204 2497 
Q 953 2441 691 2322 
L 691 4666 
z
" transform="scale(0.015625)"/>
       </defs>
       <use xlink:href="#DejaVuSans-2212"/>
       <use xlink:href="#DejaVuSans-30" x="83.789062"/>
       <use xlink:href="#DejaVuSans-2e" x="147.412109"/>
       <use xlink:href="#DejaVuSans-30" x="179.199219"/>
       <use xlink:href="#DejaVuSans-30" x="242.822266"/>
       <use xlink:href="#DejaVuSans-35" x="306.445312"/>
      </g>
     </g>
    </g>
    <g id="ytick_2">
     <g id="line2d_21">
      <g>
       <use xlink:href="#mb8cb35c6e2" x="68.96" y="147.099935" style="stroke: #000000; stroke-width: 0.8"/>
      </g>
     </g>
     <g id="text_22">
      <!-- 0.000 -->
      <g transform="translate(33.331875 150.899153)scale(0.1 -0.1)">
       <use xlink:href="#DejaVuSans-30"/>
       <use xlink:href="#DejaVuSans-2e" x="63.623047"/>
       <use xlink:href="#DejaVuSans-30" x="95.410156"/>
       <use xlink:href="#DejaVuSans-30" x="159.033203"/>
       <use xlink:href="#DejaVuSans-30" x="222.65625"/>
      </g>
     </g>
    </g>
    <g id="ytick_3">
     <g id="line2d_22">
      <g>
       <use xlink:href="#mb8cb35c6e2" x="68.96" y="112.484711" style="stroke: #000000; stroke-width: 0.8"/>
      </g>
     </g>
     <g id="text_23">
      <!-- 0.005 -->
      <g transform="translate(33.331875 116.28393)scale(0.1 -0.1)">
       <use xlink:href="#DejaVuSans-30"/>
       <use xlink:href="#DejaVuSans-2e" x="63.623047"/>
       <use xlink:href="#DejaVuSans-30" x="95.410156"/>
       <use xlink:href="#DejaVuSans-30" x="159.033203"/>
       <use xlink:href="#DejaVuSans-35" x="222.65625"/>
      </g>
     </g>
    </g>
    <g id="ytick_4">
     <g id="line2d_23">
      <g>
       <use xlink:href="#mb8cb35c6e2" x="68.96" y="77.869488" style="stroke: #000000; stroke-width: 0.8"/>
      </g>
     </g>
     <g id="text_24">
      <!-- 0.010 -->
      <g transform="translate(33.331875 81.668707)scale(0.1 -0.1)">
       <defs>
        <path id="DejaVuSans-31" d="M 794 531 
L 1825 531 
L 1825 4091 
L 703 3866 
L 703 4441 
L 1819 4666 
L 2450 4666 
L 2450 531 
L 3481 531 
L 3481 0 
L 794 0 
L 794 531 
z
" transform="scale(0.015625)"/>
       </defs>
       <use xlink:href="#DejaVuSans-30"/>
       <use xlink:href="#DejaVuSans-2e" x="63.623047"/>
       <use xlink:href="#DejaVuSans-30" x="95.410156"/>
       <use xlink:href="#DejaVuSans-31" x="159.033203"/>
       <use xlink:href="#DejaVuSans-30" x="222.65625"/>
      </g>
     </g>
    </g>
    <g id="ytick_5">
     <g id="line2d_24">
      <g>
       <use xlink:href="#mb8cb35c6e2" x="68.96" y="43.254265" style="stroke: #000000; stroke-width: 0.8"/>
      </g>
     </g>
     <g id="text_25">
      <!-- 0.015 -->
      <g transform="translate(33.331875 47.053483)scale(0.1 -0.1)">
       <use xlink:href="#DejaVuSans-30"/>
       <use xlink:href="#DejaVuSans-2e" x="63.623047"/>
       <use xlink:href="#DejaVuSans-30" x="95.410156"/>
       <use xlink:href="#DejaVuSans-31" x="159.033203"/>
       <use xlink:href="#DejaVuSans-35" x="222.65625"/>
      </g>
     </g>
    </g>
    <g id="text_26">
     <!-- Importância -->
     <g transform="translate(18.8725 154.445086)rotate(-90)scale(0.1 -0.1)">
      <use xlink:href="#DejaVuSans-49"/>
      <use xlink:href="#DejaVuSans-6d" x="29.492188"/>
      <use xlink:href="#DejaVuSans-70" x="126.904297"/>
      <use xlink:href="#DejaVuSans-6f" x="190.380859"/>
      <use xlink:href="#DejaVuSans-72" x="251.5625"/>
      <use xlink:href="#DejaVuSans-74" x="292.675781"/>
      <use xlink:href="#DejaVuSans-e2" x="331.884766"/>
      <use xlink:href="#DejaVuSans-6e" x="393.164062"/>
      <use xlink:href="#DejaVuSans-63" x="456.542969"/>
      <use xlink:href="#DejaVuSans-69" x="511.523438"/>
      <use xlink:href="#DejaVuSans-61" x="539.306641"/>
     </g>
    </g>
   </g>
   <g id="line2d_25">
    <path d="M 73.928288 192.510376 
L 83.864863 192.510376 
L 83.864863 186.182761 
L 73.928288 186.182761 
L 73.928288 192.510376 
" clip-path="url(#p9c22b08c75)" style="fill: none; stroke: #000000; stroke-linecap: square"/>
   </g>
   <g id="line2d_26">
    <path d="M 78.896575 192.510376 
L 78.896575 199.076671 
" clip-path="url(#p9c22b08c75)" style="fill: none; stroke: #000000; stroke-linecap: square"/>
   </g>
   <g id="line2d_27">
    <path d="M 78.896575 186.182761 
L 78.896575 180.611098 
" clip-path="url(#p9c22b08c75)" style="fill: none; stroke: #000000; stroke-linecap: square"/>
   </g>
   <g id="line2d_28">
    <path d="M 76.412431 199.076671 
L 81.380719 199.076671 
" clip-path="url(#p9c22b08c75)" style="fill: none; stroke: #000000; stroke-linecap: square"/>
   </g>
   <g id="line2d_29">
    <path d="M 76.412431 180.611098 
L 81.380719 180.611098 
" clip-path="url(#p9c22b08c75)" style="fill: none; stroke: #000000; stroke-linecap: square"/>
   </g>
   <g id="line2d_30"/>
   <g id="line2d_31">
    <path d="M 93.801438 60.564157 
L 103.738013 60.564157 
L 103.738013 54.194052 
L 93.801438 54.194052 
L 93.801438 60.564157 
" clip-path="url(#p9c22b08c75)" style="fill: none; stroke: #000000; stroke-linecap: square"/>
   </g>
   <g id="line2d_32">
    <path d="M 98.769726 60.564157 
L 98.769726 66.679607 
" clip-path="url(#p9c22b08c75)" style="fill: none; stroke: #000000; stroke-linecap: square"/>
   </g>
   <g id="line2d_33">
    <path d="M 98.769726 54.194052 
L 98.769726 49.754127 
" clip-path="url(#p9c22b08c75)" style="fill: none; stroke: #000000; stroke-linecap: square"/>
   </g>
   <g id="line2d_34">
    <path d="M 96.285582 66.679607 
L 101.25387 66.679607 
" clip-path="url(#p9c22b08c75)" style="fill: none; stroke: #000000; stroke-linecap: square"/>
   </g>
   <g id="line2d_35">
    <path d="M 96.285582 49.754127 
L 101.25387 49.754127 
" clip-path="url(#p9c22b08c75)" style="fill: none; stroke: #000000; stroke-linecap: square"/>
   </g>
   <g id="line2d_36"/>
   <g id="line2d_37">
    <path d="M 113.674589 72.055034 
L 123.611164 72.055034 
L 123.611164 64.839665 
L 113.674589 64.839665 
L 113.674589 72.055034 
" clip-path="url(#p9c22b08c75)" style="fill: none; stroke: #000000; stroke-linecap: square"/>
   </g>
   <g id="line2d_38">
    <path d="M 118.642876 72.055034 
L 118.642876 81.133291 
" clip-path="url(#p9c22b08c75)" style="fill: none; stroke: #000000; stroke-linecap: square"/>
   </g>
   <g id="line2d_39">
    <path d="M 118.642876 64.839665 
L 118.642876 54.226238 
" clip-path="url(#p9c22b08c75)" style="fill: none; stroke: #000000; stroke-linecap: square"/>
   </g>
   <g id="line2d_40">
    <path d="M 116.158732 81.133291 
L 121.12702 81.133291 
" clip-path="url(#p9c22b08c75)" style="fill: none; stroke: #000000; stroke-linecap: square"/>
   </g>
   <g id="line2d_41">
    <path d="M 116.158732 54.226238 
L 121.12702 54.226238 
" clip-path="url(#p9c22b08c75)" style="fill: none; stroke: #000000; stroke-linecap: square"/>
   </g>
   <g id="line2d_42"/>
   <g id="line2d_43">
    <path d="M 133.547739 119.097995 
L 143.484314 119.097995 
L 143.484314 114.812277 
L 133.547739 114.812277 
L 133.547739 119.097995 
" clip-path="url(#p9c22b08c75)" style="fill: none; stroke: #000000; stroke-linecap: square"/>
   </g>
   <g id="line2d_44">
    <path d="M 138.516027 119.097995 
L 138.516027 125.315509 
" clip-path="url(#p9c22b08c75)" style="fill: none; stroke: #000000; stroke-linecap: square"/>
   </g>
   <g id="line2d_45">
    <path d="M 138.516027 114.812277 
L 138.516027 112.844188 
" clip-path="url(#p9c22b08c75)" style="fill: none; stroke: #000000; stroke-linecap: square"/>
   </g>
   <g id="line2d_46">
    <path d="M 136.031883 125.315509 
L 141.00017 125.315509 
" clip-path="url(#p9c22b08c75)" style="fill: none; stroke: #000000; stroke-linecap: square"/>
   </g>
   <g id="line2d_47">
    <path d="M 136.031883 112.844188 
L 141.00017 112.844188 
" clip-path="url(#p9c22b08c75)" style="fill: none; stroke: #000000; stroke-linecap: square"/>
   </g>
   <g id="line2d_48"/>
   <g id="line2d_49">
    <path d="M 153.42089 136.617417 
L 163.357465 136.617417 
L 163.357465 130.220136 
L 153.42089 130.220136 
L 153.42089 136.617417 
" clip-path="url(#p9c22b08c75)" style="fill: none; stroke: #000000; stroke-linecap: square"/>
   </g>
   <g id="line2d_50">
    <path d="M 158.389177 136.617417 
L 158.389177 138.634623 
" clip-path="url(#p9c22b08c75)" style="fill: none; stroke: #000000; stroke-linecap: square"/>
   </g>
   <g id="line2d_51">
    <path d="M 158.389177 130.220136 
L 158.389177 122.756613 
" clip-path="url(#p9c22b08c75)" style="fill: none; stroke: #000000; stroke-linecap: square"/>
   </g>
   <g id="line2d_52">
    <path d="M 155.905033 138.634623 
L 160.873321 138.634623 
" clip-path="url(#p9c22b08c75)" style="fill: none; stroke: #000000; stroke-linecap: square"/>
   </g>
   <g id="line2d_53">
    <path d="M 155.905033 122.756613 
L 160.873321 122.756613 
" clip-path="url(#p9c22b08c75)" style="fill: none; stroke: #000000; stroke-linecap: square"/>
   </g>
   <g id="line2d_54"/>
   <g id="line2d_55">
    <path d="M 173.29404 154.573574 
L 183.230615 154.573574 
L 183.230615 152.980359 
L 173.29404 152.980359 
L 173.29404 154.573574 
" clip-path="url(#p9c22b08c75)" style="fill: none; stroke: #000000; stroke-linecap: square"/>
   </g>
   <g id="line2d_56">
    <path d="M 178.262328 154.573574 
L 178.262328 156.36255 
" clip-path="url(#p9c22b08c75)" style="fill: none; stroke: #000000; stroke-linecap: square"/>
   </g>
   <g id="line2d_57">
    <path d="M 178.262328 152.980359 
L 178.262328 151.423713 
" clip-path="url(#p9c22b08c75)" style="fill: none; stroke: #000000; stroke-linecap: square"/>
   </g>
   <g id="line2d_58">
    <path d="M 175.778184 156.36255 
L 180.746471 156.36255 
" clip-path="url(#p9c22b08c75)" style="fill: none; stroke: #000000; stroke-linecap: square"/>
   </g>
   <g id="line2d_59">
    <path d="M 175.778184 151.423713 
L 180.746471 151.423713 
" clip-path="url(#p9c22b08c75)" style="fill: none; stroke: #000000; stroke-linecap: square"/>
   </g>
   <g id="line2d_60"/>
   <g id="line2d_61">
    <path d="M 193.16719 147.695356 
L 203.103766 147.695356 
L 203.103766 147.442428 
L 193.16719 147.442428 
L 193.16719 147.695356 
" clip-path="url(#p9c22b08c75)" style="fill: none; stroke: #000000; stroke-linecap: square"/>
   </g>
   <g id="line2d_62">
    <path d="M 198.135478 147.695356 
L 198.135478 147.973784 
" clip-path="url(#p9c22b08c75)" style="fill: none; stroke: #000000; stroke-linecap: square"/>
   </g>
   <g id="line2d_63">
    <path d="M 198.135478 147.442428 
L 198.135478 147.352874 
" clip-path="url(#p9c22b08c75)" style="fill: none; stroke: #000000; stroke-linecap: square"/>
   </g>
   <g id="line2d_64">
    <path d="M 195.651334 147.973784 
L 200.619622 147.973784 
" clip-path="url(#p9c22b08c75)" style="fill: none; stroke: #000000; stroke-linecap: square"/>
   </g>
   <g id="line2d_65">
    <path d="M 195.651334 147.352874 
L 200.619622 147.352874 
" clip-path="url(#p9c22b08c75)" style="fill: none; stroke: #000000; stroke-linecap: square"/>
   </g>
   <g id="line2d_66">
    <defs>
     <path id="mda6cde3caf" d="M 0 3 
C 0.795609 3 1.55874 2.683901 2.12132 2.12132 
C 2.683901 1.55874 3 0.795609 3 0 
C 3 -0.795609 2.683901 -1.55874 2.12132 -2.12132 
C 1.55874 -2.683901 0.795609 -3 0 -3 
C -0.795609 -3 -1.55874 -2.683901 -2.12132 -2.12132 
C -2.683901 -1.55874 -3 -0.795609 -3 0 
C -3 0.795609 -2.683901 1.55874 -2.12132 2.12132 
C -1.55874 2.683901 -0.795609 3 0 3 
z
" style="stroke: #000000"/>
    </defs>
    <g clip-path="url(#p9c22b08c75)">
     <use xlink:href="#mda6cde3caf" x="198.135478" y="147.061299" style="fill-opacity: 0; stroke: #000000"/>
    </g>
   </g>
   <g id="line2d_67">
    <path d="M 213.040341 149.125859 
L 222.976916 149.125859 
L 222.976916 148.355099 
L 213.040341 148.355099 
L 213.040341 149.125859 
" clip-path="url(#p9c22b08c75)" style="fill: none; stroke: #000000; stroke-linecap: square"/>
   </g>
   <g id="line2d_68">
    <path d="M 218.008629 149.125859 
L 218.008629 149.662165 
" clip-path="url(#p9c22b08c75)" style="fill: none; stroke: #000000; stroke-linecap: square"/>
   </g>
   <g id="line2d_69">
    <path d="M 218.008629 148.355099 
L 218.008629 147.65535 
" clip-path="url(#p9c22b08c75)" style="fill: none; stroke: #000000; stroke-linecap: square"/>
   </g>
   <g id="line2d_70">
    <path d="M 215.524485 149.662165 
L 220.492772 149.662165 
" clip-path="url(#p9c22b08c75)" style="fill: none; stroke: #000000; stroke-linecap: square"/>
   </g>
   <g id="line2d_71">
    <path d="M 215.524485 147.65535 
L 220.492772 147.65535 
" clip-path="url(#p9c22b08c75)" style="fill: none; stroke: #000000; stroke-linecap: square"/>
   </g>
   <g id="line2d_72"/>
   <g id="line2d_73">
    <path d="M 232.913491 148.239498 
L 242.850067 148.239498 
L 242.850067 147.466881 
L 232.913491 147.466881 
L 232.913491 148.239498 
" clip-path="url(#p9c22b08c75)" style="fill: none; stroke: #000000; stroke-linecap: square"/>
   </g>
   <g id="line2d_74">
    <path d="M 237.881779 148.239498 
L 237.881779 148.635862 
" clip-path="url(#p9c22b08c75)" style="fill: none; stroke: #000000; stroke-linecap: square"/>
   </g>
   <g id="line2d_75">
    <path d="M 237.881779 147.466881 
L 237.881779 147.057495 
" clip-path="url(#p9c22b08c75)" style="fill: none; stroke: #000000; stroke-linecap: square"/>
   </g>
   <g id="line2d_76">
    <path d="M 235.397635 148.635862 
L 240.365923 148.635862 
" clip-path="url(#p9c22b08c75)" style="fill: none; stroke: #000000; stroke-linecap: square"/>
   </g>
   <g id="line2d_77">
    <path d="M 235.397635 147.057495 
L 240.365923 147.057495 
" clip-path="url(#p9c22b08c75)" style="fill: none; stroke: #000000; stroke-linecap: square"/>
   </g>
   <g id="line2d_78"/>
   <g id="line2d_79">
    <path d="M 252.786642 121.812225 
L 262.723217 121.812225 
L 262.723217 117.839278 
L 252.786642 117.839278 
L 252.786642 121.812225 
" clip-path="url(#p9c22b08c75)" style="fill: none; stroke: #000000; stroke-linecap: square"/>
   </g>
   <g id="line2d_80">
    <path d="M 257.75493 121.812225 
L 257.75493 124.579135 
" clip-path="url(#p9c22b08c75)" style="fill: none; stroke: #000000; stroke-linecap: square"/>
   </g>
   <g id="line2d_81">
    <path d="M 257.75493 117.839278 
L 257.75493 116.649897 
" clip-path="url(#p9c22b08c75)" style="fill: none; stroke: #000000; stroke-linecap: square"/>
   </g>
   <g id="line2d_82">
    <path d="M 255.270786 124.579135 
L 260.239073 124.579135 
" clip-path="url(#p9c22b08c75)" style="fill: none; stroke: #000000; stroke-linecap: square"/>
   </g>
   <g id="line2d_83">
    <path d="M 255.270786 116.649897 
L 260.239073 116.649897 
" clip-path="url(#p9c22b08c75)" style="fill: none; stroke: #000000; stroke-linecap: square"/>
   </g>
   <g id="line2d_84"/>
   <g id="line2d_85">
    <path d="M 272.659792 158.629253 
L 282.596368 158.629253 
L 282.596368 154.408891 
L 272.659792 154.408891 
L 272.659792 158.629253 
" clip-path="url(#p9c22b08c75)" style="fill: none; stroke: #000000; stroke-linecap: square"/>
   </g>
   <g id="line2d_86">
    <path d="M 277.62808 158.629253 
L 277.62808 160.718339 
" clip-path="url(#p9c22b08c75)" style="fill: none; stroke: #000000; stroke-linecap: square"/>
   </g>
   <g id="line2d_87">
    <path d="M 277.62808 154.408891 
L 277.62808 150.914766 
" clip-path="url(#p9c22b08c75)" style="fill: none; stroke: #000000; stroke-linecap: square"/>
   </g>
   <g id="line2d_88">
    <path d="M 275.143936 160.718339 
L 280.112224 160.718339 
" clip-path="url(#p9c22b08c75)" style="fill: none; stroke: #000000; stroke-linecap: square"/>
   </g>
   <g id="line2d_89">
    <path d="M 275.143936 150.914766 
L 280.112224 150.914766 
" clip-path="url(#p9c22b08c75)" style="fill: none; stroke: #000000; stroke-linecap: square"/>
   </g>
   <g id="line2d_90"/>
   <g id="line2d_91">
    <path d="M 292.532943 176.170462 
L 302.469518 176.170462 
L 302.469518 172.520892 
L 292.532943 172.520892 
L 292.532943 176.170462 
" clip-path="url(#p9c22b08c75)" style="fill: none; stroke: #000000; stroke-linecap: square"/>
   </g>
   <g id="line2d_92">
    <path d="M 297.501231 176.170462 
L 297.501231 181.483188 
" clip-path="url(#p9c22b08c75)" style="fill: none; stroke: #000000; stroke-linecap: square"/>
   </g>
   <g id="line2d_93">
    <path d="M 297.501231 172.520892 
L 297.501231 169.178641 
" clip-path="url(#p9c22b08c75)" style="fill: none; stroke: #000000; stroke-linecap: square"/>
   </g>
   <g id="line2d_94">
    <path d="M 295.017087 181.483188 
L 299.985374 181.483188 
" clip-path="url(#p9c22b08c75)" style="fill: none; stroke: #000000; stroke-linecap: square"/>
   </g>
   <g id="line2d_95">
    <path d="M 295.017087 169.178641 
L 299.985374 169.178641 
" clip-path="url(#p9c22b08c75)" style="fill: none; stroke: #000000; stroke-linecap: square"/>
   </g>
   <g id="line2d_96">
    <g clip-path="url(#p9c22b08c75)">
     <use xlink:href="#mda6cde3caf" x="297.501231" y="184.663677" style="fill-opacity: 0; stroke: #000000"/>
    </g>
   </g>
   <g id="line2d_97">
    <path d="M 312.406093 76.328626 
L 322.342669 76.328626 
L 322.342669 70.784575 
L 312.406093 70.784575 
L 312.406093 76.328626 
" clip-path="url(#p9c22b08c75)" style="fill: none; stroke: #000000; stroke-linecap: square"/>
   </g>
   <g id="line2d_98">
    <path d="M 317.374381 76.328626 
L 317.374381 79.901284 
" clip-path="url(#p9c22b08c75)" style="fill: none; stroke: #000000; stroke-linecap: square"/>
   </g>
   <g id="line2d_99">
    <path d="M 317.374381 70.784575 
L 317.374381 64.044861 
" clip-path="url(#p9c22b08c75)" style="fill: none; stroke: #000000; stroke-linecap: square"/>
   </g>
   <g id="line2d_100">
    <path d="M 314.890237 79.901284 
L 319.858525 79.901284 
" clip-path="url(#p9c22b08c75)" style="fill: none; stroke: #000000; stroke-linecap: square"/>
   </g>
   <g id="line2d_101">
    <path d="M 314.890237 64.044861 
L 319.858525 64.044861 
" clip-path="url(#p9c22b08c75)" style="fill: none; stroke: #000000; stroke-linecap: square"/>
   </g>
   <g id="line2d_102"/>
   <g id="line2d_103">
    <path d="M 332.279244 102.702514 
L 342.215819 102.702514 
L 342.215819 98.612438 
L 332.279244 98.612438 
L 332.279244 102.702514 
" clip-path="url(#p9c22b08c75)" style="fill: none; stroke: #000000; stroke-linecap: square"/>
   </g>
   <g id="line2d_104">
    <path d="M 337.247531 102.702514 
L 337.247531 104.806103 
" clip-path="url(#p9c22b08c75)" style="fill: none; stroke: #000000; stroke-linecap: square"/>
   </g>
   <g id="line2d_105">
    <path d="M 337.247531 98.612438 
L 337.247531 94.934423 
" clip-path="url(#p9c22b08c75)" style="fill: none; stroke: #000000; stroke-linecap: square"/>
   </g>
   <g id="line2d_106">
    <path d="M 334.763388 104.806103 
L 339.731675 104.806103 
" clip-path="url(#p9c22b08c75)" style="fill: none; stroke: #000000; stroke-linecap: square"/>
   </g>
   <g id="line2d_107">
    <path d="M 334.763388 94.934423 
L 339.731675 94.934423 
" clip-path="url(#p9c22b08c75)" style="fill: none; stroke: #000000; stroke-linecap: square"/>
   </g>
   <g id="line2d_108"/>
   <g id="line2d_109">
    <path d="M 352.152394 94.247423 
L 362.08897 94.247423 
L 362.08897 91.14592 
L 352.152394 91.14592 
L 352.152394 94.247423 
" clip-path="url(#p9c22b08c75)" style="fill: none; stroke: #000000; stroke-linecap: square"/>
   </g>
   <g id="line2d_110">
    <path d="M 357.120682 94.247423 
L 357.120682 97.221091 
" clip-path="url(#p9c22b08c75)" style="fill: none; stroke: #000000; stroke-linecap: square"/>
   </g>
   <g id="line2d_111">
    <path d="M 357.120682 91.14592 
L 357.120682 88.314315 
" clip-path="url(#p9c22b08c75)" style="fill: none; stroke: #000000; stroke-linecap: square"/>
   </g>
   <g id="line2d_112">
    <path d="M 354.636538 97.221091 
L 359.604826 97.221091 
" clip-path="url(#p9c22b08c75)" style="fill: none; stroke: #000000; stroke-linecap: square"/>
   </g>
   <g id="line2d_113">
    <path d="M 354.636538 88.314315 
L 359.604826 88.314315 
" clip-path="url(#p9c22b08c75)" style="fill: none; stroke: #000000; stroke-linecap: square"/>
   </g>
   <g id="line2d_114"/>
   <g id="line2d_115">
    <path d="M 372.025545 144.303939 
L 381.96212 144.303939 
L 381.96212 142.476003 
L 372.025545 142.476003 
L 372.025545 144.303939 
" clip-path="url(#p9c22b08c75)" style="fill: none; stroke: #000000; stroke-linecap: square"/>
   </g>
   <g id="line2d_116">
    <path d="M 376.993832 144.303939 
L 376.993832 146.268654 
" clip-path="url(#p9c22b08c75)" style="fill: none; stroke: #000000; stroke-linecap: square"/>
   </g>
   <g id="line2d_117">
    <path d="M 376.993832 142.476003 
L 376.993832 141.50376 
" clip-path="url(#p9c22b08c75)" style="fill: none; stroke: #000000; stroke-linecap: square"/>
   </g>
   <g id="line2d_118">
    <path d="M 374.509689 146.268654 
L 379.477976 146.268654 
" clip-path="url(#p9c22b08c75)" style="fill: none; stroke: #000000; stroke-linecap: square"/>
   </g>
   <g id="line2d_119">
    <path d="M 374.509689 141.50376 
L 379.477976 141.50376 
" clip-path="url(#p9c22b08c75)" style="fill: none; stroke: #000000; stroke-linecap: square"/>
   </g>
   <g id="line2d_120">
    <g clip-path="url(#p9c22b08c75)">
     <use xlink:href="#mda6cde3caf" x="376.993832" y="139.133502" style="fill-opacity: 0; stroke: #000000"/>
    </g>
   </g>
   <g id="line2d_121">
    <path d="M 391.898695 145.15555 
L 401.835271 145.15555 
L 401.835271 141.464985 
L 391.898695 141.464985 
L 391.898695 145.15555 
" clip-path="url(#p9c22b08c75)" style="fill: none; stroke: #000000; stroke-linecap: square"/>
   </g>
   <g id="line2d_122">
    <path d="M 396.866983 145.15555 
L 396.866983 147.556717 
" clip-path="url(#p9c22b08c75)" style="fill: none; stroke: #000000; stroke-linecap: square"/>
   </g>
   <g id="line2d_123">
    <path d="M 396.866983 141.464985 
L 396.866983 136.017585 
" clip-path="url(#p9c22b08c75)" style="fill: none; stroke: #000000; stroke-linecap: square"/>
   </g>
   <g id="line2d_124">
    <path d="M 394.382839 147.556717 
L 399.351127 147.556717 
" clip-path="url(#p9c22b08c75)" style="fill: none; stroke: #000000; stroke-linecap: square"/>
   </g>
   <g id="line2d_125">
    <path d="M 394.382839 136.017585 
L 399.351127 136.017585 
" clip-path="url(#p9c22b08c75)" style="fill: none; stroke: #000000; stroke-linecap: square"/>
   </g>
   <g id="line2d_126">
    <g clip-path="url(#p9c22b08c75)">
     <use xlink:href="#mda6cde3caf" x="396.866983" y="135.74379" style="fill-opacity: 0; stroke: #000000"/>
    </g>
   </g>
   <g id="line2d_127">
    <path d="M 411.771846 115.138833 
L 421.708421 115.138833 
L 421.708421 112.028724 
L 411.771846 112.028724 
L 411.771846 115.138833 
" clip-path="url(#p9c22b08c75)" style="fill: none; stroke: #000000; stroke-linecap: square"/>
   </g>
   <g id="line2d_128">
    <path d="M 416.740133 115.138833 
L 416.740133 119.788183 
" clip-path="url(#p9c22b08c75)" style="fill: none; stroke: #000000; stroke-linecap: square"/>
   </g>
   <g id="line2d_129">
    <path d="M 416.740133 112.028724 
L 416.740133 107.389575 
" clip-path="url(#p9c22b08c75)" style="fill: none; stroke: #000000; stroke-linecap: square"/>
   </g>
   <g id="line2d_130">
    <path d="M 414.25599 119.788183 
L 419.224277 119.788183 
" clip-path="url(#p9c22b08c75)" style="fill: none; stroke: #000000; stroke-linecap: square"/>
   </g>
   <g id="line2d_131">
    <path d="M 414.25599 107.389575 
L 419.224277 107.389575 
" clip-path="url(#p9c22b08c75)" style="fill: none; stroke: #000000; stroke-linecap: square"/>
   </g>
   <g id="line2d_132"/>
   <g id="line2d_133">
    <path d="M 431.644996 102.516337 
L 441.581571 102.516337 
L 441.581571 100.025084 
L 431.644996 100.025084 
L 431.644996 102.516337 
" clip-path="url(#p9c22b08c75)" style="fill: none; stroke: #000000; stroke-linecap: square"/>
   </g>
   <g id="line2d_134">
    <path d="M 436.613284 102.516337 
L 436.613284 105.093238 
" clip-path="url(#p9c22b08c75)" style="fill: none; stroke: #000000; stroke-linecap: square"/>
   </g>
   <g id="line2d_135">
    <path d="M 436.613284 100.025084 
L 436.613284 97.44987 
" clip-path="url(#p9c22b08c75)" style="fill: none; stroke: #000000; stroke-linecap: square"/>
   </g>
   <g id="line2d_136">
    <path d="M 434.12914 105.093238 
L 439.097428 105.093238 
" clip-path="url(#p9c22b08c75)" style="fill: none; stroke: #000000; stroke-linecap: square"/>
   </g>
   <g id="line2d_137">
    <path d="M 434.12914 97.44987 
L 439.097428 97.44987 
" clip-path="url(#p9c22b08c75)" style="fill: none; stroke: #000000; stroke-linecap: square"/>
   </g>
   <g id="line2d_138">
    <g clip-path="url(#p9c22b08c75)">
     <use xlink:href="#mda6cde3caf" x="436.613284" y="106.557947" style="fill-opacity: 0; stroke: #000000"/>
    </g>
   </g>
   <g id="line2d_139">
    <path d="M 73.928288 189.776319 
L 83.864863 189.776319 
" clip-path="url(#p9c22b08c75)" style="fill: none; stroke: #ff7f0e; stroke-linecap: square"/>
   </g>
   <g id="line2d_140">
    <path d="M 93.801438 57.326033 
L 103.738013 57.326033 
" clip-path="url(#p9c22b08c75)" style="fill: none; stroke: #ff7f0e; stroke-linecap: square"/>
   </g>
   <g id="line2d_141">
    <path d="M 113.674589 69.006237 
L 123.611164 69.006237 
" clip-path="url(#p9c22b08c75)" style="fill: none; stroke: #ff7f0e; stroke-linecap: square"/>
   </g>
   <g id="line2d_142">
    <path d="M 133.547739 117.062406 
L 143.484314 117.062406 
" clip-path="url(#p9c22b08c75)" style="fill: none; stroke: #ff7f0e; stroke-linecap: square"/>
   </g>
   <g id="line2d_143">
    <path d="M 153.42089 132.717966 
L 163.357465 132.717966 
" clip-path="url(#p9c22b08c75)" style="fill: none; stroke: #ff7f0e; stroke-linecap: square"/>
   </g>
   <g id="line2d_144">
    <path d="M 173.29404 153.801307 
L 183.230615 153.801307 
" clip-path="url(#p9c22b08c75)" style="fill: none; stroke: #ff7f0e; stroke-linecap: square"/>
   </g>
   <g id="line2d_145">
    <path d="M 193.16719 147.607235 
L 203.103766 147.607235 
" clip-path="url(#p9c22b08c75)" style="fill: none; stroke: #ff7f0e; stroke-linecap: square"/>
   </g>
   <g id="line2d_146">
    <path d="M 213.040341 148.696907 
L 222.976916 148.696907 
" clip-path="url(#p9c22b08c75)" style="fill: none; stroke: #ff7f0e; stroke-linecap: square"/>
   </g>
   <g id="line2d_147">
    <path d="M 232.913491 147.835196 
L 242.850067 147.835196 
" clip-path="url(#p9c22b08c75)" style="fill: none; stroke: #ff7f0e; stroke-linecap: square"/>
   </g>
   <g id="line2d_148">
    <path d="M 252.786642 119.495965 
L 262.723217 119.495965 
" clip-path="url(#p9c22b08c75)" style="fill: none; stroke: #ff7f0e; stroke-linecap: square"/>
   </g>
   <g id="line2d_149">
    <path d="M 272.659792 157.827292 
L 282.596368 157.827292 
" clip-path="url(#p9c22b08c75)" style="fill: none; stroke: #ff7f0e; stroke-linecap: square"/>
   </g>
   <g id="line2d_150">
    <path d="M 292.532943 174.62932 
L 302.469518 174.62932 
" clip-path="url(#p9c22b08c75)" style="fill: none; stroke: #ff7f0e; stroke-linecap: square"/>
   </g>
   <g id="line2d_151">
    <path d="M 312.406093 72.86544 
L 322.342669 72.86544 
" clip-path="url(#p9c22b08c75)" style="fill: none; stroke: #ff7f0e; stroke-linecap: square"/>
   </g>
   <g id="line2d_152">
    <path d="M 332.279244 100.435421 
L 342.215819 100.435421 
" clip-path="url(#p9c22b08c75)" style="fill: none; stroke: #ff7f0e; stroke-linecap: square"/>
   </g>
   <g id="line2d_153">
    <path d="M 352.152394 92.872376 
L 362.08897 92.872376 
" clip-path="url(#p9c22b08c75)" style="fill: none; stroke: #ff7f0e; stroke-linecap: square"/>
   </g>
   <g id="line2d_154">
    <path d="M 372.025545 143.409904 
L 381.96212 143.409904 
" clip-path="url(#p9c22b08c75)" style="fill: none; stroke: #ff7f0e; stroke-linecap: square"/>
   </g>
   <g id="line2d_155">
    <path d="M 391.898695 143.150168 
L 401.835271 143.150168 
" clip-path="url(#p9c22b08c75)" style="fill: none; stroke: #ff7f0e; stroke-linecap: square"/>
   </g>
   <g id="line2d_156">
    <path d="M 411.771846 114.280179 
L 421.708421 114.280179 
" clip-path="url(#p9c22b08c75)" style="fill: none; stroke: #ff7f0e; stroke-linecap: square"/>
   </g>
   <g id="line2d_157">
    <path d="M 431.644996 100.950482 
L 441.581571 100.950482 
" clip-path="url(#p9c22b08c75)" style="fill: none; stroke: #ff7f0e; stroke-linecap: square"/>
   </g>
   <g id="patch_3">
    <path d="M 68.96 206.542798 
L 68.96 42.288 
" style="fill: none; stroke: #000000; stroke-width: 0.8; stroke-linejoin: miter; stroke-linecap: square"/>
   </g>
   <g id="patch_4">
    <path d="M 446.549859 206.542798 
L 446.549859 42.288 
" style="fill: none; stroke: #000000; stroke-width: 0.8; stroke-linejoin: miter; stroke-linecap: square"/>
   </g>
   <g id="patch_5">
    <path d="M 68.96 206.542798 
L 446.549859 206.542798 
" style="fill: none; stroke: #000000; stroke-width: 0.8; stroke-linejoin: miter; stroke-linecap: square"/>
   </g>
   <g id="patch_6">
    <path d="M 68.96 42.288 
L 446.549859 42.288 
" style="fill: none; stroke: #000000; stroke-width: 0.8; stroke-linejoin: miter; stroke-linecap: square"/>
   </g>
   <g id="text_27">
    <!-- Abdução do Ombro - Todos Atributos -->
    <g transform="translate(147.856492 22.274625)scale(0.12 -0.12)">
     <defs>
      <path id="DejaVuSans-4f" d="M 2522 4238 
Q 1834 4238 1429 3725 
Q 1025 3213 1025 2328 
Q 1025 1447 1429 934 
Q 1834 422 2522 422 
Q 3209 422 3611 934 
Q 4013 1447 4013 2328 
Q 4013 3213 3611 3725 
Q 3209 4238 2522 4238 
z
M 2522 4750 
Q 3503 4750 4090 4092 
Q 4678 3434 4678 2328 
Q 4678 1225 4090 567 
Q 3503 -91 2522 -91 
Q 1538 -91 948 565 
Q 359 1222 359 2328 
Q 359 3434 948 4092 
Q 1538 4750 2522 4750 
z
" transform="scale(0.015625)"/>
      <path id="DejaVuSans-2d" d="M 313 2009 
L 1997 2009 
L 1997 1497 
L 313 1497 
L 313 2009 
z
" transform="scale(0.015625)"/>
      <path id="DejaVuSans-54" d="M -19 4666 
L 3928 4666 
L 3928 4134 
L 2272 4134 
L 2272 0 
L 1638 0 
L 1638 4134 
L -19 4134 
L -19 4666 
z
" transform="scale(0.015625)"/>
     </defs>
     <use xlink:href="#DejaVuSans-41"/>
     <use xlink:href="#DejaVuSans-62" x="68.408203"/>
     <use xlink:href="#DejaVuSans-64" x="131.884766"/>
     <use xlink:href="#DejaVuSans-75" x="195.361328"/>
     <use xlink:href="#DejaVuSans-e7" x="258.740234"/>
     <use xlink:href="#DejaVuSans-e3" x="313.720703"/>
     <use xlink:href="#DejaVuSans-6f" x="375"/>
     <use xlink:href="#DejaVuSans-20" x="436.181641"/>
     <use xlink:href="#DejaVuSans-64" x="467.96875"/>
     <use xlink:href="#DejaVuSans-6f" x="531.445312"/>
     <use xlink:href="#DejaVuSans-20" x="592.626953"/>
     <use xlink:href="#DejaVuSans-4f" x="624.414062"/>
     <use xlink:href="#DejaVuSans-6d" x="703.125"/>
     <use xlink:href="#DejaVuSans-62" x="800.537109"/>
     <use xlink:href="#DejaVuSans-72" x="864.013672"/>
     <use xlink:href="#DejaVuSans-6f" x="902.876953"/>
     <use xlink:href="#DejaVuSans-20" x="964.058594"/>
     <use xlink:href="#DejaVuSans-2d" x="995.845703"/>
     <use xlink:href="#DejaVuSans-20" x="1031.929688"/>
     <use xlink:href="#DejaVuSans-54" x="1063.716797"/>
     <use xlink:href="#DejaVuSans-6f" x="1107.800781"/>
     <use xlink:href="#DejaVuSans-64" x="1168.982422"/>
     <use xlink:href="#DejaVuSans-6f" x="1232.458984"/>
     <use xlink:href="#DejaVuSans-73" x="1293.640625"/>
     <use xlink:href="#DejaVuSans-20" x="1345.740234"/>
     <use xlink:href="#DejaVuSans-41" x="1377.527344"/>
     <use xlink:href="#DejaVuSans-74" x="1444.185547"/>
     <use xlink:href="#DejaVuSans-72" x="1483.394531"/>
     <use xlink:href="#DejaVuSans-69" x="1524.507812"/>
     <use xlink:href="#DejaVuSans-62" x="1552.291016"/>
     <use xlink:href="#DejaVuSans-75" x="1615.767578"/>
     <use xlink:href="#DejaVuSans-74" x="1679.146484"/>
     <use xlink:href="#DejaVuSans-6f" x="1718.355469"/>
     <use xlink:href="#DejaVuSans-73" x="1779.537109"/>
    </g>
    <!-- Importância dos Atributos -->
    <g transform="translate(180.053992 36.288)scale(0.12 -0.12)">
     <use xlink:href="#DejaVuSans-49"/>
     <use xlink:href="#DejaVuSans-6d" x="29.492188"/>
     <use xlink:href="#DejaVuSans-70" x="126.904297"/>
     <use xlink:href="#DejaVuSans-6f" x="190.380859"/>
     <use xlink:href="#DejaVuSans-72" x="251.5625"/>
     <use xlink:href="#DejaVuSans-74" x="292.675781"/>
     <use xlink:href="#DejaVuSans-e2" x="331.884766"/>
     <use xlink:href="#DejaVuSans-6e" x="393.164062"/>
     <use xlink:href="#DejaVuSans-63" x="456.542969"/>
     <use xlink:href="#DejaVuSans-69" x="511.523438"/>
     <use xlink:href="#DejaVuSans-61" x="539.306641"/>
     <use xlink:href="#DejaVuSans-20" x="600.585938"/>
     <use xlink:href="#DejaVuSans-64" x="632.373047"/>
     <use xlink:href="#DejaVuSans-6f" x="695.849609"/>
     <use xlink:href="#DejaVuSans-73" x="757.03125"/>
     <use xlink:href="#DejaVuSans-20" x="809.130859"/>
     <use xlink:href="#DejaVuSans-41" x="840.917969"/>
     <use xlink:href="#DejaVuSans-74" x="907.576172"/>
     <use xlink:href="#DejaVuSans-72" x="946.785156"/>
     <use xlink:href="#DejaVuSans-69" x="987.898438"/>
     <use xlink:href="#DejaVuSans-62" x="1015.681641"/>
     <use xlink:href="#DejaVuSans-75" x="1079.158203"/>
     <use xlink:href="#DejaVuSans-74" x="1142.537109"/>
     <use xlink:href="#DejaVuSans-6f" x="1181.746094"/>
     <use xlink:href="#DejaVuSans-73" x="1242.927734"/>
    </g>
   </g>
  </g>
 </g>
 <defs>
  <clipPath id="p9c22b08c75">
   <rect x="68.96" y="42.288" width="377.589859" height="164.254798"/>
  </clipPath>
 </defs>
</svg>
