<?xml version="1.0" encoding="utf-8" standalone="no"?>
<!DOCTYPE svg PUBLIC "-//W3C//DTD SVG 1.1//EN"
  "http://www.w3.org/Graphics/SVG/1.1/DTD/svg11.dtd">
<svg xmlns:xlink="http://www.w3.org/1999/xlink" width="460.8pt" height="345.6pt" viewBox="0 0 460.8 345.6" xmlns="http://www.w3.org/2000/svg" version="1.1">
 <metadata>
  <rdf:RDF xmlns:dc="http://purl.org/dc/elements/1.1/" xmlns:cc="http://creativecommons.org/ns#" xmlns:rdf="http://www.w3.org/1999/02/22-rdf-syntax-ns#">
   <cc:Work>
    <dc:type rdf:resource="http://purl.org/dc/dcmitype/StillImage"/>
    <dc:date>2023-11-08T20:58:55.456377</dc:date>
    <dc:format>image/svg+xml</dc:format>
    <dc:creator>
     <cc:Agent>
      <dc:title>Matplotlib v3.5.2, https://matplotlib.org/</dc:title>
     </cc:Agent>
    </dc:creator>
   </cc:Work>
  </rdf:RDF>
 </metadata>
 <defs>
  <style type="text/css">*{stroke-linejoin: round; stroke-linecap: butt}</style>
 </defs>
 <g id="figure_1">
  <g id="patch_1">
   <path d="M 0 345.6 
L 460.8 345.6 
L 460.8 0 
L 0 0 
z
" style="fill: #ffffff"/>
  </g>
  <g id="axes_1">
   <g id="patch_2">
    <path d="M 60.32 241.142261 
L 450 241.142261 
L 450 41.856 
L 60.32 41.856 
z
" style="fill: #ffffff"/>
   </g>
   <g id="matplotlib.axis_1">
    <g id="xtick_1">
     <g id="line2d_1">
      <defs>
       <path id="m2bf94f633a" d="M 0 0 
L 0 3.5 
" style="stroke: #000000; stroke-width: 0.8"/>
      </defs>
      <g>
       <use xlink:href="#m2bf94f633a" x="88.154286" y="241.142261" style="stroke: #000000; stroke-width: 0.8"/>
      </g>
     </g>
     <g id="text_1">
      <!-- Accessory Donor -->
      <g transform="translate(81.325207 317.325472)rotate(-75)scale(0.0833 -0.0833)">
       <defs>
        <path id="DejaVuSans-41" d="M 2188 4044 
L 1331 1722 
L 3047 1722 
L 2188 4044 
z
M 1831 4666 
L 2547 4666 
L 4325 0 
L 3669 0 
L 3244 1197 
L 1141 1197 
L 716 0 
L 50 0 
L 1831 4666 
z
" transform="scale(0.015625)"/>
        <path id="DejaVuSans-63" d="M 3122 3366 
L 3122 2828 
Q 2878 2963 2633 3030 
Q 2388 3097 2138 3097 
Q 1578 3097 1268 2742 
Q 959 2388 959 1747 
Q 959 1106 1268 751 
Q 1578 397 2138 397 
Q 2388 397 2633 464 
Q 2878 531 3122 666 
L 3122 134 
Q 2881 22 2623 -34 
Q 2366 -91 2075 -91 
Q 1284 -91 818 406 
Q 353 903 353 1747 
Q 353 2603 823 3093 
Q 1294 3584 2113 3584 
Q 2378 3584 2631 3529 
Q 2884 3475 3122 3366 
z
" transform="scale(0.015625)"/>
        <path id="DejaVuSans-65" d="M 3597 1894 
L 3597 1613 
L 953 1613 
Q 991 1019 1311 708 
Q 1631 397 2203 397 
Q 2534 397 2845 478 
Q 3156 559 3463 722 
L 3463 178 
Q 3153 47 2828 -22 
Q 2503 -91 2169 -91 
Q 1331 -91 842 396 
Q 353 884 353 1716 
Q 353 2575 817 3079 
Q 1281 3584 2069 3584 
Q 2775 3584 3186 3129 
Q 3597 2675 3597 1894 
z
M 3022 2063 
Q 3016 2534 2758 2815 
Q 2500 3097 2075 3097 
Q 1594 3097 1305 2825 
Q 1016 2553 972 2059 
L 3022 2063 
z
" transform="scale(0.015625)"/>
        <path id="DejaVuSans-73" d="M 2834 3397 
L 2834 2853 
Q 2591 2978 2328 3040 
Q 2066 3103 1784 3103 
Q 1356 3103 1142 2972 
Q 928 2841 928 2578 
Q 928 2378 1081 2264 
Q 1234 2150 1697 2047 
L 1894 2003 
Q 2506 1872 2764 1633 
Q 3022 1394 3022 966 
Q 3022 478 2636 193 
Q 2250 -91 1575 -91 
Q 1294 -91 989 -36 
Q 684 19 347 128 
L 347 722 
Q 666 556 975 473 
Q 1284 391 1588 391 
Q 1994 391 2212 530 
Q 2431 669 2431 922 
Q 2431 1156 2273 1281 
Q 2116 1406 1581 1522 
L 1381 1569 
Q 847 1681 609 1914 
Q 372 2147 372 2553 
Q 372 3047 722 3315 
Q 1072 3584 1716 3584 
Q 2034 3584 2315 3537 
Q 2597 3491 2834 3397 
z
" transform="scale(0.015625)"/>
        <path id="DejaVuSans-6f" d="M 1959 3097 
Q 1497 3097 1228 2736 
Q 959 2375 959 1747 
Q 959 1119 1226 758 
Q 1494 397 1959 397 
Q 2419 397 2687 759 
Q 2956 1122 2956 1747 
Q 2956 2369 2687 2733 
Q 2419 3097 1959 3097 
z
M 1959 3584 
Q 2709 3584 3137 3096 
Q 3566 2609 3566 1747 
Q 3566 888 3137 398 
Q 2709 -91 1959 -91 
Q 1206 -91 779 398 
Q 353 888 353 1747 
Q 353 2609 779 3096 
Q 1206 3584 1959 3584 
z
" transform="scale(0.015625)"/>
        <path id="DejaVuSans-72" d="M 2631 2963 
Q 2534 3019 2420 3045 
Q 2306 3072 2169 3072 
Q 1681 3072 1420 2755 
Q 1159 2438 1159 1844 
L 1159 0 
L 581 0 
L 581 3500 
L 1159 3500 
L 1159 2956 
Q 1341 3275 1631 3429 
Q 1922 3584 2338 3584 
Q 2397 3584 2469 3576 
Q 2541 3569 2628 3553 
L 2631 2963 
z
" transform="scale(0.015625)"/>
        <path id="DejaVuSans-79" d="M 2059 -325 
Q 1816 -950 1584 -1140 
Q 1353 -1331 966 -1331 
L 506 -1331 
L 506 -850 
L 844 -850 
Q 1081 -850 1212 -737 
Q 1344 -625 1503 -206 
L 1606 56 
L 191 3500 
L 800 3500 
L 1894 763 
L 2988 3500 
L 3597 3500 
L 2059 -325 
z
" transform="scale(0.015625)"/>
        <path id="DejaVuSans-20" transform="scale(0.015625)"/>
        <path id="DejaVuSans-44" d="M 1259 4147 
L 1259 519 
L 2022 519 
Q 2988 519 3436 956 
Q 3884 1394 3884 2338 
Q 3884 3275 3436 3711 
Q 2988 4147 2022 4147 
L 1259 4147 
z
M 628 4666 
L 1925 4666 
Q 3281 4666 3915 4102 
Q 4550 3538 4550 2338 
Q 4550 1131 3912 565 
Q 3275 0 1925 0 
L 628 0 
L 628 4666 
z
" transform="scale(0.015625)"/>
        <path id="DejaVuSans-6e" d="M 3513 2113 
L 3513 0 
L 2938 0 
L 2938 2094 
Q 2938 2591 2744 2837 
Q 2550 3084 2163 3084 
Q 1697 3084 1428 2787 
Q 1159 2491 1159 1978 
L 1159 0 
L 581 0 
L 581 3500 
L 1159 3500 
L 1159 2956 
Q 1366 3272 1645 3428 
Q 1925 3584 2291 3584 
Q 2894 3584 3203 3211 
Q 3513 2838 3513 2113 
z
" transform="scale(0.015625)"/>
       </defs>
       <use xlink:href="#DejaVuSans-41"/>
       <use xlink:href="#DejaVuSans-63" x="66.658203"/>
       <use xlink:href="#DejaVuSans-63" x="121.638672"/>
       <use xlink:href="#DejaVuSans-65" x="176.619141"/>
       <use xlink:href="#DejaVuSans-73" x="238.142578"/>
       <use xlink:href="#DejaVuSans-73" x="290.242188"/>
       <use xlink:href="#DejaVuSans-6f" x="342.341797"/>
       <use xlink:href="#DejaVuSans-72" x="403.523438"/>
       <use xlink:href="#DejaVuSans-79" x="444.636719"/>
       <use xlink:href="#DejaVuSans-20" x="503.816406"/>
       <use xlink:href="#DejaVuSans-44" x="535.603516"/>
       <use xlink:href="#DejaVuSans-6f" x="612.605469"/>
       <use xlink:href="#DejaVuSans-6e" x="673.787109"/>
       <use xlink:href="#DejaVuSans-6f" x="737.166016"/>
       <use xlink:href="#DejaVuSans-72" x="798.347656"/>
      </g>
     </g>
    </g>
    <g id="xtick_2">
     <g id="line2d_2">
      <g>
       <use xlink:href="#m2bf94f633a" x="143.822857" y="241.142261" style="stroke: #000000; stroke-width: 0.8"/>
      </g>
     </g>
     <g id="text_2">
      <!-- Intercostal Donor -->
      <g transform="translate(136.722431 319.350842)rotate(-75)scale(0.0833 -0.0833)">
       <defs>
        <path id="DejaVuSans-49" d="M 628 4666 
L 1259 4666 
L 1259 0 
L 628 0 
L 628 4666 
z
" transform="scale(0.015625)"/>
        <path id="DejaVuSans-74" d="M 1172 4494 
L 1172 3500 
L 2356 3500 
L 2356 3053 
L 1172 3053 
L 1172 1153 
Q 1172 725 1289 603 
Q 1406 481 1766 481 
L 2356 481 
L 2356 0 
L 1766 0 
Q 1100 0 847 248 
Q 594 497 594 1153 
L 594 3053 
L 172 3053 
L 172 3500 
L 594 3500 
L 594 4494 
L 1172 4494 
z
" transform="scale(0.015625)"/>
        <path id="DejaVuSans-61" d="M 2194 1759 
Q 1497 1759 1228 1600 
Q 959 1441 959 1056 
Q 959 750 1161 570 
Q 1363 391 1709 391 
Q 2188 391 2477 730 
Q 2766 1069 2766 1631 
L 2766 1759 
L 2194 1759 
z
M 3341 1997 
L 3341 0 
L 2766 0 
L 2766 531 
Q 2569 213 2275 61 
Q 1981 -91 1556 -91 
Q 1019 -91 701 211 
Q 384 513 384 1019 
Q 384 1609 779 1909 
Q 1175 2209 1959 2209 
L 2766 2209 
L 2766 2266 
Q 2766 2663 2505 2880 
Q 2244 3097 1772 3097 
Q 1472 3097 1187 3025 
Q 903 2953 641 2809 
L 641 3341 
Q 956 3463 1253 3523 
Q 1550 3584 1831 3584 
Q 2591 3584 2966 3190 
Q 3341 2797 3341 1997 
z
" transform="scale(0.015625)"/>
        <path id="DejaVuSans-6c" d="M 603 4863 
L 1178 4863 
L 1178 0 
L 603 0 
L 603 4863 
z
" transform="scale(0.015625)"/>
       </defs>
       <use xlink:href="#DejaVuSans-49"/>
       <use xlink:href="#DejaVuSans-6e" x="29.492188"/>
       <use xlink:href="#DejaVuSans-74" x="92.871094"/>
       <use xlink:href="#DejaVuSans-65" x="132.080078"/>
       <use xlink:href="#DejaVuSans-72" x="193.603516"/>
       <use xlink:href="#DejaVuSans-63" x="232.466797"/>
       <use xlink:href="#DejaVuSans-6f" x="287.447266"/>
       <use xlink:href="#DejaVuSans-73" x="348.628906"/>
       <use xlink:href="#DejaVuSans-74" x="400.728516"/>
       <use xlink:href="#DejaVuSans-61" x="439.9375"/>
       <use xlink:href="#DejaVuSans-6c" x="501.216797"/>
       <use xlink:href="#DejaVuSans-20" x="529"/>
       <use xlink:href="#DejaVuSans-44" x="560.787109"/>
       <use xlink:href="#DejaVuSans-6f" x="637.789062"/>
       <use xlink:href="#DejaVuSans-6e" x="698.970703"/>
       <use xlink:href="#DejaVuSans-6f" x="762.349609"/>
       <use xlink:href="#DejaVuSans-72" x="823.53125"/>
      </g>
     </g>
    </g>
    <g id="xtick_3">
     <g id="line2d_3">
      <g>
       <use xlink:href="#m2bf94f633a" x="199.491429" y="241.142261" style="stroke: #000000; stroke-width: 0.8"/>
      </g>
     </g>
     <g id="text_3">
      <!-- Cranioencephalic -->
      <g transform="translate(192.390665 319.353357)rotate(-75)scale(0.0833 -0.0833)">
       <defs>
        <path id="DejaVuSans-43" d="M 4122 4306 
L 4122 3641 
Q 3803 3938 3442 4084 
Q 3081 4231 2675 4231 
Q 1875 4231 1450 3742 
Q 1025 3253 1025 2328 
Q 1025 1406 1450 917 
Q 1875 428 2675 428 
Q 3081 428 3442 575 
Q 3803 722 4122 1019 
L 4122 359 
Q 3791 134 3420 21 
Q 3050 -91 2638 -91 
Q 1578 -91 968 557 
Q 359 1206 359 2328 
Q 359 3453 968 4101 
Q 1578 4750 2638 4750 
Q 3056 4750 3426 4639 
Q 3797 4528 4122 4306 
z
" transform="scale(0.015625)"/>
        <path id="DejaVuSans-69" d="M 603 3500 
L 1178 3500 
L 1178 0 
L 603 0 
L 603 3500 
z
M 603 4863 
L 1178 4863 
L 1178 4134 
L 603 4134 
L 603 4863 
z
" transform="scale(0.015625)"/>
        <path id="DejaVuSans-70" d="M 1159 525 
L 1159 -1331 
L 581 -1331 
L 581 3500 
L 1159 3500 
L 1159 2969 
Q 1341 3281 1617 3432 
Q 1894 3584 2278 3584 
Q 2916 3584 3314 3078 
Q 3713 2572 3713 1747 
Q 3713 922 3314 415 
Q 2916 -91 2278 -91 
Q 1894 -91 1617 61 
Q 1341 213 1159 525 
z
M 3116 1747 
Q 3116 2381 2855 2742 
Q 2594 3103 2138 3103 
Q 1681 3103 1420 2742 
Q 1159 2381 1159 1747 
Q 1159 1113 1420 752 
Q 1681 391 2138 391 
Q 2594 391 2855 752 
Q 3116 1113 3116 1747 
z
" transform="scale(0.015625)"/>
        <path id="DejaVuSans-68" d="M 3513 2113 
L 3513 0 
L 2938 0 
L 2938 2094 
Q 2938 2591 2744 2837 
Q 2550 3084 2163 3084 
Q 1697 3084 1428 2787 
Q 1159 2491 1159 1978 
L 1159 0 
L 581 0 
L 581 4863 
L 1159 4863 
L 1159 2956 
Q 1366 3272 1645 3428 
Q 1925 3584 2291 3584 
Q 2894 3584 3203 3211 
Q 3513 2838 3513 2113 
z
" transform="scale(0.015625)"/>
       </defs>
       <use xlink:href="#DejaVuSans-43"/>
       <use xlink:href="#DejaVuSans-72" x="69.824219"/>
       <use xlink:href="#DejaVuSans-61" x="110.9375"/>
       <use xlink:href="#DejaVuSans-6e" x="172.216797"/>
       <use xlink:href="#DejaVuSans-69" x="235.595703"/>
       <use xlink:href="#DejaVuSans-6f" x="263.378906"/>
       <use xlink:href="#DejaVuSans-65" x="324.560547"/>
       <use xlink:href="#DejaVuSans-6e" x="386.083984"/>
       <use xlink:href="#DejaVuSans-63" x="449.462891"/>
       <use xlink:href="#DejaVuSans-65" x="504.443359"/>
       <use xlink:href="#DejaVuSans-70" x="565.966797"/>
       <use xlink:href="#DejaVuSans-68" x="629.443359"/>
       <use xlink:href="#DejaVuSans-61" x="692.822266"/>
       <use xlink:href="#DejaVuSans-6c" x="754.101562"/>
       <use xlink:href="#DejaVuSans-69" x="781.884766"/>
       <use xlink:href="#DejaVuSans-63" x="809.667969"/>
      </g>
     </g>
    </g>
    <g id="xtick_4">
     <g id="line2d_4">
      <g>
       <use xlink:href="#m2bf94f633a" x="255.16" y="241.142261" style="stroke: #000000; stroke-width: 0.8"/>
      </g>
     </g>
     <g id="text_4">
      <!-- Age -->
      <g transform="translate(255.295186 265.343493)rotate(-75)scale(0.0833 -0.0833)">
       <defs>
        <path id="DejaVuSans-67" d="M 2906 1791 
Q 2906 2416 2648 2759 
Q 2391 3103 1925 3103 
Q 1463 3103 1205 2759 
Q 947 2416 947 1791 
Q 947 1169 1205 825 
Q 1463 481 1925 481 
Q 2391 481 2648 825 
Q 2906 1169 2906 1791 
z
M 3481 434 
Q 3481 -459 3084 -895 
Q 2688 -1331 1869 -1331 
Q 1566 -1331 1297 -1286 
Q 1028 -1241 775 -1147 
L 775 -588 
Q 1028 -725 1275 -790 
Q 1522 -856 1778 -856 
Q 2344 -856 2625 -561 
Q 2906 -266 2906 331 
L 2906 616 
Q 2728 306 2450 153 
Q 2172 0 1784 0 
Q 1141 0 747 490 
Q 353 981 353 1791 
Q 353 2603 747 3093 
Q 1141 3584 1784 3584 
Q 2172 3584 2450 3431 
Q 2728 3278 2906 2969 
L 2906 3500 
L 3481 3500 
L 3481 434 
z
" transform="scale(0.015625)"/>
       </defs>
       <use xlink:href="#DejaVuSans-41"/>
       <use xlink:href="#DejaVuSans-67" x="68.408203"/>
       <use xlink:href="#DejaVuSans-65" x="131.884766"/>
      </g>
     </g>
    </g>
    <g id="xtick_5">
     <g id="line2d_5">
      <g>
       <use xlink:href="#m2bf94f633a" x="310.828571" y="241.142261" style="stroke: #000000; stroke-width: 0.8"/>
      </g>
     </g>
     <g id="text_5">
      <!-- Diagnosis -->
      <g transform="translate(307.808978 288.89109)rotate(-75)scale(0.0833 -0.0833)">
       <use xlink:href="#DejaVuSans-44"/>
       <use xlink:href="#DejaVuSans-69" x="77.001953"/>
       <use xlink:href="#DejaVuSans-61" x="104.785156"/>
       <use xlink:href="#DejaVuSans-67" x="166.064453"/>
       <use xlink:href="#DejaVuSans-6e" x="229.541016"/>
       <use xlink:href="#DejaVuSans-6f" x="292.919922"/>
       <use xlink:href="#DejaVuSans-73" x="354.101562"/>
       <use xlink:href="#DejaVuSans-69" x="406.201172"/>
       <use xlink:href="#DejaVuSans-73" x="433.984375"/>
      </g>
     </g>
    </g>
    <g id="xtick_6">
     <g id="line2d_6">
      <g>
       <use xlink:href="#m2bf94f633a" x="366.497143" y="241.142261" style="stroke: #000000; stroke-width: 0.8"/>
      </g>
     </g>
     <g id="text_6">
      <!-- Ulnar Donor -->
      <g transform="translate(362.223891 298.248525)rotate(-75)scale(0.0833 -0.0833)">
       <defs>
        <path id="DejaVuSans-55" d="M 556 4666 
L 1191 4666 
L 1191 1831 
Q 1191 1081 1462 751 
Q 1734 422 2344 422 
Q 2950 422 3222 751 
Q 3494 1081 3494 1831 
L 3494 4666 
L 4128 4666 
L 4128 1753 
Q 4128 841 3676 375 
Q 3225 -91 2344 -91 
Q 1459 -91 1007 375 
Q 556 841 556 1753 
L 556 4666 
z
" transform="scale(0.015625)"/>
       </defs>
       <use xlink:href="#DejaVuSans-55"/>
       <use xlink:href="#DejaVuSans-6c" x="73.193359"/>
       <use xlink:href="#DejaVuSans-6e" x="100.976562"/>
       <use xlink:href="#DejaVuSans-61" x="164.355469"/>
       <use xlink:href="#DejaVuSans-72" x="225.634766"/>
       <use xlink:href="#DejaVuSans-20" x="266.748047"/>
       <use xlink:href="#DejaVuSans-44" x="298.535156"/>
       <use xlink:href="#DejaVuSans-6f" x="375.537109"/>
       <use xlink:href="#DejaVuSans-6e" x="436.71875"/>
       <use xlink:href="#DejaVuSans-6f" x="500.097656"/>
       <use xlink:href="#DejaVuSans-72" x="561.279297"/>
      </g>
     </g>
    </g>
    <g id="xtick_7">
     <g id="line2d_7">
      <g>
       <use xlink:href="#m2bf94f633a" x="422.165714" y="241.142261" style="stroke: #000000; stroke-width: 0.8"/>
      </g>
     </g>
     <g id="text_7">
      <!-- Surgery time -->
      <g transform="translate(417.387327 302.018906)rotate(-75)scale(0.0833 -0.0833)">
       <defs>
        <path id="DejaVuSans-53" d="M 3425 4513 
L 3425 3897 
Q 3066 4069 2747 4153 
Q 2428 4238 2131 4238 
Q 1616 4238 1336 4038 
Q 1056 3838 1056 3469 
Q 1056 3159 1242 3001 
Q 1428 2844 1947 2747 
L 2328 2669 
Q 3034 2534 3370 2195 
Q 3706 1856 3706 1288 
Q 3706 609 3251 259 
Q 2797 -91 1919 -91 
Q 1588 -91 1214 -16 
Q 841 59 441 206 
L 441 856 
Q 825 641 1194 531 
Q 1563 422 1919 422 
Q 2459 422 2753 634 
Q 3047 847 3047 1241 
Q 3047 1584 2836 1778 
Q 2625 1972 2144 2069 
L 1759 2144 
Q 1053 2284 737 2584 
Q 422 2884 422 3419 
Q 422 4038 858 4394 
Q 1294 4750 2059 4750 
Q 2388 4750 2728 4690 
Q 3069 4631 3425 4513 
z
" transform="scale(0.015625)"/>
        <path id="DejaVuSans-75" d="M 544 1381 
L 544 3500 
L 1119 3500 
L 1119 1403 
Q 1119 906 1312 657 
Q 1506 409 1894 409 
Q 2359 409 2629 706 
Q 2900 1003 2900 1516 
L 2900 3500 
L 3475 3500 
L 3475 0 
L 2900 0 
L 2900 538 
Q 2691 219 2414 64 
Q 2138 -91 1772 -91 
Q 1169 -91 856 284 
Q 544 659 544 1381 
z
M 1991 3584 
L 1991 3584 
z
" transform="scale(0.015625)"/>
        <path id="DejaVuSans-6d" d="M 3328 2828 
Q 3544 3216 3844 3400 
Q 4144 3584 4550 3584 
Q 5097 3584 5394 3201 
Q 5691 2819 5691 2113 
L 5691 0 
L 5113 0 
L 5113 2094 
Q 5113 2597 4934 2840 
Q 4756 3084 4391 3084 
Q 3944 3084 3684 2787 
Q 3425 2491 3425 1978 
L 3425 0 
L 2847 0 
L 2847 2094 
Q 2847 2600 2669 2842 
Q 2491 3084 2119 3084 
Q 1678 3084 1418 2786 
Q 1159 2488 1159 1978 
L 1159 0 
L 581 0 
L 581 3500 
L 1159 3500 
L 1159 2956 
Q 1356 3278 1631 3431 
Q 1906 3584 2284 3584 
Q 2666 3584 2933 3390 
Q 3200 3197 3328 2828 
z
" transform="scale(0.015625)"/>
       </defs>
       <use xlink:href="#DejaVuSans-53"/>
       <use xlink:href="#DejaVuSans-75" x="63.476562"/>
       <use xlink:href="#DejaVuSans-72" x="126.855469"/>
       <use xlink:href="#DejaVuSans-67" x="166.21875"/>
       <use xlink:href="#DejaVuSans-65" x="229.695312"/>
       <use xlink:href="#DejaVuSans-72" x="291.21875"/>
       <use xlink:href="#DejaVuSans-79" x="332.332031"/>
       <use xlink:href="#DejaVuSans-20" x="391.511719"/>
       <use xlink:href="#DejaVuSans-74" x="423.298828"/>
       <use xlink:href="#DejaVuSans-69" x="462.507812"/>
       <use xlink:href="#DejaVuSans-6d" x="490.291016"/>
       <use xlink:href="#DejaVuSans-65" x="587.703125"/>
      </g>
     </g>
    </g>
    <g id="text_8">
     <!-- Feature -->
     <g transform="translate(236.270156 331.400167)scale(0.1 -0.1)">
      <defs>
       <path id="DejaVuSans-46" d="M 628 4666 
L 3309 4666 
L 3309 4134 
L 1259 4134 
L 1259 2759 
L 3109 2759 
L 3109 2228 
L 1259 2228 
L 1259 0 
L 628 0 
L 628 4666 
z
" transform="scale(0.015625)"/>
      </defs>
      <use xlink:href="#DejaVuSans-46"/>
      <use xlink:href="#DejaVuSans-65" x="52.019531"/>
      <use xlink:href="#DejaVuSans-61" x="113.542969"/>
      <use xlink:href="#DejaVuSans-74" x="174.822266"/>
      <use xlink:href="#DejaVuSans-75" x="214.03125"/>
      <use xlink:href="#DejaVuSans-72" x="277.410156"/>
      <use xlink:href="#DejaVuSans-65" x="316.273438"/>
     </g>
    </g>
   </g>
   <g id="matplotlib.axis_2">
    <g id="ytick_1">
     <g id="line2d_8">
      <defs>
       <path id="mfc76a3e8e7" d="M 0 0 
L -3.5 0 
" style="stroke: #000000; stroke-width: 0.8"/>
      </defs>
      <g>
       <use xlink:href="#mfc76a3e8e7" x="60.32" y="204.440819" style="stroke: #000000; stroke-width: 0.8"/>
      </g>
     </g>
     <g id="text_9">
      <!-- 0.005 -->
      <g transform="translate(24.691875 208.240037)scale(0.1 -0.1)">
       <defs>
        <path id="DejaVuSans-30" d="M 2034 4250 
Q 1547 4250 1301 3770 
Q 1056 3291 1056 2328 
Q 1056 1369 1301 889 
Q 1547 409 2034 409 
Q 2525 409 2770 889 
Q 3016 1369 3016 2328 
Q 3016 3291 2770 3770 
Q 2525 4250 2034 4250 
z
M 2034 4750 
Q 2819 4750 3233 4129 
Q 3647 3509 3647 2328 
Q 3647 1150 3233 529 
Q 2819 -91 2034 -91 
Q 1250 -91 836 529 
Q 422 1150 422 2328 
Q 422 3509 836 4129 
Q 1250 4750 2034 4750 
z
" transform="scale(0.015625)"/>
        <path id="DejaVuSans-2e" d="M 684 794 
L 1344 794 
L 1344 0 
L 684 0 
L 684 794 
z
" transform="scale(0.015625)"/>
        <path id="DejaVuSans-35" d="M 691 4666 
L 3169 4666 
L 3169 4134 
L 1269 4134 
L 1269 2991 
Q 1406 3038 1543 3061 
Q 1681 3084 1819 3084 
Q 2600 3084 3056 2656 
Q 3513 2228 3513 1497 
Q 3513 744 3044 326 
Q 2575 -91 1722 -91 
Q 1428 -91 1123 -41 
Q 819 9 494 109 
L 494 744 
Q 775 591 1075 516 
Q 1375 441 1709 441 
Q 2250 441 2565 725 
Q 2881 1009 2881 1497 
Q 2881 1984 2565 2268 
Q 2250 2553 1709 2553 
Q 1456 2553 1204 2497 
Q 953 2441 691 2322 
L 691 4666 
z
" transform="scale(0.015625)"/>
       </defs>
       <use xlink:href="#DejaVuSans-30"/>
       <use xlink:href="#DejaVuSans-2e" x="63.623047"/>
       <use xlink:href="#DejaVuSans-30" x="95.410156"/>
       <use xlink:href="#DejaVuSans-30" x="159.033203"/>
       <use xlink:href="#DejaVuSans-35" x="222.65625"/>
      </g>
     </g>
    </g>
    <g id="ytick_2">
     <g id="line2d_9">
      <g>
       <use xlink:href="#mfc76a3e8e7" x="60.32" y="160.331568" style="stroke: #000000; stroke-width: 0.8"/>
      </g>
     </g>
     <g id="text_10">
      <!-- 0.010 -->
      <g transform="translate(24.691875 164.130787)scale(0.1 -0.1)">
       <defs>
        <path id="DejaVuSans-31" d="M 794 531 
L 1825 531 
L 1825 4091 
L 703 3866 
L 703 4441 
L 1819 4666 
L 2450 4666 
L 2450 531 
L 3481 531 
L 3481 0 
L 794 0 
L 794 531 
z
" transform="scale(0.015625)"/>
       </defs>
       <use xlink:href="#DejaVuSans-30"/>
       <use xlink:href="#DejaVuSans-2e" x="63.623047"/>
       <use xlink:href="#DejaVuSans-30" x="95.410156"/>
       <use xlink:href="#DejaVuSans-31" x="159.033203"/>
       <use xlink:href="#DejaVuSans-30" x="222.65625"/>
      </g>
     </g>
    </g>
    <g id="ytick_3">
     <g id="line2d_10">
      <g>
       <use xlink:href="#mfc76a3e8e7" x="60.32" y="116.222317" style="stroke: #000000; stroke-width: 0.8"/>
      </g>
     </g>
     <g id="text_11">
      <!-- 0.015 -->
      <g transform="translate(24.691875 120.021536)scale(0.1 -0.1)">
       <use xlink:href="#DejaVuSans-30"/>
       <use xlink:href="#DejaVuSans-2e" x="63.623047"/>
       <use xlink:href="#DejaVuSans-30" x="95.410156"/>
       <use xlink:href="#DejaVuSans-31" x="159.033203"/>
       <use xlink:href="#DejaVuSans-35" x="222.65625"/>
      </g>
     </g>
    </g>
    <g id="ytick_4">
     <g id="line2d_11">
      <g>
       <use xlink:href="#mfc76a3e8e7" x="60.32" y="72.113066" style="stroke: #000000; stroke-width: 0.8"/>
      </g>
     </g>
     <g id="text_12">
      <!-- 0.020 -->
      <g transform="translate(24.691875 75.912285)scale(0.1 -0.1)">
       <defs>
        <path id="DejaVuSans-32" d="M 1228 531 
L 3431 531 
L 3431 0 
L 469 0 
L 469 531 
Q 828 903 1448 1529 
Q 2069 2156 2228 2338 
Q 2531 2678 2651 2914 
Q 2772 3150 2772 3378 
Q 2772 3750 2511 3984 
Q 2250 4219 1831 4219 
Q 1534 4219 1204 4116 
Q 875 4013 500 3803 
L 500 4441 
Q 881 4594 1212 4672 
Q 1544 4750 1819 4750 
Q 2544 4750 2975 4387 
Q 3406 4025 3406 3419 
Q 3406 3131 3298 2873 
Q 3191 2616 2906 2266 
Q 2828 2175 2409 1742 
Q 1991 1309 1228 531 
z
" transform="scale(0.015625)"/>
       </defs>
       <use xlink:href="#DejaVuSans-30"/>
       <use xlink:href="#DejaVuSans-2e" x="63.623047"/>
       <use xlink:href="#DejaVuSans-30" x="95.410156"/>
       <use xlink:href="#DejaVuSans-32" x="159.033203"/>
       <use xlink:href="#DejaVuSans-30" x="222.65625"/>
      </g>
     </g>
    </g>
    <g id="text_13">
     <!-- Importance -->
     <g transform="translate(18.612188 170.152255)rotate(-90)scale(0.1 -0.1)">
      <use xlink:href="#DejaVuSans-49"/>
      <use xlink:href="#DejaVuSans-6d" x="29.492188"/>
      <use xlink:href="#DejaVuSans-70" x="126.904297"/>
      <use xlink:href="#DejaVuSans-6f" x="190.380859"/>
      <use xlink:href="#DejaVuSans-72" x="251.5625"/>
      <use xlink:href="#DejaVuSans-74" x="292.675781"/>
      <use xlink:href="#DejaVuSans-61" x="331.884766"/>
      <use xlink:href="#DejaVuSans-6e" x="393.164062"/>
      <use xlink:href="#DejaVuSans-63" x="456.542969"/>
      <use xlink:href="#DejaVuSans-65" x="511.523438"/>
     </g>
    </g>
   </g>
   <g id="line2d_12">
    <path d="M 74.237143 225.936483 
L 102.071429 225.936483 
L 102.071429 218.42771 
L 74.237143 218.42771 
L 74.237143 225.936483 
" clip-path="url(#paa595662ce)" style="fill: none; stroke: #000000; stroke-linecap: square"/>
   </g>
   <g id="line2d_13">
    <path d="M 88.154286 225.936483 
L 88.154286 232.083795 
" clip-path="url(#paa595662ce)" style="fill: none; stroke: #000000; stroke-linecap: square"/>
   </g>
   <g id="line2d_14">
    <path d="M 88.154286 218.42771 
L 88.154286 215.439739 
" clip-path="url(#paa595662ce)" style="fill: none; stroke: #000000; stroke-linecap: square"/>
   </g>
   <g id="line2d_15">
    <path d="M 81.195714 232.083795 
L 95.112857 232.083795 
" clip-path="url(#paa595662ce)" style="fill: none; stroke: #000000; stroke-linecap: square"/>
   </g>
   <g id="line2d_16">
    <path d="M 81.195714 215.439739 
L 95.112857 215.439739 
" clip-path="url(#paa595662ce)" style="fill: none; stroke: #000000; stroke-linecap: square"/>
   </g>
   <g id="line2d_17"/>
   <g id="line2d_18">
    <path d="M 129.905714 198.899219 
L 157.74 198.899219 
L 157.74 192.872831 
L 129.905714 192.872831 
L 129.905714 198.899219 
" clip-path="url(#paa595662ce)" style="fill: none; stroke: #000000; stroke-linecap: square"/>
   </g>
   <g id="line2d_19">
    <path d="M 143.822857 198.899219 
L 143.822857 202.793802 
" clip-path="url(#paa595662ce)" style="fill: none; stroke: #000000; stroke-linecap: square"/>
   </g>
   <g id="line2d_20">
    <path d="M 143.822857 192.872831 
L 143.822857 185.214365 
" clip-path="url(#paa595662ce)" style="fill: none; stroke: #000000; stroke-linecap: square"/>
   </g>
   <g id="line2d_21">
    <path d="M 136.864286 202.793802 
L 150.781429 202.793802 
" clip-path="url(#paa595662ce)" style="fill: none; stroke: #000000; stroke-linecap: square"/>
   </g>
   <g id="line2d_22">
    <path d="M 136.864286 185.214365 
L 150.781429 185.214365 
" clip-path="url(#paa595662ce)" style="fill: none; stroke: #000000; stroke-linecap: square"/>
   </g>
   <g id="line2d_23"/>
   <g id="line2d_24">
    <path d="M 185.574286 191.225826 
L 213.408571 191.225826 
L 213.408571 187.494389 
L 185.574286 187.494389 
L 185.574286 191.225826 
" clip-path="url(#paa595662ce)" style="fill: none; stroke: #000000; stroke-linecap: square"/>
   </g>
   <g id="line2d_25">
    <path d="M 199.491429 191.225826 
L 199.491429 195.531457 
" clip-path="url(#paa595662ce)" style="fill: none; stroke: #000000; stroke-linecap: square"/>
   </g>
   <g id="line2d_26">
    <path d="M 199.491429 187.494389 
L 199.491429 185.593812 
" clip-path="url(#paa595662ce)" style="fill: none; stroke: #000000; stroke-linecap: square"/>
   </g>
   <g id="line2d_27">
    <path d="M 192.532857 195.531457 
L 206.45 195.531457 
" clip-path="url(#paa595662ce)" style="fill: none; stroke: #000000; stroke-linecap: square"/>
   </g>
   <g id="line2d_28">
    <path d="M 192.532857 185.593812 
L 206.45 185.593812 
" clip-path="url(#paa595662ce)" style="fill: none; stroke: #000000; stroke-linecap: square"/>
   </g>
   <g id="line2d_29">
    <defs>
     <path id="m9570e2b2a2" d="M 0 3 
C 0.795609 3 1.55874 2.683901 2.12132 2.12132 
C 2.683901 1.55874 3 0.795609 3 0 
C 3 -0.795609 2.683901 -1.55874 2.12132 -2.12132 
C 1.55874 -2.683901 0.795609 -3 0 -3 
C -0.795609 -3 -1.55874 -2.683901 -2.12132 -2.12132 
C -2.683901 -1.55874 -3 -0.795609 -3 0 
C -3 0.795609 -2.683901 1.55874 -2.12132 2.12132 
C -1.55874 2.683901 -0.795609 3 0 3 
z
" style="stroke: #000000"/>
    </defs>
    <g clip-path="url(#paa595662ce)">
     <use xlink:href="#m9570e2b2a2" x="199.491429" y="201.283864" style="fill-opacity: 0; stroke: #000000"/>
     <use xlink:href="#m9570e2b2a2" x="199.491429" y="197.689317" style="fill-opacity: 0; stroke: #000000"/>
     <use xlink:href="#m9570e2b2a2" x="199.491429" y="180.271355" style="fill-opacity: 0; stroke: #000000"/>
     <use xlink:href="#m9570e2b2a2" x="199.491429" y="181.402821" style="fill-opacity: 0; stroke: #000000"/>
    </g>
   </g>
   <g id="line2d_30">
    <path d="M 241.242857 140.843645 
L 269.077143 140.843645 
L 269.077143 128.284886 
L 241.242857 128.284886 
L 241.242857 140.843645 
" clip-path="url(#paa595662ce)" style="fill: none; stroke: #000000; stroke-linecap: square"/>
   </g>
   <g id="line2d_31">
    <path d="M 255.16 140.843645 
L 255.16 150.659141 
" clip-path="url(#paa595662ce)" style="fill: none; stroke: #000000; stroke-linecap: square"/>
   </g>
   <g id="line2d_32">
    <path d="M 255.16 128.284886 
L 255.16 113.784371 
" clip-path="url(#paa595662ce)" style="fill: none; stroke: #000000; stroke-linecap: square"/>
   </g>
   <g id="line2d_33">
    <path d="M 248.201429 150.659141 
L 262.118571 150.659141 
" clip-path="url(#paa595662ce)" style="fill: none; stroke: #000000; stroke-linecap: square"/>
   </g>
   <g id="line2d_34">
    <path d="M 248.201429 113.784371 
L 262.118571 113.784371 
" clip-path="url(#paa595662ce)" style="fill: none; stroke: #000000; stroke-linecap: square"/>
   </g>
   <g id="line2d_35"/>
   <g id="line2d_36">
    <path d="M 296.911429 128.055333 
L 324.745714 128.055333 
L 324.745714 119.226899 
L 296.911429 119.226899 
L 296.911429 128.055333 
" clip-path="url(#paa595662ce)" style="fill: none; stroke: #000000; stroke-linecap: square"/>
   </g>
   <g id="line2d_37">
    <path d="M 310.828571 128.055333 
L 310.828571 139.352557 
" clip-path="url(#paa595662ce)" style="fill: none; stroke: #000000; stroke-linecap: square"/>
   </g>
   <g id="line2d_38">
    <path d="M 310.828571 119.226899 
L 310.828571 110.669874 
" clip-path="url(#paa595662ce)" style="fill: none; stroke: #000000; stroke-linecap: square"/>
   </g>
   <g id="line2d_39">
    <path d="M 303.87 139.352557 
L 317.787143 139.352557 
" clip-path="url(#paa595662ce)" style="fill: none; stroke: #000000; stroke-linecap: square"/>
   </g>
   <g id="line2d_40">
    <path d="M 303.87 110.669874 
L 317.787143 110.669874 
" clip-path="url(#paa595662ce)" style="fill: none; stroke: #000000; stroke-linecap: square"/>
   </g>
   <g id="line2d_41">
    <g clip-path="url(#paa595662ce)">
     <use xlink:href="#m9570e2b2a2" x="310.828571" y="105.936786" style="fill-opacity: 0; stroke: #000000"/>
    </g>
   </g>
   <g id="line2d_42">
    <path d="M 352.58 83.32549 
L 380.414286 83.32549 
L 380.414286 75.873373 
L 352.58 75.873373 
L 352.58 83.32549 
" clip-path="url(#paa595662ce)" style="fill: none; stroke: #000000; stroke-linecap: square"/>
   </g>
   <g id="line2d_43">
    <path d="M 366.497143 83.32549 
L 366.497143 94.063081 
" clip-path="url(#paa595662ce)" style="fill: none; stroke: #000000; stroke-linecap: square"/>
   </g>
   <g id="line2d_44">
    <path d="M 366.497143 75.873373 
L 366.497143 65.317329 
" clip-path="url(#paa595662ce)" style="fill: none; stroke: #000000; stroke-linecap: square"/>
   </g>
   <g id="line2d_45">
    <path d="M 359.538571 94.063081 
L 373.455714 94.063081 
" clip-path="url(#paa595662ce)" style="fill: none; stroke: #000000; stroke-linecap: square"/>
   </g>
   <g id="line2d_46">
    <path d="M 359.538571 65.317329 
L 373.455714 65.317329 
" clip-path="url(#paa595662ce)" style="fill: none; stroke: #000000; stroke-linecap: square"/>
   </g>
   <g id="line2d_47"/>
   <g id="line2d_48">
    <path d="M 408.248571 76.207113 
L 436.082857 76.207113 
L 436.082857 56.454384 
L 408.248571 56.454384 
L 408.248571 76.207113 
" clip-path="url(#paa595662ce)" style="fill: none; stroke: #000000; stroke-linecap: square"/>
   </g>
   <g id="line2d_49">
    <path d="M 422.165714 76.207113 
L 422.165714 88.233995 
" clip-path="url(#paa595662ce)" style="fill: none; stroke: #000000; stroke-linecap: square"/>
   </g>
   <g id="line2d_50">
    <path d="M 422.165714 56.454384 
L 422.165714 50.914466 
" clip-path="url(#paa595662ce)" style="fill: none; stroke: #000000; stroke-linecap: square"/>
   </g>
   <g id="line2d_51">
    <path d="M 415.207143 88.233995 
L 429.124286 88.233995 
" clip-path="url(#paa595662ce)" style="fill: none; stroke: #000000; stroke-linecap: square"/>
   </g>
   <g id="line2d_52">
    <path d="M 415.207143 50.914466 
L 429.124286 50.914466 
" clip-path="url(#paa595662ce)" style="fill: none; stroke: #000000; stroke-linecap: square"/>
   </g>
   <g id="line2d_53"/>
   <g id="line2d_54">
    <path d="M 74.237143 220.395156 
L 102.071429 220.395156 
" clip-path="url(#paa595662ce)" style="fill: none; stroke: #ff7f0e; stroke-linecap: square"/>
   </g>
   <g id="line2d_55">
    <path d="M 129.905714 196.378758 
L 157.74 196.378758 
" clip-path="url(#paa595662ce)" style="fill: none; stroke: #ff7f0e; stroke-linecap: square"/>
   </g>
   <g id="line2d_56">
    <path d="M 185.574286 190.604258 
L 213.408571 190.604258 
" clip-path="url(#paa595662ce)" style="fill: none; stroke: #ff7f0e; stroke-linecap: square"/>
   </g>
   <g id="line2d_57">
    <path d="M 241.242857 130.48488 
L 269.077143 130.48488 
" clip-path="url(#paa595662ce)" style="fill: none; stroke: #ff7f0e; stroke-linecap: square"/>
   </g>
   <g id="line2d_58">
    <path d="M 296.911429 122.800568 
L 324.745714 122.800568 
" clip-path="url(#paa595662ce)" style="fill: none; stroke: #ff7f0e; stroke-linecap: square"/>
   </g>
   <g id="line2d_59">
    <path d="M 352.58 78.709367 
L 380.414286 78.709367 
" clip-path="url(#paa595662ce)" style="fill: none; stroke: #ff7f0e; stroke-linecap: square"/>
   </g>
   <g id="line2d_60">
    <path d="M 408.248571 65.512664 
L 436.082857 65.512664 
" clip-path="url(#paa595662ce)" style="fill: none; stroke: #ff7f0e; stroke-linecap: square"/>
   </g>
   <g id="patch_3">
    <path d="M 60.32 241.142261 
L 60.32 41.856 
" style="fill: none; stroke: #000000; stroke-width: 0.8; stroke-linejoin: miter; stroke-linecap: square"/>
   </g>
   <g id="patch_4">
    <path d="M 450 241.142261 
L 450 41.856 
" style="fill: none; stroke: #000000; stroke-width: 0.8; stroke-linejoin: miter; stroke-linecap: square"/>
   </g>
   <g id="patch_5">
    <path d="M 60.32 241.142261 
L 450 241.142261 
" style="fill: none; stroke: #000000; stroke-width: 0.8; stroke-linejoin: miter; stroke-linecap: square"/>
   </g>
   <g id="patch_6">
    <path d="M 60.32 41.856 
L 450 41.856 
" style="fill: none; stroke: #000000; stroke-width: 0.8; stroke-linejoin: miter; stroke-linecap: square"/>
   </g>
   <g id="text_14">
    <!-- Elbow Flexion - Selected Features -->
    <g transform="translate(154.320625 22.418625)scale(0.12 -0.12)">
     <defs>
      <path id="DejaVuSans-45" d="M 628 4666 
L 3578 4666 
L 3578 4134 
L 1259 4134 
L 1259 2753 
L 3481 2753 
L 3481 2222 
L 1259 2222 
L 1259 531 
L 3634 531 
L 3634 0 
L 628 0 
L 628 4666 
z
" transform="scale(0.015625)"/>
      <path id="DejaVuSans-62" d="M 3116 1747 
Q 3116 2381 2855 2742 
Q 2594 3103 2138 3103 
Q 1681 3103 1420 2742 
Q 1159 2381 1159 1747 
Q 1159 1113 1420 752 
Q 1681 391 2138 391 
Q 2594 391 2855 752 
Q 3116 1113 3116 1747 
z
M 1159 2969 
Q 1341 3281 1617 3432 
Q 1894 3584 2278 3584 
Q 2916 3584 3314 3078 
Q 3713 2572 3713 1747 
Q 3713 922 3314 415 
Q 2916 -91 2278 -91 
Q 1894 -91 1617 61 
Q 1341 213 1159 525 
L 1159 0 
L 581 0 
L 581 4863 
L 1159 4863 
L 1159 2969 
z
" transform="scale(0.015625)"/>
      <path id="DejaVuSans-77" d="M 269 3500 
L 844 3500 
L 1563 769 
L 2278 3500 
L 2956 3500 
L 3675 769 
L 4391 3500 
L 4966 3500 
L 4050 0 
L 3372 0 
L 2619 2869 
L 1863 0 
L 1184 0 
L 269 3500 
z
" transform="scale(0.015625)"/>
      <path id="DejaVuSans-78" d="M 3513 3500 
L 2247 1797 
L 3578 0 
L 2900 0 
L 1881 1375 
L 863 0 
L 184 0 
L 1544 1831 
L 300 3500 
L 978 3500 
L 1906 2253 
L 2834 3500 
L 3513 3500 
z
" transform="scale(0.015625)"/>
      <path id="DejaVuSans-2d" d="M 313 2009 
L 1997 2009 
L 1997 1497 
L 313 1497 
L 313 2009 
z
" transform="scale(0.015625)"/>
      <path id="DejaVuSans-64" d="M 2906 2969 
L 2906 4863 
L 3481 4863 
L 3481 0 
L 2906 0 
L 2906 525 
Q 2725 213 2448 61 
Q 2172 -91 1784 -91 
Q 1150 -91 751 415 
Q 353 922 353 1747 
Q 353 2572 751 3078 
Q 1150 3584 1784 3584 
Q 2172 3584 2448 3432 
Q 2725 3281 2906 2969 
z
M 947 1747 
Q 947 1113 1208 752 
Q 1469 391 1925 391 
Q 2381 391 2643 752 
Q 2906 1113 2906 1747 
Q 2906 2381 2643 2742 
Q 2381 3103 1925 3103 
Q 1469 3103 1208 2742 
Q 947 2381 947 1747 
z
" transform="scale(0.015625)"/>
     </defs>
     <use xlink:href="#DejaVuSans-45"/>
     <use xlink:href="#DejaVuSans-6c" x="63.183594"/>
     <use xlink:href="#DejaVuSans-62" x="90.966797"/>
     <use xlink:href="#DejaVuSans-6f" x="154.443359"/>
     <use xlink:href="#DejaVuSans-77" x="215.625"/>
     <use xlink:href="#DejaVuSans-20" x="297.412109"/>
     <use xlink:href="#DejaVuSans-46" x="329.199219"/>
     <use xlink:href="#DejaVuSans-6c" x="386.71875"/>
     <use xlink:href="#DejaVuSans-65" x="414.501953"/>
     <use xlink:href="#DejaVuSans-78" x="474.275391"/>
     <use xlink:href="#DejaVuSans-69" x="533.455078"/>
     <use xlink:href="#DejaVuSans-6f" x="561.238281"/>
     <use xlink:href="#DejaVuSans-6e" x="622.419922"/>
     <use xlink:href="#DejaVuSans-20" x="685.798828"/>
     <use xlink:href="#DejaVuSans-2d" x="717.585938"/>
     <use xlink:href="#DejaVuSans-20" x="753.669922"/>
     <use xlink:href="#DejaVuSans-53" x="785.457031"/>
     <use xlink:href="#DejaVuSans-65" x="848.933594"/>
     <use xlink:href="#DejaVuSans-6c" x="910.457031"/>
     <use xlink:href="#DejaVuSans-65" x="938.240234"/>
     <use xlink:href="#DejaVuSans-63" x="999.763672"/>
     <use xlink:href="#DejaVuSans-74" x="1054.744141"/>
     <use xlink:href="#DejaVuSans-65" x="1093.953125"/>
     <use xlink:href="#DejaVuSans-64" x="1155.476562"/>
     <use xlink:href="#DejaVuSans-20" x="1218.953125"/>
     <use xlink:href="#DejaVuSans-46" x="1250.740234"/>
     <use xlink:href="#DejaVuSans-65" x="1302.759766"/>
     <use xlink:href="#DejaVuSans-61" x="1364.283203"/>
     <use xlink:href="#DejaVuSans-74" x="1425.5625"/>
     <use xlink:href="#DejaVuSans-75" x="1464.771484"/>
     <use xlink:href="#DejaVuSans-72" x="1528.150391"/>
     <use xlink:href="#DejaVuSans-65" x="1567.013672"/>
     <use xlink:href="#DejaVuSans-73" x="1628.537109"/>
    </g>
    <!-- Features' Importance -->
    <g transform="translate(191.426875 35.856)scale(0.12 -0.12)">
     <defs>
      <path id="DejaVuSans-27" d="M 1147 4666 
L 1147 2931 
L 616 2931 
L 616 4666 
L 1147 4666 
z
" transform="scale(0.015625)"/>
     </defs>
     <use xlink:href="#DejaVuSans-46"/>
     <use xlink:href="#DejaVuSans-65" x="52.019531"/>
     <use xlink:href="#DejaVuSans-61" x="113.542969"/>
     <use xlink:href="#DejaVuSans-74" x="174.822266"/>
     <use xlink:href="#DejaVuSans-75" x="214.03125"/>
     <use xlink:href="#DejaVuSans-72" x="277.410156"/>
     <use xlink:href="#DejaVuSans-65" x="316.273438"/>
     <use xlink:href="#DejaVuSans-73" x="377.796875"/>
     <use xlink:href="#DejaVuSans-27" x="429.896484"/>
     <use xlink:href="#DejaVuSans-20" x="457.386719"/>
     <use xlink:href="#DejaVuSans-49" x="489.173828"/>
     <use xlink:href="#DejaVuSans-6d" x="518.666016"/>
     <use xlink:href="#DejaVuSans-70" x="616.078125"/>
     <use xlink:href="#DejaVuSans-6f" x="679.554688"/>
     <use xlink:href="#DejaVuSans-72" x="740.736328"/>
     <use xlink:href="#DejaVuSans-74" x="781.849609"/>
     <use xlink:href="#DejaVuSans-61" x="821.058594"/>
     <use xlink:href="#DejaVuSans-6e" x="882.337891"/>
     <use xlink:href="#DejaVuSans-63" x="945.716797"/>
     <use xlink:href="#DejaVuSans-65" x="1000.697266"/>
    </g>
   </g>
  </g>
 </g>
 <defs>
  <clipPath id="paa595662ce">
   <rect x="60.32" y="41.856" width="389.68" height="199.286261"/>
  </clipPath>
 </defs>
</svg>
